<?xml version="1.0" encoding="UTF-8" ?>
<!DOCTYPE svg PUBLIC "-//W3C//DTD SVG 1.1//EN" "http://www.w3.org/Graphics/SVG/1.1/DTD/svg11.dtd">
<svg width="1467pt" height="292pt" viewBox="0 0 1467 292" version="1.1" xmlns="http://www.w3.org/2000/svg">
<g id="#ffffffff">
</g>
<g id="#174195ff">
<path fill="#174195" opacity="1.00" d=" M 5.52 8.94 C 5.05 6.86 6.91 5.10 8.97 5.56 C 142.64 5.60 276.32 5.57 410.00 5.58 C 414.52 5.65 419.11 5.20 423.57 6.16 C 423.80 80.77 423.60 155.39 423.67 230.00 C 423.57 248.58 423.85 267.16 423.52 285.74 C 339.35 285.78 255.17 285.75 171.00 285.76 C 115.85 285.67 60.69 285.92 5.54 285.63 C 5.48 193.40 5.52 101.17 5.52 8.94 M 212.75 40.89 C 212.56 43.77 212.50 46.66 212.43 49.55 C 208.36 49.68 204.28 49.49 200.22 49.81 C 202.82 52.59 205.92 54.84 208.99 57.07 C 208.66 60.34 206.89 63.10 205.06 65.72 C 209.35 67.81 211.18 60.11 215.58 61.33 C 218.45 63.08 221.02 65.33 224.11 66.71 C 222.72 63.46 220.11 59.82 221.73 56.20 C 223.84 53.82 226.67 52.29 229.12 50.32 C 225.27 49.12 221.21 49.75 217.26 49.66 C 216.91 47.32 216.76 44.97 216.37 42.64 C 215.47 41.55 213.99 41.38 212.75 40.89 M 259.94 52.74 C 259.16 56.17 257.87 59.44 256.36 62.61 C 253.36 62.53 250.37 62.44 247.37 62.37 C 249.58 64.91 252.11 67.14 254.82 69.12 C 253.74 72.16 252.43 75.16 252.14 78.41 C 255.03 76.68 257.58 74.19 260.85 73.17 C 263.50 75.01 265.87 77.23 268.65 78.90 C 268.59 75.39 266.56 72.39 265.83 69.02 C 268.66 67.08 271.31 64.88 273.62 62.33 C 270.61 62.43 267.61 62.55 264.62 62.68 C 262.59 59.59 261.58 56.03 261.14 52.39 C 260.84 52.48 260.24 52.66 259.94 52.74 M 165.12 62.59 C 162.21 62.54 159.30 62.47 156.39 62.44 C 158.09 65.45 160.96 67.38 163.79 69.21 C 162.66 72.28 160.93 75.13 160.38 78.40 C 163.50 76.98 166.33 75.03 169.08 73.02 C 171.74 74.86 174.36 76.76 176.93 78.72 C 177.17 75.34 175.46 72.32 174.47 69.20 C 177.31 67.20 179.91 64.90 182.24 62.33 C 179.08 62.44 175.92 62.55 172.77 62.60 C 171.21 59.29 170.21 55.77 168.91 52.36 C 167.94 55.88 167.75 59.77 165.12 62.59 M 131.61 95.09 C 127.96 95.01 124.32 94.77 120.67 94.59 C 122.14 98.02 125.38 99.94 127.98 102.39 C 128.64 106.03 126.48 109.47 125.42 112.86 C 129.52 112.70 132.74 110.03 135.93 107.78 C 138.65 110.11 141.58 112.30 145.05 113.38 C 144.33 109.67 143.12 106.09 142.08 102.46 C 144.50 100.94 146.97 99.51 149.39 98.00 C 149.32 97.31 149.17 95.92 149.10 95.23 C 146.10 95.17 143.11 95.05 140.12 94.92 C 138.86 91.35 137.64 87.76 136.07 84.31 C 134.20 87.73 132.72 91.36 131.61 95.09 M 292.75 87.01 C 292.43 90.12 291.25 93.01 289.66 95.68 C 286.45 95.65 283.23 95.59 280.02 95.68 C 281.26 99.12 285.25 99.81 287.89 101.84 C 287.29 105.45 286.06 108.90 285.35 112.49 C 288.22 110.74 290.80 108.58 293.29 106.33 C 295.95 108.45 298.62 110.60 301.70 112.12 C 301.39 108.61 300.12 105.32 299.19 101.95 C 301.97 100.11 305.83 99.21 306.97 95.69 C 303.72 95.59 300.48 95.65 297.23 95.70 C 296.07 93.00 294.97 90.27 294.17 87.44 C 293.81 87.33 293.11 87.12 292.75 87.01 M 304.85 131.31 C 304.30 134.38 303.91 137.47 303.47 140.56 C 299.51 141.15 295.49 141.09 291.52 141.58 C 294.28 143.78 297.43 145.62 299.57 148.50 C 300.05 152.00 296.71 154.65 297.32 158.20 C 300.32 156.38 303.14 154.28 305.90 152.12 C 308.52 154.12 311.07 156.21 313.78 158.10 C 313.62 154.84 312.47 151.78 311.17 148.83 C 313.83 145.86 317.07 143.56 320.45 141.49 C 316.66 140.65 312.36 142.20 308.88 140.39 C 307.60 137.34 306.56 134.17 304.85 131.31 M 120.50 141.00 C 116.51 141.34 112.49 140.99 108.52 141.49 C 111.43 143.98 117.25 145.12 116.69 149.89 C 116.56 152.66 115.87 155.35 115.45 158.08 C 118.33 156.14 120.86 153.69 123.90 151.97 C 126.42 154.58 129.17 156.95 132.22 158.92 C 131.30 155.50 130.13 152.16 129.17 148.75 C 131.64 145.59 135.49 144.03 138.05 141.01 C 133.93 141.25 129.77 141.33 125.71 140.43 C 125.59 137.93 125.43 135.44 125.20 132.95 C 121.21 133.74 121.08 137.73 120.50 141.00 M 135.31 178.27 C 134.29 181.44 133.15 184.56 132.33 187.79 C 129.07 187.75 125.81 187.68 122.56 187.93 C 124.66 190.29 127.23 192.14 129.76 194.01 C 128.87 197.34 127.86 200.65 127.44 204.09 C 130.09 203.15 132.06 201.10 133.97 199.13 C 135.25 199.26 136.52 199.48 137.78 199.77 C 140.09 201.19 141.69 204.29 144.80 203.74 C 143.26 200.41 141.35 197.09 141.59 193.27 C 144.41 191.80 147.39 190.40 149.54 187.97 C 146.02 187.66 142.49 187.78 138.97 187.65 C 138.11 184.60 137.35 181.52 137.15 178.36 C 136.69 178.34 135.77 178.29 135.31 178.27 M 289.81 187.70 C 286.50 187.69 283.16 187.70 279.98 188.70 C 282.51 190.25 285.08 191.73 287.65 193.21 C 287.71 196.97 286.08 200.42 285.12 203.99 C 288.53 203.72 289.68 199.35 293.03 199.35 C 296.83 198.75 298.33 203.52 301.90 204.00 C 301.35 200.57 300.12 197.30 299.21 193.96 C 301.84 192.25 304.46 190.51 306.96 188.62 C 303.70 187.65 300.29 187.72 296.93 187.67 C 295.82 184.37 294.67 181.09 293.73 177.74 C 292.37 181.04 291.34 184.47 289.81 187.70 M 168.72 210.63 C 167.86 214.40 167.94 218.56 165.06 221.52 C 161.93 221.45 158.80 221.36 155.67 221.48 C 157.93 223.89 160.69 225.70 163.64 227.14 C 163.09 230.69 161.12 233.78 160.44 237.30 C 163.55 236.00 166.38 234.14 169.05 232.11 C 171.89 233.90 174.67 235.78 177.60 237.43 C 176.60 233.95 175.02 230.58 175.09 226.89 C 177.85 225.41 180.33 223.49 182.59 221.34 C 179.31 221.31 176.03 221.47 172.75 221.54 C 171.24 217.96 170.33 214.16 168.72 210.63 M 259.38 211.34 C 258.23 214.31 257.06 217.28 255.94 220.27 C 252.98 220.31 250.01 220.34 247.05 220.39 C 246.89 221.03 246.58 222.32 246.43 222.96 C 246.85 222.89 247.69 222.76 248.11 222.70 C 250.27 224.45 252.55 226.06 254.74 227.78 C 253.63 230.80 252.47 233.84 252.03 237.06 C 254.82 235.71 257.24 233.76 259.97 232.31 C 263.23 233.27 265.61 236.28 268.84 237.52 C 268.45 234.04 267.38 230.69 266.57 227.29 C 269.83 225.74 272.82 223.64 275.03 220.75 C 271.72 220.45 268.39 220.54 265.11 220.05 C 262.67 217.72 262.36 214.10 261.46 211.02 C 260.94 211.10 259.90 211.26 259.38 211.34 M 212.69 223.98 C 212.56 226.85 212.50 229.72 212.44 232.59 C 208.56 233.75 204.50 233.30 200.52 233.37 C 203.21 235.77 206.22 237.77 209.11 239.91 C 208.41 243.18 207.05 246.22 205.35 249.07 C 209.06 249.02 211.34 245.94 214.18 244.06 C 217.52 245.32 219.98 248.27 223.51 249.23 C 222.29 246.28 221.34 243.24 220.39 240.20 C 221.46 239.12 222.54 238.05 223.66 237.02 C 226.39 236.66 228.29 234.75 229.50 232.40 C 225.36 232.03 221.21 232.05 217.07 231.85 C 216.58 229.54 216.74 227.15 216.21 224.86 C 215.05 224.52 213.88 224.22 212.69 223.98 Z" />
</g>
<g id="#feed01ff">
<path fill="#feed01" opacity="1.00" d=" M 212.75 40.89 C 213.99 41.38 215.47 41.55 216.37 42.64 C 216.76 44.97 216.91 47.32 217.26 49.66 C 221.21 49.75 225.27 49.12 229.12 50.32 C 226.67 52.29 223.84 53.82 221.73 56.20 C 220.11 59.82 222.72 63.46 224.11 66.71 C 221.02 65.33 218.45 63.08 215.58 61.33 C 211.18 60.11 209.35 67.81 205.06 65.72 C 206.89 63.10 208.66 60.34 208.99 57.07 C 205.92 54.84 202.82 52.59 200.22 49.81 C 204.28 49.49 208.36 49.68 212.43 49.55 C 212.50 46.66 212.56 43.77 212.75 40.89 Z" />
<path fill="#feed01" opacity="1.00" d=" M 259.94 52.74 C 260.24 52.66 260.84 52.48 261.14 52.39 C 261.58 56.03 262.59 59.59 264.62 62.68 C 267.61 62.55 270.61 62.43 273.62 62.33 C 271.31 64.88 268.66 67.08 265.83 69.02 C 266.56 72.39 268.59 75.39 268.65 78.90 C 265.87 77.23 263.50 75.01 260.85 73.17 C 257.58 74.19 255.03 76.68 252.14 78.41 C 252.43 75.16 253.74 72.16 254.82 69.12 C 252.11 67.14 249.58 64.91 247.37 62.37 C 250.37 62.44 253.36 62.53 256.36 62.61 C 257.87 59.44 259.16 56.17 259.94 52.74 Z" />
<path fill="#feed01" opacity="1.00" d=" M 165.12 62.59 C 167.75 59.77 167.94 55.88 168.91 52.36 C 170.21 55.77 171.21 59.29 172.77 62.60 C 175.92 62.55 179.08 62.44 182.24 62.33 C 179.91 64.90 177.31 67.20 174.47 69.20 C 175.46 72.32 177.17 75.34 176.93 78.72 C 174.36 76.76 171.74 74.86 169.08 73.02 C 166.33 75.03 163.50 76.98 160.38 78.40 C 160.93 75.13 162.66 72.28 163.79 69.21 C 160.96 67.38 158.09 65.45 156.39 62.44 C 159.30 62.47 162.21 62.54 165.12 62.59 Z" />
<path fill="#feed01" opacity="1.00" d=" M 132.26 96.41 C 133.46 92.87 134.71 89.34 136.08 85.86 C 137.14 89.38 137.90 92.99 139.27 96.42 C 142.27 96.59 145.44 95.85 148.29 97.04 C 146.80 99.36 143.56 100.07 141.37 101.72 C 141.54 105.54 143.00 109.09 144.17 112.68 C 141.25 110.70 138.50 108.46 136.01 105.95 C 133.59 108.00 131.15 110.15 128.05 111.09 C 128.41 108.12 129.47 105.32 130.53 102.55 C 127.95 100.60 125.26 98.78 122.78 96.70 C 125.93 96.36 129.10 96.39 132.26 96.41 Z" />
<path fill="#feed01" opacity="1.00" d=" M 292.75 87.01 C 293.11 87.12 293.81 87.33 294.17 87.44 C 294.97 90.27 296.07 93.00 297.23 95.70 C 300.48 95.65 303.72 95.59 306.97 95.69 C 305.83 99.21 301.97 100.11 299.19 101.95 C 300.12 105.32 301.39 108.61 301.70 112.12 C 298.62 110.60 295.95 108.45 293.29 106.33 C 290.80 108.58 288.22 110.74 285.35 112.49 C 286.06 108.90 287.29 105.45 287.89 101.84 C 285.25 99.81 281.26 99.12 280.02 95.68 C 283.23 95.59 286.45 95.65 289.66 95.68 C 291.25 93.01 292.43 90.12 292.75 87.01 Z" />
<path fill="#feed01" opacity="1.00" d=" M 304.85 131.31 C 306.56 134.17 307.60 137.34 308.88 140.39 C 312.36 142.20 316.66 140.65 320.45 141.49 C 317.07 143.56 313.83 145.86 311.17 148.83 C 312.47 151.78 313.62 154.84 313.78 158.10 C 311.07 156.21 308.52 154.12 305.90 152.12 C 303.14 154.28 300.32 156.38 297.32 158.20 C 296.71 154.65 300.05 152.00 299.57 148.50 C 297.43 145.62 294.28 143.78 291.52 141.58 C 295.49 141.09 299.51 141.15 303.47 140.56 C 303.91 137.47 304.30 134.38 304.85 131.31 Z" />
<path fill="#feed01" opacity="1.00" d=" M 120.50 141.00 C 121.08 137.73 121.21 133.74 125.20 132.95 C 125.43 135.44 125.59 137.93 125.71 140.43 C 129.77 141.33 133.93 141.25 138.05 141.01 C 135.49 144.03 131.64 145.59 129.17 148.75 C 130.13 152.16 131.30 155.50 132.22 158.92 C 129.17 156.95 126.42 154.58 123.90 151.97 C 120.86 153.69 118.33 156.14 115.45 158.08 C 115.87 155.35 116.56 152.66 116.69 149.89 C 117.25 145.12 111.43 143.98 108.52 141.49 C 112.49 140.99 116.51 141.34 120.50 141.00 Z" />
<path fill="#feed01" opacity="1.00" d=" M 135.31 178.27 C 135.77 178.29 136.69 178.34 137.15 178.36 C 137.35 181.52 138.11 184.60 138.97 187.65 C 142.49 187.78 146.02 187.66 149.54 187.97 C 147.39 190.40 144.41 191.80 141.59 193.27 C 141.35 197.09 143.26 200.41 144.80 203.74 C 141.69 204.29 140.09 201.19 137.78 199.77 C 136.52 199.48 135.25 199.26 133.97 199.13 C 132.06 201.10 130.09 203.15 127.44 204.09 C 127.86 200.65 128.87 197.34 129.76 194.01 C 127.23 192.14 124.66 190.29 122.56 187.93 C 125.81 187.68 129.07 187.75 132.33 187.79 C 133.15 184.56 134.29 181.44 135.31 178.27 Z" />
<path fill="#feed01" opacity="1.00" d=" M 289.81 187.70 C 291.34 184.47 292.37 181.04 293.73 177.74 C 294.67 181.09 295.82 184.37 296.93 187.67 C 300.29 187.72 303.70 187.65 306.96 188.62 C 304.46 190.51 301.84 192.25 299.21 193.96 C 300.12 197.30 301.35 200.57 301.90 204.00 C 298.33 203.52 296.83 198.75 293.03 199.35 C 289.68 199.35 288.53 203.72 285.12 203.99 C 286.08 200.42 287.71 196.97 287.65 193.21 C 285.08 191.73 282.51 190.25 279.98 188.70 C 283.16 187.70 286.50 187.69 289.81 187.70 Z" />
<path fill="#feed01" opacity="1.00" d=" M 168.72 210.63 C 170.33 214.16 171.24 217.96 172.75 221.54 C 176.03 221.47 179.31 221.31 182.59 221.34 C 180.33 223.49 177.85 225.41 175.09 226.89 C 175.02 230.58 176.60 233.95 177.60 237.43 C 174.67 235.78 171.89 233.90 169.05 232.11 C 166.38 234.14 163.55 236.00 160.44 237.30 C 161.12 233.78 163.09 230.69 163.64 227.14 C 160.69 225.70 157.93 223.89 155.67 221.48 C 158.80 221.36 161.93 221.45 165.06 221.52 C 167.94 218.56 167.86 214.40 168.72 210.63 Z" />
<path fill="#feed01" opacity="1.00" d=" M 256.76 220.85 C 258.47 217.94 259.29 214.62 260.54 211.50 C 261.52 214.81 262.45 218.13 263.60 221.39 C 266.38 221.56 269.16 221.68 271.94 221.88 C 269.94 224.04 266.94 225.44 265.71 228.22 C 265.89 231.54 267.72 234.46 268.84 237.52 C 265.61 236.28 263.23 233.27 259.97 232.31 C 257.24 233.76 254.82 235.71 252.03 237.06 C 252.47 233.84 253.63 230.80 254.74 227.78 C 252.55 226.06 250.27 224.45 248.11 222.70 C 250.98 222.10 254.07 222.11 256.76 220.85 Z" />
<path fill="#feed01" opacity="1.00" d=" M 212.69 223.98 C 213.88 224.22 215.05 224.52 216.21 224.86 C 216.74 227.15 216.58 229.54 217.07 231.85 C 217.17 232.24 217.37 233.02 217.48 233.41 C 220.62 233.60 223.76 233.57 226.91 233.70 C 225.85 234.82 224.77 235.94 223.66 237.02 C 222.54 238.05 221.46 239.12 220.39 240.20 C 221.34 243.24 222.29 246.28 223.51 249.23 C 219.98 248.27 217.52 245.32 214.18 244.06 C 211.34 245.94 209.06 249.02 205.35 249.07 C 207.05 246.22 208.41 243.18 209.11 239.91 C 206.22 237.77 203.21 235.77 200.52 233.37 C 204.50 233.30 208.56 233.75 212.44 232.59 C 212.50 229.72 212.56 226.85 212.69 223.98 Z" />
</g>
<g id="#575757ff">
<path fill="#575757" opacity="1.00" d=" M 131.61 95.09 C 132.72 91.36 134.20 87.73 136.07 84.31 C 137.64 87.76 138.86 91.35 140.12 94.92 C 143.11 95.05 146.10 95.17 149.10 95.23 C 149.17 95.92 149.32 97.31 149.39 98.00 C 146.97 99.51 144.50 100.94 142.08 102.46 C 143.12 106.09 144.33 109.67 145.05 113.38 C 141.58 112.30 138.65 110.11 135.93 107.78 C 132.74 110.03 129.52 112.70 125.42 112.86 C 126.48 109.47 128.64 106.03 127.98 102.39 C 125.38 99.94 122.14 98.02 120.67 94.59 C 124.32 94.77 127.96 95.01 131.61 95.09 M 132.26 96.41 C 129.10 96.39 125.93 96.36 122.78 96.70 C 125.26 98.78 127.95 100.60 130.53 102.55 C 129.47 105.32 128.41 108.12 128.05 111.09 C 131.15 110.15 133.59 108.00 136.01 105.95 C 138.50 108.46 141.25 110.70 144.17 112.68 C 143.00 109.09 141.54 105.54 141.37 101.72 C 143.56 100.07 146.80 99.36 148.29 97.04 C 145.44 95.85 142.27 96.59 139.27 96.42 C 137.90 92.99 137.14 89.38 136.08 85.86 C 134.71 89.34 133.46 92.87 132.26 96.41 Z" />
<path fill="#575757" opacity="1.00" d=" M 573.03 98.63 C 577.86 98.51 582.63 96.73 587.49 97.74 C 591.57 98.76 595.78 98.49 599.93 98.92 C 612.09 101.48 622.34 109.76 629.48 119.68 C 633.10 126.04 634.66 133.28 637.33 140.05 C 637.94 149.59 637.49 159.20 637.56 168.76 C 613.02 168.88 588.49 168.79 563.95 168.80 C 561.06 168.83 558.21 169.24 555.35 169.53 C 556.45 173.94 556.57 178.51 557.64 182.92 C 561.44 192.21 568.90 200.29 578.60 203.39 C 585.35 204.34 592.22 204.47 599.01 203.83 C 602.47 203.46 606.05 203.87 609.42 202.81 C 612.99 201.85 616.22 199.90 619.88 199.22 C 623.61 198.46 626.85 196.36 630.37 195.01 C 630.58 203.00 630.93 211.07 630.29 219.04 C 626.01 221.71 620.84 222.21 616.18 223.96 C 610.10 226.58 603.36 224.98 596.99 225.84 C 588.34 227.29 579.69 225.17 571.01 225.39 C 565.98 224.35 561.12 222.42 556.33 220.58 C 544.93 214.70 535.66 204.64 531.01 192.67 C 529.61 187.45 526.47 182.63 526.61 177.08 C 526.61 166.37 526.34 155.65 526.79 144.96 C 528.02 139.73 530.46 134.85 531.70 129.60 C 534.85 123.42 538.17 117.07 543.43 112.38 C 551.40 104.81 561.64 98.30 573.03 98.63 M 570.26 122.40 C 561.79 127.71 556.62 137.49 556.47 147.45 C 573.91 147.81 591.35 147.43 608.79 147.65 C 608.71 144.32 608.87 140.92 607.97 137.68 C 606.58 131.79 602.66 126.84 598.34 122.78 C 594.56 121.11 590.62 119.75 586.63 118.71 C 580.90 117.61 575.41 120.26 570.26 122.40 Z" />
<path fill="#575757" opacity="1.00" d=" M 851.05 98.67 C 855.15 98.42 859.21 96.97 863.34 97.72 C 866.17 98.21 869.01 98.63 871.89 98.80 C 871.76 105.36 871.60 111.92 871.52 118.49 C 871.52 120.88 871.04 123.24 870.08 125.43 C 862.81 125.74 855.38 124.34 848.25 126.30 C 839.41 128.20 832.05 134.58 827.65 142.32 C 825.93 147.36 824.45 152.60 824.43 157.97 C 824.40 180.41 824.53 202.85 824.36 225.29 C 814.51 225.34 804.64 225.46 794.79 225.22 C 794.67 185.46 794.80 145.70 794.73 105.95 C 794.70 103.75 795.00 101.57 795.28 99.39 C 802.59 98.24 810.01 98.95 817.38 98.76 C 820.10 105.11 820.46 112.08 820.73 118.89 C 822.97 118.90 824.96 118.03 826.11 116.03 C 829.89 110.30 835.28 105.91 840.93 102.13 C 843.99 100.24 847.42 98.84 851.05 98.67 Z" />
<path fill="#575757" opacity="1.00" d=" M 1185.87 98.60 C 1190.73 98.43 1195.51 96.87 1200.40 97.66 C 1204.58 98.44 1208.81 98.65 1213.06 98.75 C 1226.05 100.32 1238.51 108.77 1243.28 121.18 C 1245.35 130.31 1247.87 139.55 1247.34 149.00 C 1247.28 174.42 1247.42 199.84 1247.27 225.26 C 1239.98 225.37 1232.69 225.45 1225.41 225.22 C 1223.94 219.37 1221.91 213.65 1219.18 208.26 C 1215.04 212.42 1211.16 216.94 1206.27 220.25 C 1202.86 222.25 1199.18 223.78 1195.48 225.12 C 1191.70 225.86 1187.79 225.28 1183.99 225.88 C 1180.02 226.56 1175.98 226.43 1172.02 225.81 C 1168.29 225.28 1164.29 226.02 1160.83 224.23 C 1154.01 221.39 1147.10 217.23 1143.71 210.41 C 1139.93 203.61 1139.29 195.62 1139.27 188.00 C 1139.06 179.01 1141.20 169.33 1147.89 162.90 C 1152.19 158.14 1158.27 155.72 1163.97 153.11 C 1168.52 151.16 1173.59 151.08 1178.29 149.61 C 1181.41 148.61 1184.59 147.57 1187.93 147.63 C 1197.50 147.52 1207.07 147.53 1216.65 147.57 C 1217.97 140.63 1218.45 132.34 1213.09 126.89 C 1209.15 121.63 1202.35 119.54 1196.01 119.53 C 1189.20 119.22 1182.65 121.32 1176.05 122.57 C 1171.10 124.88 1165.91 126.60 1160.95 128.88 C 1156.86 122.41 1154.27 115.24 1151.18 108.27 C 1161.78 102.50 1173.68 98.38 1185.87 98.60 M 1175.05 173.95 C 1170.71 177.30 1169.55 183.06 1168.39 188.11 C 1168.77 195.01 1173.01 203.00 1180.57 203.87 C 1188.93 205.03 1198.45 204.95 1205.48 199.62 C 1211.15 195.99 1215.15 190.08 1217.06 183.70 C 1217.78 177.73 1217.31 171.68 1217.26 165.69 C 1211.96 165.46 1206.67 165.74 1201.42 166.37 C 1192.24 166.49 1182.32 167.85 1175.05 173.95 Z" />
<path fill="#575757" opacity="1.00" d=" M 1306.88 98.08 C 1311.54 97.12 1316.37 97.31 1321.03 98.25 C 1325.80 99.09 1330.73 98.12 1335.47 99.29 C 1342.41 101.26 1349.51 102.99 1355.77 106.73 C 1353.95 114.10 1349.59 120.50 1347.15 127.66 C 1342.37 127.30 1337.79 125.64 1333.57 123.45 C 1330.53 121.86 1327.01 121.88 1323.78 120.94 C 1315.13 118.63 1305.70 118.96 1297.48 122.65 C 1295.73 124.25 1294.64 126.45 1293.77 128.62 C 1292.91 131.31 1294.39 134.02 1296.01 136.10 C 1299.36 140.19 1304.34 142.50 1309.24 144.18 C 1318.38 148.29 1327.82 151.73 1336.67 156.46 C 1339.66 158.01 1342.91 159.22 1345.40 161.58 C 1349.37 165.24 1353.72 168.99 1355.43 174.32 C 1358.35 181.12 1357.78 188.71 1357.35 195.93 C 1356.06 201.44 1354.58 207.31 1350.52 211.49 C 1348.06 214.05 1345.61 216.68 1342.71 218.74 C 1338.78 221.50 1334.02 222.52 1329.62 224.25 C 1324.67 226.35 1319.18 225.09 1313.99 225.76 C 1308.03 226.58 1301.96 226.60 1296.01 225.77 C 1290.16 225.03 1284.00 226.44 1278.41 224.15 C 1274.49 222.76 1270.38 221.99 1266.56 220.34 C 1265.27 218.13 1265.81 215.45 1265.69 213.02 C 1265.87 206.95 1265.22 200.81 1266.44 194.82 C 1270.47 195.87 1273.90 198.50 1278.02 199.28 C 1282.19 200.19 1285.92 202.49 1290.13 203.28 C 1300.21 204.26 1310.48 205.39 1320.49 203.16 C 1324.74 200.84 1328.39 196.80 1329.42 192.00 C 1329.01 187.44 1325.88 183.45 1322.20 180.90 C 1314.08 174.65 1304.01 172.14 1294.93 167.71 C 1285.70 163.35 1275.45 158.95 1269.96 149.82 C 1267.96 146.88 1265.70 143.80 1265.79 140.06 C 1265.79 133.17 1264.93 126.07 1266.70 119.33 C 1268.90 115.51 1271.02 111.42 1274.52 108.60 C 1280.58 104.02 1287.47 100.37 1294.97 98.87 C 1298.92 98.47 1302.94 98.87 1306.88 98.08 Z" />
<path fill="#575757" opacity="1.00" d=" M 1402.97 98.66 C 1409.14 98.75 1415.22 96.53 1421.40 97.83 C 1426.50 99.02 1431.77 98.25 1436.91 99.13 C 1444.52 100.79 1452.11 102.90 1458.93 106.79 C 1456.90 113.95 1451.86 120.04 1451.05 127.53 C 1445.25 127.69 1439.95 125.08 1434.86 122.67 C 1426.34 120.99 1417.70 118.20 1408.95 120.04 C 1405.92 120.83 1402.78 121.50 1400.03 123.01 C 1398.27 125.01 1397.04 127.53 1396.45 130.10 C 1397.35 136.34 1402.96 140.16 1408.28 142.58 C 1421.24 148.25 1434.57 153.17 1446.91 160.20 C 1451.71 164.30 1456.54 168.96 1458.57 175.09 C 1459.53 182.03 1461.91 189.05 1459.58 196.00 C 1459.62 205.04 1453.58 212.46 1446.93 217.89 C 1442.52 221.34 1436.95 222.53 1431.83 224.49 C 1428.38 225.88 1424.60 225.40 1420.99 225.56 C 1416.96 225.52 1413.01 226.45 1409.00 226.37 C 1403.97 226.60 1399.02 225.44 1394.01 225.54 C 1390.31 225.39 1386.47 225.89 1382.93 224.59 C 1377.92 222.87 1372.83 221.37 1367.72 220.01 C 1367.52 211.50 1367.52 202.97 1367.71 194.45 C 1371.32 194.96 1374.49 196.75 1377.70 198.37 C 1380.83 199.37 1384.15 199.84 1387.15 201.29 C 1392.56 203.70 1398.53 203.59 1404.30 204.25 C 1410.69 204.77 1417.24 204.57 1423.47 202.99 C 1427.62 200.96 1430.53 196.99 1432.51 192.92 C 1433.07 188.12 1429.16 184.20 1425.85 181.25 C 1415.79 173.97 1403.57 170.80 1392.63 165.15 C 1386.07 161.82 1379.27 158.23 1374.49 152.50 C 1368.71 144.65 1365.96 134.20 1368.51 124.66 C 1370.14 117.54 1373.83 110.35 1380.36 106.58 C 1387.00 102.03 1394.79 98.57 1402.97 98.66 Z" />
<path fill="#575757" opacity="1.00" d=" M 1012.77 98.78 C 1018.87 98.76 1024.97 98.78 1031.08 98.73 C 1033.08 98.73 1035.28 98.69 1037.01 99.91 C 1039.35 104.88 1039.30 110.63 1041.63 115.64 C 1047.69 109.00 1054.16 101.88 1063.13 99.40 C 1072.14 97.82 1081.38 98.08 1090.48 98.79 C 1097.54 99.60 1103.44 103.96 1108.90 108.18 C 1116.68 114.99 1121.71 124.49 1124.18 134.44 C 1126.16 138.71 1125.45 143.47 1126.03 148.00 C 1127.16 160.47 1126.26 172.99 1125.40 185.43 C 1122.57 194.27 1119.98 203.55 1113.53 210.57 C 1108.43 218.03 1100.29 222.68 1091.82 225.30 C 1088.54 225.64 1085.23 225.49 1081.98 226.04 C 1076.62 226.97 1071.28 225.38 1065.91 225.51 C 1061.65 225.77 1058.04 223.22 1054.37 221.48 C 1049.14 218.98 1045.64 214.22 1041.36 210.53 C 1040.68 217.46 1043.37 224.10 1043.29 231.00 C 1043.18 247.39 1043.38 263.79 1043.18 280.18 C 1033.04 280.45 1022.90 280.25 1012.76 280.31 C 1012.62 219.80 1012.58 159.29 1012.77 98.78 M 1058.76 122.91 C 1054.70 125.27 1050.00 127.51 1048.02 132.06 C 1045.62 137.42 1042.89 142.96 1043.28 148.99 C 1043.25 157.00 1043.22 165.01 1043.30 173.02 C 1043.15 179.75 1045.68 186.17 1048.62 192.11 C 1051.28 197.37 1056.78 200.29 1062.06 202.29 C 1067.58 202.85 1073.30 203.12 1078.79 202.11 C 1084.36 199.49 1089.26 195.15 1091.91 189.53 C 1097.31 178.22 1096.93 165.28 1096.61 153.04 C 1095.92 144.21 1094.03 134.80 1087.99 127.98 C 1084.50 125.18 1080.81 121.89 1076.08 121.79 C 1070.33 121.62 1064.29 120.99 1058.76 122.91 Z" />
<path fill="#575757" opacity="1.00" d=" M 656.39 99.41 C 666.12 99.37 675.85 99.41 685.58 99.40 C 685.93 101.56 686.34 103.73 686.36 105.94 C 686.40 132.32 686.26 158.71 686.43 185.09 C 686.03 188.85 688.58 191.84 690.34 194.90 C 692.20 198.22 695.63 200.14 698.85 201.94 C 702.57 204.05 706.96 203.50 711.07 203.53 C 717.08 203.75 722.59 200.64 727.38 197.34 C 733.85 192.39 735.11 183.91 737.18 176.57 C 738.95 167.83 738.31 158.86 738.44 150.00 C 738.54 133.13 738.25 116.26 738.59 99.40 C 747.91 99.37 757.22 99.45 766.54 99.34 C 767.01 101.18 767.48 103.05 767.46 104.97 C 767.39 143.98 767.46 183.00 767.42 222.01 C 767.89 224.08 765.96 225.66 763.99 225.34 C 758.01 225.33 752.02 225.51 746.05 225.24 C 741.97 220.70 743.64 213.71 740.09 208.77 C 736.82 212.26 734.28 216.50 730.27 219.24 C 727.06 221.60 723.17 222.71 719.52 224.19 C 714.95 226.29 709.80 225.11 704.99 225.96 C 699.29 227.04 693.62 225.36 687.91 225.48 C 684.60 225.62 681.61 224.06 678.59 222.96 C 669.92 220.01 663.25 212.54 660.11 204.07 C 658.57 198.81 655.90 193.69 656.29 188.06 C 656.34 158.51 656.14 128.96 656.39 99.41 Z" />
<path fill="#575757" opacity="1.00" d=" M 924.27 98.55 C 932.24 97.97 940.23 98.29 948.19 98.85 C 958.54 100.09 967.64 105.97 975.46 112.54 C 980.68 118.33 985.34 124.82 988.14 132.15 C 989.45 135.41 989.60 139.00 990.95 142.25 C 994.02 150.84 993.58 160.08 993.42 169.06 C 993.14 176.19 990.29 182.81 989.02 189.76 C 986.00 200.41 978.80 209.34 970.36 216.28 C 964.74 220.90 957.69 223.20 950.84 225.26 C 942.88 225.28 934.94 227.19 927.02 225.78 C 922.02 225.39 916.81 225.99 912.21 223.58 C 902.32 220.84 893.93 214.29 887.73 206.24 C 883.11 201.42 880.73 195.10 878.51 188.93 C 875.69 181.64 874.38 173.80 874.47 165.99 C 874.53 157.89 873.97 149.63 876.17 141.73 C 877.95 135.59 879.91 129.44 882.91 123.77 C 887.40 116.16 893.67 109.48 901.54 105.33 C 908.20 100.79 916.25 98.61 924.27 98.55 M 924.60 122.10 C 919.60 123.60 915.24 127.02 911.96 131.03 C 907.82 137.23 905.77 144.63 904.78 151.96 C 904.11 164.88 903.85 178.68 910.44 190.28 C 913.65 196.95 920.43 200.90 927.16 203.25 C 933.47 203.70 940.37 204.37 946.00 200.84 C 953.03 198.05 957.72 191.31 959.73 184.22 C 961.07 179.55 963.35 175.04 963.33 170.09 C 963.35 164.37 963.37 158.65 963.32 152.94 C 963.28 148.33 961.21 144.11 959.81 139.81 C 958.25 135.10 956.17 130.09 951.85 127.28 C 948.44 125.04 945.16 121.99 940.87 121.81 C 935.46 121.59 929.97 121.28 924.60 122.10 Z" />
<path fill="#575757" opacity="1.00" d=" M 259.38 211.34 C 259.90 211.26 260.94 211.10 261.46 211.02 C 262.36 214.10 262.67 217.72 265.11 220.05 C 268.39 220.54 271.72 220.45 275.03 220.75 C 272.82 223.64 269.83 225.74 266.57 227.29 C 267.38 230.69 268.45 234.04 268.84 237.52 C 267.72 234.46 265.89 231.54 265.71 228.22 C 266.94 225.44 269.94 224.04 271.94 221.88 C 269.16 221.68 266.38 221.56 263.60 221.39 C 262.45 218.13 261.52 214.81 260.54 211.50 C 259.29 214.62 258.47 217.94 256.76 220.85 C 254.07 222.11 250.98 222.10 248.11 222.70 C 247.69 222.76 246.85 222.89 246.43 222.96 C 246.58 222.32 246.89 221.03 247.05 220.39 C 250.01 220.34 252.98 220.31 255.94 220.27 C 257.06 217.28 258.23 214.31 259.38 211.34 Z" />
<path fill="#575757" opacity="1.00" d=" M 217.07 231.85 C 221.21 232.05 225.36 232.03 229.50 232.40 C 228.29 234.75 226.39 236.66 223.66 237.02 C 224.77 235.94 225.85 234.82 226.91 233.70 C 223.76 233.57 220.62 233.60 217.48 233.41 C 217.37 233.02 217.17 232.24 217.07 231.85 Z" />
</g>
</svg>
