<?xml version="1.0" encoding="UTF-8" ?>
<!DOCTYPE svg PUBLIC "-//W3C//DTD SVG 1.1//EN" "http://www.w3.org/Graphics/SVG/1.1/DTD/svg11.dtd">
<svg width="387pt" height="105pt" viewBox="0 0 387 105" version="1.1" xmlns="http://www.w3.org/2000/svg">
<g id="#ffffffff">
</g>
<g id="#181646ff">
<path fill="#181646" opacity="1.00" d=" M 219.61 12.26 C 224.67 12.24 229.73 12.19 234.80 12.31 C 234.54 17.87 233.67 23.38 232.85 28.88 C 231.19 43.95 229.03 58.96 227.28 74.02 C 226.41 80.80 225.98 88.62 220.38 93.42 C 213.10 99.44 203.01 97.70 194.30 97.38 C 194.32 94.44 194.52 91.51 194.75 88.58 C 198.64 87.72 202.65 87.91 206.57 87.36 C 209.74 86.43 210.60 82.88 211.17 80.04 C 211.67 75.01 212.45 70.01 212.89 64.98 C 213.44 62.34 213.57 59.63 213.88 56.96 C 214.68 51.62 215.32 46.25 215.85 40.87 C 217.32 31.37 218.04 21.75 219.61 12.26 Z" />
<path fill="#181646" opacity="1.00" d=" M 51.58 12.35 C 56.66 12.36 61.74 12.31 66.83 12.40 C 66.68 14.99 66.49 17.57 66.25 20.16 C 65.69 22.80 65.47 25.49 65.22 28.17 C 63.58 39.39 62.53 50.70 60.85 61.92 C 60.28 67.56 59.70 73.21 58.64 78.78 C 53.57 78.49 48.49 79.71 43.46 78.76 C 43.57 77.16 43.69 75.56 43.85 73.96 C 44.42 71.30 44.58 68.58 44.85 65.88 C 45.97 57.58 47.04 49.26 47.87 40.92 C 49.33 31.43 49.99 21.82 51.58 12.35 Z" />
<path fill="#181646" opacity="1.00" d=" M 137.72 13.47 C 144.73 11.26 152.44 12.13 159.48 13.83 C 159.43 14.57 159.38 15.31 159.33 16.04 C 158.58 18.26 157.90 20.51 157.22 22.75 C 153.27 22.43 149.31 22.16 145.35 22.46 C 144.39 23.80 143.50 25.18 142.67 26.60 C 142.60 28.68 142.48 30.76 142.36 32.83 C 144.61 32.81 146.87 32.79 149.12 32.75 C 151.26 32.96 153.40 33.21 155.54 33.47 C 155.02 36.39 154.56 39.32 154.34 42.27 C 153.93 42.54 153.11 43.06 152.70 43.32 C 148.74 43.30 144.77 43.29 140.81 43.35 C 140.58 45.56 140.39 47.79 139.95 49.98 C 139.60 52.31 139.39 54.66 138.90 56.96 C 138.35 61.61 137.71 66.25 136.85 70.85 C 136.57 73.27 136.35 75.69 136.13 78.11 C 135.64 78.39 134.67 78.96 134.18 79.24 C 129.93 79.25 125.66 79.41 121.45 78.69 C 123.40 65.80 125.34 52.89 126.88 39.95 C 127.55 36.72 127.54 33.39 128.19 30.16 C 128.24 23.51 130.85 15.82 137.72 13.47 Z" />
<path fill="#181646" opacity="1.00" d=" M 298.69 12.33 C 303.39 12.12 308.10 12.17 312.80 12.31 C 312.73 17.34 311.58 22.26 311.25 27.27 C 310.98 28.41 310.72 29.56 310.47 30.70 C 316.89 29.05 323.57 28.90 330.13 29.67 C 334.78 31.25 338.90 34.86 339.50 39.96 C 340.28 49.34 339.88 59.11 336.15 67.88 C 334.31 72.36 330.72 76.14 326.16 77.86 C 321.04 80.04 315.38 79.79 309.95 79.74 C 304.55 79.66 298.99 79.17 294.01 76.97 C 289.72 74.95 291.76 69.58 291.83 65.89 C 292.40 63.26 292.58 60.56 292.85 57.88 C 293.97 49.60 295.03 41.30 295.89 32.98 C 296.42 30.32 296.58 27.61 296.86 24.92 C 297.60 20.74 297.78 16.48 298.69 12.33 M 315.03 38.79 C 313.25 39.25 311.44 39.57 309.63 39.89 C 308.26 49.77 306.88 59.66 306.12 69.61 C 310.73 70.34 316.31 71.51 320.23 68.21 C 323.93 64.47 324.06 58.78 324.98 53.90 C 325.53 50.13 325.82 46.23 325.18 42.47 C 323.88 38.13 318.58 38.58 315.03 38.79 Z" />
<path fill="#181646" opacity="1.00" d=" M 240.70 41.75 C 243.83 34.50 251.19 29.85 258.98 29.44 C 266.12 29.09 274.04 28.51 280.23 32.78 C 284.50 35.67 285.96 41.14 285.70 46.05 C 285.70 55.43 284.77 65.88 278.36 73.27 C 271.61 80.36 261.00 80.21 251.97 79.51 C 245.61 79.03 239.28 74.87 237.96 68.34 C 236.45 59.44 237.99 50.28 240.70 41.75 M 254.49 44.33 C 252.79 49.37 252.66 54.74 251.78 59.95 C 251.76 61.31 251.74 62.68 251.74 64.05 C 252.07 65.27 252.39 66.51 252.68 67.75 C 255.18 70.30 258.81 70.56 262.18 70.44 C 263.94 69.55 266.01 68.94 267.24 67.30 C 269.14 64.65 269.46 61.31 270.25 58.25 C 270.46 56.15 270.66 54.06 270.96 51.98 C 271.41 49.24 271.36 46.45 271.42 43.67 C 269.11 36.21 256.49 37.06 254.49 44.33 Z" />
<path fill="#181646" opacity="1.00" d=" M 78.00 32.52 C 86.76 30.05 95.98 29.03 105.06 29.68 C 109.39 30.17 114.52 31.65 116.16 36.19 C 117.30 40.40 116.51 44.85 116.24 49.14 C 115.67 51.76 115.46 54.45 115.19 57.12 C 114.57 60.05 114.52 63.07 113.92 66.01 C 113.59 68.66 113.45 71.35 112.90 73.98 C 112.70 75.55 112.52 77.12 112.35 78.70 C 107.67 79.65 102.95 78.59 98.24 78.75 C 98.39 76.16 98.58 73.57 98.86 70.99 C 99.45 68.35 99.58 65.65 99.88 62.97 C 100.87 57.34 101.08 51.58 102.33 46.00 C 102.42 43.87 101.89 41.82 101.25 39.82 C 96.50 38.20 91.53 39.29 86.81 40.40 C 86.63 43.28 86.48 46.17 85.91 49.01 C 84.88 58.92 83.45 68.79 82.28 78.69 C 77.60 78.75 72.94 79.34 68.26 79.28 C 68.67 65.27 71.91 51.49 72.68 37.50 C 73.59 35.07 75.35 33.03 78.00 32.52 Z" />
<path fill="#181646" opacity="1.00" d=" M 161.68 39.67 C 165.24 32.60 173.48 29.39 181.03 29.29 C 188.30 29.05 196.97 28.87 202.22 34.83 C 207.11 40.70 205.49 48.91 205.10 55.91 C 203.87 62.21 202.52 69.06 197.69 73.69 C 193.11 78.32 186.32 79.84 180.00 79.77 C 174.59 79.84 168.83 79.88 164.02 77.03 C 159.75 74.64 157.41 69.70 157.36 64.92 C 157.03 56.36 157.83 47.44 161.68 39.67 M 175.74 41.53 C 172.98 45.83 172.85 51.17 172.14 56.08 C 171.56 59.18 171.65 62.33 171.60 65.47 C 173.37 71.04 180.59 71.52 185.05 69.06 C 187.50 67.61 188.40 64.77 189.30 62.26 C 190.63 55.44 191.18 48.48 190.57 41.55 C 189.18 40.52 187.76 39.55 186.32 38.61 C 182.69 38.61 178.25 38.36 175.74 41.53 Z" />
<path fill="#181646" opacity="1.00" d=" M 352.11 35.07 C 355.16 31.79 359.61 30.14 363.98 29.57 C 371.37 28.93 378.98 29.13 386.05 31.60 C 385.64 34.38 384.89 37.10 384.11 39.80 C 377.79 39.79 371.02 36.86 365.00 39.87 C 362.12 41.40 362.24 44.78 363.65 47.31 C 365.76 47.97 367.89 48.56 370.05 49.02 C 375.25 49.65 381.86 51.17 383.48 56.97 C 384.03 61.58 384.29 66.67 381.77 70.79 C 379.04 75.82 373.54 78.65 368.04 79.45 C 359.99 80.28 351.74 79.74 344.03 77.17 C 344.18 74.12 345.07 71.19 345.95 68.28 C 349.05 68.71 352.07 69.53 355.18 69.90 L 355.77 70.33 C 359.70 70.37 364.28 71.33 367.54 68.53 C 369.26 67.15 369.46 64.88 369.59 62.86 C 369.14 62.34 368.25 61.30 367.80 60.78 C 361.22 58.84 351.97 59.42 348.81 51.95 C 347.53 46.25 348.07 39.61 352.11 35.07 Z" />
</g>
</svg>
