<?xml version="1.0" encoding="UTF-8" ?>
<!DOCTYPE svg PUBLIC "-//W3C//DTD SVG 1.1//EN" "http://www.w3.org/Graphics/SVG/1.1/DTD/svg11.dtd">
<svg width="1396pt" height="493pt" viewBox="0 0 1396 493" version="1.1" xmlns="http://www.w3.org/2000/svg">
<g id="#0181b3ff" opacity="1">
<path fill="#0181b3" opacity="1.00" d=" M 0.00 0.00 L 0.10 0.00 C 0.07 0.02 0.02 0.07 0.00 0.10 L 0.00 0.00 Z" />
<path fill="#0181b3" opacity="1.00" d=" M 74.07 106.35 C 77.82 102.57 81.27 98.51 84.99 94.70 C 93.32 97.27 99.77 103.27 106.20 108.83 C 113.60 115.01 121.81 120.20 130.49 124.38 C 131.55 125.88 132.27 127.85 133.99 128.72 C 135.70 128.63 137.40 128.35 139.11 128.12 C 138.85 130.91 139.33 134.10 137.35 136.40 C 133.78 140.98 129.92 145.34 126.31 149.90 C 125.20 147.41 124.51 144.50 122.27 142.74 C 118.81 140.04 114.21 139.12 111.10 135.93 C 107.93 132.72 104.79 129.40 100.86 127.10 C 95.49 123.94 91.19 119.33 85.89 116.08 C 81.39 113.48 79.01 108.29 74.07 106.35 Z" />
<path fill="#0181b3" opacity="1.00" d=" M 1159.29 137.37 C 1184.18 136.84 1209.11 137.29 1234.02 137.14 C 1273.04 137.18 1312.07 137.06 1351.09 137.20 C 1359.96 137.07 1367.88 145.10 1367.28 154.03 C 1367.33 217.36 1367.33 280.69 1367.28 344.02 C 1367.53 350.95 1362.68 357.73 1355.99 359.61 C 1350.41 360.99 1344.63 360.34 1338.95 360.39 C 1279.64 360.33 1220.32 360.45 1161.01 360.33 C 1152.46 360.43 1144.97 352.55 1145.25 344.06 C 1145.15 282.72 1145.25 221.38 1145.20 160.03 C 1145.27 155.37 1144.76 150.41 1146.96 146.11 C 1149.45 141.54 1153.99 137.90 1159.29 137.37 M 1190.20 175.25 C 1180.23 177.41 1174.06 189.42 1178.32 198.75 C 1182.97 210.39 1199.93 212.89 1208.84 204.82 C 1214.18 200.41 1216.21 192.64 1213.72 186.17 C 1210.51 176.91 1199.26 172.55 1190.20 175.25 M 1279.17 224.12 C 1273.25 226.80 1268.98 231.84 1264.83 236.64 C 1264.72 233.07 1264.82 229.51 1264.72 225.94 C 1264.76 224.90 1264.57 222.99 1263.04 223.33 C 1252.55 223.40 1242.04 223.04 1231.57 223.51 C 1230.94 225.95 1231.27 228.50 1231.22 230.99 C 1231.25 262.00 1231.23 293.01 1231.23 324.02 C 1242.43 324.11 1253.64 324.11 1264.85 323.99 C 1264.78 305.66 1264.76 287.34 1264.75 269.01 C 1264.70 264.46 1265.08 259.64 1267.78 255.79 C 1273.07 246.38 1288.24 244.11 1295.30 252.71 C 1300.45 259.67 1300.04 268.82 1300.00 277.06 C 1299.98 292.71 1300.11 308.36 1300.16 324.02 C 1311.21 324.14 1322.27 324.03 1333.32 324.08 C 1333.77 305.04 1333.68 285.99 1333.53 266.95 C 1333.43 255.01 1331.37 242.13 1323.19 232.89 C 1312.60 220.56 1293.71 217.82 1279.17 224.12 M 1179.00 223.67 C 1179.00 257.13 1179.00 290.58 1179.00 324.04 C 1190.20 324.05 1201.40 324.17 1212.60 323.97 C 1212.46 290.46 1212.65 256.94 1212.50 223.42 C 1201.34 223.11 1190.14 222.89 1179.00 223.67 Z" />
<path fill="#0181b3" opacity="1.00" d=" M 386.30 313.91 C 389.72 316.38 392.77 319.30 395.71 322.31 C 401.32 327.97 408.62 331.41 415.02 336.02 C 421.96 340.72 428.46 346.06 435.64 350.41 C 437.90 351.76 439.81 353.59 441.56 355.55 C 439.14 359.92 436.88 364.41 433.90 368.44 C 433.22 366.73 432.46 365.06 431.69 363.39 C 429.19 362.27 426.45 361.49 424.30 359.74 C 422.04 357.33 420.45 354.26 417.65 352.39 C 411.63 348.23 404.64 345.68 398.89 341.12 C 393.06 337.07 388.37 331.70 382.76 327.40 C 380.16 328.46 377.54 329.47 375.03 330.75 C 378.30 324.83 381.55 318.82 386.30 313.91 Z" />
</g>
<g id="#00b050ff">
</g>
<g id="#e3f2ffff" opacity="0.8">
<path fill="#e3f2ff" opacity="1.00" d=" M 181.85 33.70 C 219.19 23.19 259.18 22.50 296.89 31.57 C 356.08 45.80 408.71 84.99 439.35 137.59 C 469.62 188.94 478.53 252.53 462.90 310.11 C 457.99 328.93 451.20 347.44 440.95 364.05 C 415.54 409.86 373.31 446.01 324.21 464.25 C 309.30 469.47 294.11 474.16 278.42 476.35 C 239.85 481.26 199.69 478.38 163.43 463.66 C 106.74 442.32 59.33 397.47 35.07 341.95 C 23.27 314.91 16.65 285.55 16.30 256.02 C 15.29 205.13 32.16 153.99 63.47 113.83 C 63.62 112.74 63.97 111.69 64.78 110.91 C 69.44 105.54 74.85 100.86 79.23 95.25 C 107.06 66.01 142.99 44.57 181.85 33.70 M 227.89 29.72 C 174.47 32.88 122.58 56.63 84.99 94.70 C 81.27 98.51 77.82 102.57 74.07 106.35 C 66.28 115.91 58.58 125.60 52.30 136.25 C 22.38 185.27 12.24 246.09 25.56 302.03 C 32.02 329.81 43.89 356.34 60.49 379.54 C 90.35 421.79 135.02 453.54 185.11 466.84 C 187.73 467.65 190.39 468.32 193.07 468.92 C 194.43 469.26 195.79 469.53 197.17 469.82 C 206.93 472.15 216.91 473.40 226.90 474.18 C 250.73 475.41 274.89 474.52 298.09 468.50 C 339.78 458.51 378.17 435.74 407.32 404.35 C 417.26 393.27 426.76 381.53 433.90 368.44 C 436.88 364.41 439.14 359.92 441.56 355.55 C 444.32 349.94 447.38 344.46 449.63 338.61 C 458.06 317.31 463.81 294.85 465.89 272.01 C 465.54 266.64 466.43 261.35 466.92 256.03 C 466.87 238.53 465.17 220.95 461.29 203.87 C 453.35 167.07 435.67 132.46 410.63 104.37 C 405.25 98.74 399.60 93.37 394.17 87.80 C 364.38 60.16 326.77 41.18 286.98 33.10 C 275.04 31.15 263.00 29.92 250.95 29.04 C 243.27 29.41 235.51 28.38 227.89 29.72 Z" />
<path fill="#e3f2ff" opacity="1.00" d=" M 250.77 68.74 C 262.26 66.40 273.65 62.13 285.55 63.16 C 284.34 67.14 280.46 69.10 278.08 72.23 C 276.54 74.16 276.50 77.00 277.87 79.04 C 280.07 82.51 283.58 84.82 286.78 87.29 C 293.26 92.04 299.32 97.34 305.20 102.80 C 313.93 111.97 319.37 124.30 319.87 136.99 C 320.19 148.00 319.88 159.02 319.98 170.04 C 320.12 178.59 318.53 187.09 319.08 195.66 C 321.45 197.71 325.14 199.41 325.29 202.97 C 325.37 211.11 322.75 218.94 321.90 226.99 C 321.27 231.02 321.37 235.48 318.78 238.88 C 316.55 241.89 314.42 245.07 313.80 248.84 C 311.87 257.77 309.27 266.55 306.17 275.15 C 304.54 279.84 300.80 283.32 298.60 287.71 C 296.15 292.82 297.30 298.60 297.76 304.01 C 298.41 310.01 298.52 316.11 299.84 322.02 C 300.70 326.63 306.96 327.45 307.75 332.12 C 309.56 338.89 310.48 345.99 313.66 352.31 C 314.64 354.32 316.62 355.52 318.48 356.59 C 325.54 360.52 333.68 362.52 339.87 367.92 C 320.11 383.14 296.60 393.42 272.09 397.98 C 248.40 401.81 223.76 400.76 200.79 393.56 C 191.06 390.92 181.94 386.54 172.99 382.00 C 164.95 378.01 157.61 372.80 150.46 367.43 C 151.36 366.37 152.06 365.05 153.34 364.41 C 160.28 360.65 168.36 358.64 174.35 353.33 C 178.35 346.79 178.84 338.90 180.62 331.61 C 181.14 327.89 185.21 326.74 187.90 324.90 C 188.18 314.51 191.92 304.47 191.05 294.01 C 191.19 288.64 187.64 284.31 185.38 279.73 C 180.29 270.42 177.25 260.15 175.43 249.73 C 174.54 242.68 167.89 238.06 167.28 230.93 C 166.22 221.91 164.00 213.06 163.11 204.03 C 162.41 199.88 166.88 197.87 169.88 196.28 C 170.70 187.15 168.56 178.13 168.91 168.99 C 167.40 154.80 167.37 140.32 170.36 126.31 C 172.12 118.04 176.18 110.23 182.23 104.28 C 188.61 97.45 196.59 92.47 204.35 87.38 C 210.21 83.59 216.59 80.72 223.03 78.09 C 232.09 74.47 241.14 70.59 250.77 68.74 Z" />
<path fill="#e3f2ff" opacity="1.00" d=" M 1155.41 134.50 C 1158.19 133.71 1161.12 133.62 1164.01 133.58 C 1223.01 133.59 1282.01 133.63 1341.01 133.52 C 1347.33 133.66 1354.11 132.79 1359.95 135.79 C 1366.77 139.02 1371.03 146.43 1370.92 153.91 C 1370.98 216.94 1370.94 279.97 1370.94 343.00 C 1371.34 350.74 1366.96 358.52 1359.96 361.91 C 1354.41 364.74 1348.00 363.94 1342.01 364.01 C 1284.34 364.00 1226.67 364.00 1169.00 364.00 C 1163.92 363.94 1158.59 364.49 1153.80 362.44 C 1146.58 359.41 1141.37 351.91 1141.70 343.99 C 1141.61 280.66 1141.66 217.32 1141.68 153.99 C 1141.14 145.29 1147.35 137.23 1155.41 134.50 M 1159.29 137.37 C 1153.99 137.90 1149.45 141.54 1146.96 146.11 C 1144.76 150.41 1145.27 155.37 1145.20 160.03 C 1145.25 221.38 1145.15 282.72 1145.25 344.06 C 1144.97 352.55 1152.46 360.43 1161.01 360.33 C 1220.32 360.45 1279.64 360.33 1338.95 360.39 C 1344.63 360.34 1350.41 360.99 1355.99 359.61 C 1362.68 357.73 1367.53 350.95 1367.28 344.02 C 1367.33 280.69 1367.33 217.36 1367.28 154.03 C 1367.88 145.10 1359.96 137.07 1351.09 137.20 C 1312.07 137.06 1273.04 137.18 1234.02 137.14 C 1209.11 137.29 1184.18 136.84 1159.29 137.37 Z" />
<path fill="#e3f2ff" opacity="1.00" d=" M 641.65 171.67 C 647.67 170.62 654.16 171.53 659.44 174.71 C 670.74 181.49 672.00 199.54 661.76 207.83 C 653.59 214.54 640.90 214.98 632.32 208.78 C 623.85 202.79 621.51 189.90 627.12 181.22 C 630.20 176.04 635.76 172.63 641.65 171.67 M 640.46 175.58 C 630.41 177.76 624.69 189.82 629.04 199.07 C 634.24 211.65 653.68 213.09 661.76 202.68 C 666.65 196.16 666.28 186.26 660.63 180.30 C 655.60 174.92 647.32 173.90 640.46 175.58 Z" />
<path fill="#e3f2ff" opacity="1.00" d=" M 1190.20 175.25 C 1199.26 172.55 1210.51 176.91 1213.72 186.17 C 1216.21 192.64 1214.18 200.41 1208.84 204.82 C 1199.93 212.89 1182.97 210.39 1178.32 198.75 C 1174.06 189.42 1180.23 177.41 1190.20 175.25 Z" />
<path fill="#e3f2ff" opacity="1.00" d=" M 520.04 177.27 C 533.55 177.20 547.06 176.98 560.57 177.19 C 560.66 214.88 560.57 252.56 560.62 290.24 C 580.32 290.33 600.03 290.15 619.73 290.33 C 619.89 302.79 619.80 315.26 619.78 327.72 C 586.53 327.80 553.28 327.67 520.03 327.79 C 519.87 277.62 519.85 227.44 520.04 177.27 M 523.43 323.97 C 554.35 324.22 585.28 324.02 616.21 324.07 C 616.21 314.02 616.21 303.98 616.21 293.93 C 596.47 293.91 576.74 293.92 557.01 293.93 C 557.01 256.22 557.02 218.50 557.00 180.79 C 545.84 180.77 534.68 180.82 523.51 180.77 C 523.38 228.50 523.54 276.23 523.43 323.97 Z" />
<path fill="#e3f2ff" opacity="1.00" d=" M 791.28 177.31 C 804.79 177.07 818.31 177.10 831.82 177.15 C 832.17 201.39 831.90 225.63 832.09 249.87 C 839.34 239.48 846.69 229.16 854.13 218.90 C 855.42 216.95 857.43 215.36 859.89 215.45 C 875.21 215.32 890.55 215.37 905.87 215.66 C 892.65 231.52 878.37 246.48 864.81 262.06 C 880.11 283.99 895.73 305.70 910.89 327.74 C 894.23 327.61 877.54 328.04 860.90 327.41 C 852.59 314.11 844.58 300.60 836.53 287.14 C 835.00 289.03 833.21 290.80 832.23 293.05 C 831.73 304.60 832.31 316.18 831.75 327.73 C 818.26 327.73 804.77 327.78 791.28 327.71 C 791.24 277.57 791.24 227.44 791.28 177.31 M 794.86 180.87 C 794.86 228.62 794.84 276.38 794.87 324.13 C 805.99 324.16 817.12 324.12 828.25 324.16 C 828.62 313.34 828.47 302.51 828.56 291.68 C 831.09 287.97 833.87 284.44 836.87 281.08 C 845.65 295.32 854.24 309.68 862.87 324.01 C 876.63 324.14 890.40 324.17 904.16 324.13 C 889.46 303.36 874.85 282.52 860.18 261.73 C 872.98 247.57 885.69 233.33 898.42 219.10 C 885.22 218.88 872.02 219.04 858.82 218.99 C 848.05 232.47 838.80 247.13 828.53 260.99 C 828.53 234.25 828.43 207.50 828.33 180.76 C 817.17 180.68 806.01 180.71 794.86 180.87 Z" />
<path fill="#e3f2ff" opacity="1.00" d=" M 1078.00 177.12 C 1090.33 177.08 1102.65 177.18 1114.98 177.23 C 1115.21 209.17 1114.99 241.12 1115.00 273.06 C 1114.92 291.33 1115.21 309.60 1116.00 327.85 C 1103.81 327.62 1091.62 327.82 1079.42 327.72 C 1079.03 324.36 1078.77 320.99 1078.42 317.64 C 1070.31 326.01 1058.53 330.17 1047.00 330.06 C 1033.43 330.26 1019.98 324.06 1011.18 313.75 C 1003.24 304.43 998.68 292.49 997.61 280.35 C 996.65 281.35 997.42 284.19 997.03 285.80 C 974.25 285.69 951.47 285.49 928.69 285.61 C 931.46 291.67 937.36 295.90 943.83 297.17 C 958.53 300.41 973.58 297.16 987.81 293.29 C 989.22 302.91 991.44 312.39 993.16 321.96 C 982.07 326.68 970.08 328.95 958.10 329.58 C 942.37 330.65 925.72 328.78 912.24 319.98 C 901.05 312.92 893.46 300.95 890.70 288.12 C 886.40 269.41 890.19 248.57 902.21 233.39 C 911.18 221.71 925.32 214.62 939.88 213.24 C 950.39 212.32 961.40 213.26 971.02 217.87 C 976.49 220.43 981.06 224.52 985.30 228.76 C 992.83 237.44 996.64 248.73 998.34 259.95 C 1000.20 243.93 1009.35 228.60 1023.28 220.24 C 1038.52 210.97 1059.20 210.34 1074.32 220.20 C 1074.30 207.01 1074.34 193.82 1074.41 180.63 C 1075.59 180.66 1076.79 180.69 1078.00 180.72 C 1078.00 179.82 1078.00 178.02 1078.00 177.12 M 1077.99 180.72 C 1077.98 196.59 1077.83 212.45 1077.97 228.32 C 1071.85 221.50 1063.00 217.56 1053.92 216.90 C 1043.05 215.86 1031.76 218.47 1022.82 224.84 C 1010.79 232.89 1003.67 246.75 1001.58 260.83 C 999.63 274.83 1000.92 289.74 1007.70 302.36 C 1013.28 313.09 1023.19 321.72 1034.97 324.87 C 1046.61 328.16 1059.66 326.53 1069.94 320.07 C 1074.40 317.13 1077.84 312.98 1081.19 308.89 C 1081.75 313.93 1082.15 319.00 1082.57 324.06 C 1092.48 324.26 1102.39 324.08 1112.30 324.15 C 1111.40 303.79 1111.49 283.41 1111.48 263.03 C 1111.49 235.68 1111.44 208.33 1111.50 180.98 C 1100.33 180.57 1089.15 180.78 1077.99 180.72 M 911.64 228.63 C 900.59 238.28 894.01 252.50 892.85 267.05 C 891.53 281.81 894.91 297.67 904.89 309.02 C 913.71 319.03 926.86 324.24 939.89 325.79 C 956.46 327.00 973.49 325.72 989.12 319.74 C 987.65 312.40 986.24 305.04 984.83 297.68 C 970.63 301.63 955.40 303.88 940.90 300.14 C 932.58 297.79 925.21 290.82 924.36 281.91 C 947.57 282.08 970.78 282.00 993.99 282.14 C 995.46 272.86 995.59 263.28 993.56 254.07 C 991.28 244.31 987.11 234.42 979.21 227.89 C 972.19 221.07 962.53 217.57 952.89 216.76 C 938.32 215.26 922.95 219.09 911.64 228.63 Z" />
<path fill="#e3f2ff" opacity="1.00" d=" M 715.72 227.61 C 732.07 212.03 761.93 214.59 775.27 232.87 C 782.24 242.38 784.39 254.45 784.60 266.00 C 784.63 286.58 784.57 307.16 784.63 327.74 C 771.11 327.75 757.59 327.73 744.07 327.75 C 743.88 308.18 744.09 288.59 743.97 269.02 C 743.80 263.92 742.98 258.42 739.56 254.41 C 735.60 250.55 729.15 250.01 724.28 252.37 C 719.35 255.03 715.79 260.37 715.84 266.06 C 715.76 286.62 715.72 307.18 715.74 327.74 C 702.21 327.75 688.69 327.74 675.16 327.74 C 675.21 291.80 675.32 255.86 675.11 219.92 C 688.67 219.91 702.23 219.68 715.79 219.92 C 715.75 222.49 715.73 225.05 715.72 227.61 M 728.53 223.52 C 721.73 226.04 716.68 231.53 712.26 237.05 C 712.15 232.48 712.14 227.90 712.12 223.33 C 700.98 223.38 689.84 223.36 678.70 223.46 C 678.94 257.01 678.84 290.56 678.73 324.11 C 689.87 324.18 701.00 324.13 712.14 324.14 C 712.13 304.75 712.14 285.36 712.25 265.97 C 712.33 257.58 718.55 249.24 727.01 247.80 C 733.40 246.35 741.12 248.85 744.22 254.93 C 747.52 260.70 747.63 267.55 747.60 274.02 C 747.58 290.71 747.59 307.40 747.60 324.09 C 758.73 324.21 769.87 324.11 781.00 324.14 C 781.02 304.78 781.01 285.41 781.01 266.05 C 780.83 255.15 778.85 243.68 772.21 234.73 C 762.42 221.58 743.42 217.87 728.53 223.52 Z" />
<path fill="#e3f2ff" opacity="1.00" d=" M 626.00 219.99 C 639.51 219.73 653.02 219.79 666.53 219.81 C 666.59 255.77 666.50 291.74 666.57 327.70 C 653.06 327.82 639.54 327.67 626.03 327.78 C 625.96 291.85 626.02 255.92 626.00 219.99 M 629.53 223.40 C 629.50 256.93 629.56 290.45 629.50 323.98 C 640.66 324.21 651.83 324.02 663.00 324.08 C 662.99 290.47 663.01 256.86 662.99 223.26 C 651.83 223.19 640.68 223.48 629.53 223.40 Z" />
<path fill="#e3f2ff" opacity="1.00" d=" M 1279.17 224.12 C 1293.71 217.82 1312.60 220.56 1323.19 232.89 C 1331.37 242.13 1333.43 255.01 1333.53 266.95 C 1333.68 285.99 1333.77 305.04 1333.32 324.08 C 1322.27 324.03 1311.21 324.14 1300.16 324.02 C 1300.11 308.36 1299.98 292.71 1300.00 277.06 C 1300.04 268.82 1300.45 259.67 1295.30 252.71 C 1288.24 244.11 1273.07 246.38 1267.78 255.79 C 1265.08 259.64 1264.70 264.46 1264.75 269.01 C 1264.76 287.34 1264.78 305.66 1264.85 323.99 C 1253.64 324.11 1242.43 324.11 1231.23 324.02 C 1231.23 293.01 1231.25 262.00 1231.22 230.99 C 1231.27 228.50 1230.94 225.95 1231.57 223.51 C 1242.04 223.04 1252.55 223.40 1263.04 223.33 C 1264.57 222.99 1264.76 224.90 1264.72 225.94 C 1264.82 229.51 1264.72 233.07 1264.83 236.64 C 1268.98 231.84 1273.25 226.80 1279.17 224.12 Z" />
<path fill="#e3f2ff" opacity="1.00" d=" M 1179.00 223.67 C 1190.14 222.89 1201.34 223.11 1212.50 223.42 C 1212.65 256.94 1212.46 290.46 1212.60 323.97 C 1201.40 324.17 1190.20 324.05 1179.00 324.04 C 1179.00 290.58 1179.00 257.13 1179.00 223.67 Z" />
<path fill="#e3f2ff" opacity="1.00" d=" M 933.18 242.11 C 939.76 237.25 949.71 236.52 956.35 241.65 C 961.80 245.81 963.74 252.90 964.13 259.46 C 950.86 259.46 937.58 259.48 924.31 259.45 C 925.08 252.87 927.98 246.35 933.18 242.11 M 938.18 243.24 C 933.06 245.51 930.13 250.77 928.56 255.91 C 939.12 255.95 949.69 255.94 960.26 255.91 C 959.43 252.39 958.42 248.73 955.88 246.03 C 951.53 241.18 943.87 240.67 938.18 243.24 Z" />
<path fill="#e3f2ff" opacity="1.00" d=" M 1051.47 242.68 C 1057.67 241.00 1064.87 241.75 1070.02 245.82 C 1074.42 249.61 1077.82 254.97 1077.87 260.93 C 1077.96 266.95 1077.80 272.97 1077.86 279.00 C 1077.84 284.77 1076.07 290.82 1071.74 294.84 C 1065.25 301.43 1054.19 302.29 1046.42 297.55 C 1039.82 293.34 1036.11 285.75 1035.14 278.15 C 1034.23 270.19 1034.74 261.78 1038.31 254.49 C 1040.70 248.91 1045.56 244.29 1051.47 242.68 M 1051.24 246.51 C 1046.49 248.20 1042.96 252.36 1041.08 256.94 C 1037.86 264.83 1037.47 273.79 1039.60 282.02 C 1041.29 288.41 1045.85 294.50 1052.46 296.27 C 1058.91 298.28 1066.51 296.10 1070.66 290.69 C 1073.32 287.44 1074.21 283.14 1074.25 279.03 C 1074.31 273.06 1074.42 267.08 1074.27 261.11 C 1074.28 255.60 1070.81 250.59 1066.34 247.62 C 1061.81 244.99 1056.12 244.80 1051.24 246.51 Z" />
<path fill="#e3f2ff" opacity="1.00" d=" M 44.91 259.94 C 48.90 259.94 52.72 258.77 56.03 256.56 C 57.63 258.12 59.24 259.66 60.90 261.16 C 61.72 259.62 62.54 258.08 63.36 256.54 C 65.49 257.82 67.11 259.77 69.16 261.12 C 71.09 261.50 73.07 261.51 75.00 261.91 C 75.34 263.56 75.38 265.26 75.36 266.95 C 74.42 266.96 72.56 266.99 71.63 267.00 C 70.84 268.29 69.57 268.96 68.18 269.46 C 70.76 270.07 73.35 270.60 75.93 271.20 C 75.96 272.65 75.98 274.11 75.98 275.57 C 73.79 275.61 71.58 275.50 69.41 275.81 C 68.71 276.95 68.05 278.11 67.42 279.30 C 65.19 278.02 63.59 275.51 61.13 274.81 C 59.30 276.13 57.58 277.65 55.41 278.40 C 54.86 277.04 54.29 275.69 53.70 274.36 C 51.01 274.23 48.32 273.94 45.74 273.16 C 45.70 271.82 45.07 270.23 46.14 269.11 C 48.82 267.41 52.63 268.95 54.86 266.35 C 52.05 264.95 48.89 264.93 45.84 264.77 C 45.51 263.16 45.20 261.55 44.91 259.94 M 57.90 269.68 C 60.17 269.55 62.39 269.08 64.59 268.51 C 63.86 267.70 63.14 266.88 62.43 266.06 C 59.94 265.75 58.63 267.61 57.90 269.68 Z" />
<path fill="#e3f2ff" opacity="1.00" d=" M 66.12 284.08 C 70.92 284.11 75.89 286.24 78.58 290.36 C 83.26 296.92 82.50 306.97 76.21 312.24 C 71.70 315.48 65.69 315.69 60.41 314.62 C 51.84 312.00 48.88 301.18 51.42 293.35 C 54.46 288.08 59.90 284.21 66.12 284.08 M 62.16 292.26 C 56.31 293.66 55.76 301.15 58.29 305.61 C 60.62 308.98 65.41 309.18 69.01 308.09 C 75.02 307.01 78.33 298.51 73.95 293.95 C 70.93 290.73 66.03 291.18 62.16 292.26 Z" />
<path fill="#e3f2ff" opacity="1.00" d=" M 74.40 321.34 C 78.41 319.19 82.64 317.55 86.78 315.69 C 89.68 321.37 93.75 327.31 92.83 333.99 C 91.80 340.42 83.42 343.32 78.26 339.83 C 74.94 337.34 73.38 333.35 71.00 330.08 C 68.09 332.02 65.02 334.06 61.39 334.11 C 61.00 332.38 60.60 330.65 60.19 328.93 C 64.01 324.87 69.70 323.94 74.40 321.34 M 76.59 328.50 C 77.70 330.93 79.19 333.22 81.37 334.82 C 83.33 334.72 85.12 333.80 86.92 333.13 C 87.00 329.92 86.66 326.71 85.23 323.80 C 82.13 324.94 79.28 326.60 76.59 328.50 Z" />
<path fill="#e3f2ff" opacity="1.00" d=" M 80.95 353.10 C 87.15 348.93 92.98 344.13 99.75 340.89 C 102.70 345.36 106.65 349.27 108.57 354.35 C 109.36 356.00 108.15 357.66 107.82 359.26 C 103.85 357.32 101.83 353.28 99.56 349.73 C 97.20 350.45 94.94 351.50 93.17 353.26 C 94.47 354.93 95.73 356.63 96.98 358.34 C 97.02 359.53 97.06 360.73 97.10 361.93 C 96.03 362.42 94.96 362.91 93.90 363.40 C 92.33 360.98 90.75 358.57 89.10 356.21 C 86.93 357.34 84.91 358.72 83.03 360.28 C 85.20 363.79 87.86 367.10 89.14 371.08 C 88.32 372.11 87.07 372.70 85.84 373.06 C 82.77 370.72 80.99 367.21 78.82 364.10 C 77.59 362.16 76.05 360.31 75.54 358.01 C 76.58 355.71 79.09 354.63 80.95 353.10 Z" />
<path fill="#e3f2ff" opacity="1.00" d=" M 111.73 362.68 C 113.26 360.91 115.46 362.80 117.19 363.23 C 117.55 367.82 116.45 372.34 115.53 376.81 C 115.26 380.31 115.25 383.82 115.19 387.34 C 119.39 383.51 123.11 378.99 127.91 375.91 C 129.58 376.58 130.71 378.12 132.06 379.26 C 125.34 385.86 119.08 392.95 111.95 399.12 C 110.54 399.23 109.12 399.27 107.70 399.24 C 106.89 391.32 108.97 383.52 108.91 375.62 C 103.30 377.24 101.04 383.80 95.45 385.22 C 94.55 384.30 93.64 383.39 92.73 382.49 C 94.02 379.42 96.75 377.38 99.04 375.09 C 103.44 371.13 107.38 366.69 111.73 362.68 Z" />
<path fill="#e3f2ff" opacity="1.00" d=" M 132.42 385.83 C 133.70 384.39 135.33 381.59 137.56 383.34 C 143.36 387.50 149.22 391.57 155.01 395.74 C 154.29 397.13 153.53 398.64 152.06 399.39 C 149.60 398.66 147.42 397.25 145.21 396.00 C 139.50 401.54 136.65 409.27 130.92 414.78 C 129.30 414.35 127.67 413.99 126.04 413.63 C 126.07 412.55 126.10 411.48 126.13 410.42 C 130.14 403.82 135.22 397.95 139.05 391.24 C 136.77 389.52 134.53 387.76 132.42 385.83 Z" />
<path fill="#e3f2ff" opacity="1.00" d=" M 311.50 404.35 C 312.84 401.49 316.32 400.98 319.00 400.01 C 318.25 405.19 316.77 410.23 315.50 415.30 C 320.13 420.15 326.65 422.57 331.17 427.52 C 329.12 428.42 327.13 429.55 324.92 430.01 C 320.69 428.55 317.56 425.05 313.50 423.20 C 311.95 423.17 310.40 423.15 308.85 423.15 C 310.16 426.81 311.68 430.39 313.39 433.89 C 312.77 434.85 312.17 435.82 311.58 436.80 C 309.61 436.68 306.61 437.54 305.77 435.07 C 302.50 426.72 298.48 418.69 295.49 410.23 C 297.39 409.24 299.35 408.30 301.48 407.91 C 303.70 411.37 304.24 415.77 307.22 418.73 C 310.04 414.41 310.00 409.13 311.50 404.35 Z" />
<path fill="#e3f2ff" opacity="1.00" d=" M 158.39 402.33 C 162.48 401.06 167.08 401.16 170.93 403.18 C 176.02 405.33 179.11 410.66 179.93 415.95 C 180.15 420.70 177.92 425.32 174.84 428.83 C 171.36 432.60 165.76 432.59 161.03 432.12 C 151.90 431.34 145.70 420.43 149.17 412.09 C 150.58 407.68 154.09 404.02 158.39 402.33 M 157.20 411.46 C 154.83 415.16 155.00 419.85 156.08 423.96 C 159.37 425.64 163.34 428.10 167.04 426.11 C 171.96 424.07 173.47 417.80 172.52 413.02 C 170.55 406.77 160.65 406.22 157.20 411.46 Z" />
<path fill="#e3f2ff" opacity="1.00" d=" M 186.49 411.03 C 188.84 411.77 191.12 412.68 193.40 413.63 C 194.44 419.88 193.56 426.32 195.14 432.48 C 199.08 427.48 201.85 421.71 204.45 415.94 C 206.27 415.90 208.08 415.90 209.90 415.92 C 212.44 422.36 211.71 429.42 213.19 436.08 C 216.63 431.26 218.49 425.56 221.68 420.60 C 223.30 417.67 226.80 420.08 229.15 420.49 C 224.75 429.18 220.05 437.72 215.14 446.13 C 213.36 448.56 209.98 447.00 207.79 446.01 C 207.30 439.22 207.46 432.31 205.76 425.67 C 202.37 432.04 199.06 438.47 194.98 444.44 C 192.90 443.64 190.86 442.74 188.81 441.87 C 188.39 431.56 186.58 421.36 186.49 411.03 Z" />
<path fill="#e3f2ff" opacity="1.00" d=" M 267.20 417.05 C 272.93 415.45 278.96 413.57 284.95 414.74 C 287.12 415.02 288.45 416.93 290.01 418.25 C 291.27 422.47 289.90 426.73 288.05 430.53 C 291.30 433.84 294.41 437.29 297.34 440.89 C 294.76 441.70 292.10 442.22 289.39 442.10 C 286.30 438.94 283.67 434.65 279.03 433.71 C 278.96 437.51 280.10 441.16 280.55 444.89 C 278.60 446.20 276.23 446.18 273.99 446.34 C 272.98 443.63 272.26 440.83 271.87 437.97 C 270.89 430.87 268.32 424.12 267.20 417.05 M 275.96 419.99 C 275.92 423.33 275.89 426.82 277.79 429.75 C 281.90 429.01 284.75 425.25 284.01 421.07 C 281.55 419.66 278.66 420.01 275.96 419.99 Z" />
<path fill="#e3f2ff" opacity="1.00" d=" M 242.37 419.33 C 246.71 418.52 251.68 418.15 255.67 420.43 C 264.42 425.03 265.87 438.92 258.42 445.32 C 251.14 452.38 236.33 450.18 233.16 439.95 C 229.84 432.10 233.89 421.72 242.37 419.33 M 245.47 424.55 C 239.01 425.44 238.07 433.46 239.66 438.53 C 242.04 445.35 253.05 445.11 255.64 438.59 C 256.77 434.55 256.53 429.76 253.62 426.50 C 251.35 424.79 248.30 423.63 245.47 424.55 Z" />
</g>
<g id="#8cadf3ff" opacity='1' >
<path fill="#8cadf3" opacity="1.00" d=" M 227.89 29.72 C 235.51 28.38 243.27 29.41 250.95 29.04 C 263.00 29.92 275.04 31.15 286.98 33.10 C 326.77 41.18 364.38 60.16 394.17 87.80 C 399.60 93.37 405.25 98.74 410.63 104.37 C 435.67 132.46 453.35 167.07 461.29 203.87 C 465.17 220.95 466.87 238.53 466.92 256.03 C 466.43 261.35 465.54 266.64 465.89 272.01 C 463.81 294.85 458.06 317.31 449.63 338.61 C 447.38 344.46 444.32 349.94 441.56 355.55 C 439.81 353.59 437.90 351.76 435.64 350.41 C 428.46 346.06 421.96 340.72 415.02 336.02 C 408.62 331.41 401.32 327.97 395.71 322.31 C 392.77 319.30 389.72 316.38 386.30 313.91 C 381.55 318.82 378.30 324.83 375.03 330.75 C 364.67 344.31 353.60 357.62 339.87 367.92 C 333.68 362.52 325.54 360.52 318.48 356.59 C 316.62 355.52 314.64 354.32 313.66 352.31 C 310.48 345.99 309.56 338.89 307.75 332.12 C 306.96 327.45 300.70 326.63 299.84 322.02 C 298.52 316.11 298.41 310.01 297.76 304.01 C 297.30 298.60 296.15 292.82 298.60 287.71 C 300.80 283.32 304.54 279.84 306.17 275.15 C 309.27 266.55 311.87 257.77 313.80 248.84 C 314.42 245.07 316.55 241.89 318.78 238.88 C 321.37 235.48 321.27 231.02 321.90 226.99 C 322.75 218.94 325.37 211.11 325.29 202.97 C 325.14 199.41 321.45 197.71 319.08 195.66 C 318.53 187.09 320.12 178.59 319.98 170.04 C 319.88 159.02 320.19 148.00 319.87 136.99 C 319.37 124.30 313.93 111.97 305.20 102.80 C 299.32 97.34 293.26 92.04 286.78 87.29 C 283.58 84.82 280.07 82.51 277.87 79.04 C 276.50 77.00 276.54 74.16 278.08 72.23 C 280.46 69.10 284.34 67.14 285.55 63.16 C 273.65 62.13 262.26 66.40 250.77 68.74 C 241.14 70.59 232.09 74.47 223.03 78.09 C 216.59 80.72 210.21 83.59 204.35 87.38 C 196.59 92.47 188.61 97.45 182.23 104.28 C 176.18 110.23 172.12 118.04 170.36 126.31 C 167.37 140.32 167.40 154.80 168.91 168.99 C 168.56 178.13 170.70 187.15 169.88 196.28 C 166.88 197.87 162.41 199.88 163.11 204.03 C 164.00 213.06 166.22 221.91 167.28 230.93 C 167.89 238.06 174.54 242.68 175.43 249.73 C 177.25 260.15 180.29 270.42 185.38 279.73 C 187.64 284.31 191.19 288.64 191.05 294.01 C 191.92 304.47 188.18 314.51 187.90 324.90 C 185.21 326.74 181.14 327.89 180.62 331.61 C 178.84 338.90 178.35 346.79 174.35 353.33 C 168.36 358.64 160.28 360.65 153.34 364.41 C 152.06 365.05 151.36 366.37 150.46 367.43 C 141.71 360.62 133.95 352.62 126.96 344.04 C 121.55 336.77 115.56 329.80 111.86 321.43 C 99.16 298.52 91.46 272.34 92.68 246.00 C 92.82 234.75 92.79 223.25 96.40 212.46 C 101.14 194.69 107.38 177.04 117.78 161.73 C 120.59 157.76 123.28 153.70 126.31 149.90 C 129.92 145.34 133.78 140.98 137.35 136.40 C 139.33 134.10 138.85 130.91 139.11 128.12 C 137.40 128.35 135.70 128.63 133.99 128.72 C 132.27 127.85 131.55 125.88 130.49 124.38 C 121.81 120.20 113.60 115.01 106.20 108.83 C 99.77 103.27 93.32 97.27 84.99 94.70 C 122.58 56.63 174.47 32.88 227.89 29.72 Z" />
</g>
<g id="#1a950dff" opacity="1">
<path fill="#1a950d" opacity="1.00" d=" M 52.30 136.25 C 58.58 125.60 66.28 115.91 74.07 106.35 C 79.01 108.29 81.39 113.48 85.89 116.08 C 91.19 119.33 95.49 123.94 100.86 127.10 C 104.79 129.40 107.93 132.72 111.10 135.93 C 114.21 139.12 118.81 140.04 122.27 142.74 C 124.51 144.50 125.20 147.41 126.31 149.90 C 123.28 153.70 120.59 157.76 117.78 161.73 C 107.38 177.04 101.14 194.69 96.40 212.46 C 92.79 223.25 92.82 234.75 92.68 246.00 C 91.46 272.34 99.16 298.52 111.86 321.43 C 115.56 329.80 121.55 336.77 126.96 344.04 C 133.95 352.62 141.71 360.62 150.46 367.43 C 157.61 372.80 164.95 378.01 172.99 382.00 C 181.94 386.54 191.06 390.92 200.79 393.56 C 223.76 400.76 248.40 401.81 272.09 397.98 C 296.60 393.42 320.11 383.14 339.87 367.92 C 353.60 357.62 364.67 344.31 375.03 330.75 C 377.54 329.47 380.16 328.46 382.76 327.40 C 388.37 331.70 393.06 337.07 398.89 341.12 C 404.64 345.68 411.63 348.23 417.65 352.39 C 420.45 354.26 422.04 357.33 424.30 359.74 C 426.45 361.49 429.19 362.27 431.69 363.39 C 432.46 365.06 433.22 366.73 433.90 368.44 C 426.76 381.53 417.26 393.27 407.32 404.35 C 378.17 435.74 339.78 458.51 298.09 468.50 C 274.89 474.52 250.73 475.41 226.90 474.18 C 216.91 473.40 206.93 472.15 197.17 469.82 C 195.79 469.53 194.43 469.26 193.07 468.92 C 190.39 468.32 187.73 467.65 185.11 466.84 C 135.02 453.54 90.35 421.79 60.49 379.54 C 43.89 356.34 32.02 329.81 25.56 302.03 C 12.24 246.09 22.38 185.27 52.30 136.25 M 44.91 259.94 C 45.20 261.55 45.51 263.16 45.84 264.77 C 48.89 264.93 52.05 264.95 54.86 266.35 C 52.63 268.95 48.82 267.41 46.14 269.11 C 45.07 270.23 45.70 271.82 45.74 273.16 C 48.32 273.94 51.01 274.23 53.70 274.36 C 54.29 275.69 54.86 277.04 55.41 278.40 C 57.58 277.65 59.30 276.13 61.13 274.81 C 63.59 275.51 65.19 278.02 67.42 279.30 C 68.05 278.11 68.71 276.95 69.41 275.81 C 71.58 275.50 73.79 275.61 75.98 275.57 C 75.98 274.11 75.96 272.65 75.93 271.20 C 73.35 270.60 70.76 270.07 68.18 269.46 C 69.57 268.96 70.84 268.29 71.63 267.00 C 72.56 266.99 74.42 266.96 75.36 266.95 C 75.38 265.26 75.34 263.56 75.00 261.91 C 73.07 261.51 71.09 261.50 69.16 261.12 C 67.11 259.77 65.49 257.82 63.36 256.54 C 62.54 258.08 61.72 259.62 60.90 261.16 C 59.24 259.66 57.63 258.12 56.03 256.56 C 52.72 258.77 48.90 259.94 44.91 259.94 M 66.12 284.08 C 59.90 284.21 54.46 288.08 51.42 293.35 C 48.88 301.18 51.84 312.00 60.41 314.62 C 65.69 315.69 71.70 315.48 76.21 312.24 C 82.50 306.97 83.26 296.92 78.58 290.36 C 75.89 286.24 70.92 284.11 66.12 284.08 M 74.40 321.34 C 69.70 323.94 64.01 324.87 60.19 328.93 C 60.60 330.65 61.00 332.38 61.39 334.11 C 65.02 334.06 68.09 332.02 71.00 330.08 C 73.38 333.35 74.94 337.34 78.26 339.83 C 83.42 343.32 91.80 340.42 92.83 333.99 C 93.75 327.31 89.68 321.37 86.78 315.69 C 82.64 317.55 78.41 319.19 74.40 321.34 M 80.95 353.10 C 79.09 354.63 76.58 355.71 75.54 358.01 C 76.05 360.31 77.59 362.16 78.82 364.10 C 80.99 367.21 82.77 370.72 85.84 373.06 C 87.07 372.70 88.32 372.11 89.14 371.08 C 87.86 367.10 85.20 363.79 83.03 360.28 C 84.91 358.72 86.93 357.34 89.10 356.21 C 90.75 358.57 92.33 360.98 93.90 363.40 C 94.96 362.91 96.03 362.42 97.10 361.93 C 97.06 360.73 97.02 359.53 96.98 358.34 C 95.73 356.63 94.47 354.93 93.17 353.26 C 94.94 351.50 97.20 350.45 99.56 349.73 C 101.83 353.28 103.85 357.32 107.82 359.26 C 108.15 357.66 109.36 356.00 108.57 354.35 C 106.65 349.27 102.70 345.36 99.75 340.89 C 92.98 344.13 87.15 348.93 80.95 353.10 M 111.73 362.68 C 107.38 366.69 103.44 371.13 99.04 375.09 C 96.75 377.38 94.02 379.42 92.73 382.49 C 93.64 383.39 94.55 384.30 95.45 385.22 C 101.04 383.80 103.30 377.24 108.91 375.62 C 108.97 383.52 106.89 391.32 107.70 399.24 C 109.12 399.27 110.54 399.23 111.95 399.12 C 119.08 392.95 125.34 385.86 132.06 379.26 C 130.71 378.12 129.58 376.58 127.91 375.91 C 123.11 378.99 119.39 383.51 115.19 387.34 C 115.25 383.82 115.26 380.31 115.53 376.81 C 116.45 372.34 117.55 367.82 117.19 363.23 C 115.46 362.80 113.26 360.91 111.73 362.68 M 132.42 385.83 C 134.53 387.76 136.77 389.52 139.05 391.24 C 135.22 397.95 130.14 403.82 126.13 410.42 C 126.10 411.48 126.07 412.55 126.04 413.63 C 127.67 413.99 129.30 414.35 130.92 414.78 C 136.65 409.27 139.50 401.54 145.21 396.00 C 147.42 397.25 149.60 398.66 152.06 399.39 C 153.53 398.64 154.29 397.13 155.01 395.74 C 149.22 391.57 143.36 387.50 137.56 383.34 C 135.33 381.59 133.70 384.39 132.42 385.83 M 311.50 404.35 C 310.00 409.13 310.04 414.41 307.22 418.73 C 304.24 415.77 303.70 411.37 301.48 407.91 C 299.35 408.30 297.39 409.24 295.49 410.23 C 298.48 418.69 302.50 426.72 305.77 435.07 C 306.61 437.54 309.61 436.68 311.58 436.80 C 312.17 435.82 312.77 434.85 313.39 433.89 C 311.68 430.39 310.16 426.81 308.85 423.15 C 310.40 423.15 311.95 423.17 313.50 423.20 C 317.56 425.05 320.69 428.55 324.92 430.01 C 327.13 429.55 329.12 428.42 331.17 427.52 C 326.65 422.57 320.13 420.15 315.50 415.30 C 316.77 410.23 318.25 405.19 319.00 400.01 C 316.32 400.98 312.84 401.49 311.50 404.35 M 158.39 402.33 C 154.09 404.02 150.58 407.68 149.17 412.09 C 145.70 420.43 151.90 431.34 161.03 432.12 C 165.76 432.59 171.36 432.60 174.84 428.83 C 177.92 425.32 180.15 420.70 179.93 415.95 C 179.11 410.66 176.02 405.33 170.93 403.18 C 167.08 401.16 162.48 401.06 158.39 402.33 M 186.49 411.03 C 186.58 421.36 188.39 431.56 188.81 441.87 C 190.86 442.74 192.90 443.64 194.98 444.44 C 199.06 438.47 202.37 432.04 205.76 425.67 C 207.46 432.31 207.30 439.22 207.79 446.01 C 209.98 447.00 213.36 448.56 215.14 446.13 C 220.05 437.72 224.75 429.18 229.15 420.49 C 226.80 420.08 223.30 417.67 221.68 420.60 C 218.49 425.56 216.63 431.26 213.19 436.08 C 211.71 429.42 212.44 422.36 209.90 415.92 C 208.08 415.90 206.27 415.90 204.45 415.94 C 201.85 421.71 199.08 427.48 195.14 432.48 C 193.56 426.32 194.44 419.88 193.40 413.63 C 191.12 412.68 188.84 411.77 186.49 411.03 M 267.20 417.05 C 268.32 424.12 270.89 430.87 271.87 437.97 C 272.26 440.83 272.98 443.63 273.99 446.34 C 276.23 446.18 278.60 446.20 280.55 444.89 C 280.10 441.16 278.96 437.51 279.03 433.71 C 283.67 434.65 286.30 438.94 289.39 442.10 C 292.10 442.22 294.76 441.70 297.34 440.89 C 294.41 437.29 291.30 433.84 288.05 430.53 C 289.90 426.73 291.27 422.47 290.01 418.25 C 288.45 416.93 287.12 415.02 284.95 414.74 C 278.96 413.57 272.93 415.45 267.20 417.05 M 242.37 419.33 C 233.89 421.72 229.84 432.10 233.16 439.95 C 236.33 450.18 251.14 452.38 258.42 445.32 C 265.87 438.92 264.42 425.03 255.67 420.43 C 251.68 418.15 246.71 418.52 242.37 419.33 Z" />
<path fill="#1a950d" opacity="1.00" d=" M 57.90 269.68 C 58.63 267.61 59.94 265.75 62.43 266.06 C 63.14 266.88 63.86 267.70 64.59 268.51 C 62.39 269.08 60.17 269.55 57.90 269.68 Z" />
<path fill="#1a950d" opacity="1.00" d=" M 62.16 292.26 C 66.03 291.18 70.93 290.73 73.95 293.95 C 78.33 298.51 75.02 307.01 69.01 308.09 C 65.41 309.18 60.62 308.98 58.29 305.61 C 55.76 301.15 56.31 293.66 62.16 292.26 Z" />
<path fill="#1a950d" opacity="1.00" d=" M 76.59 328.50 C 79.28 326.60 82.13 324.94 85.23 323.80 C 86.66 326.71 87.00 329.92 86.92 333.13 C 85.12 333.80 83.33 334.72 81.37 334.82 C 79.19 333.22 77.70 330.93 76.59 328.50 Z" />
<path fill="#1a950d" opacity="1.00" d=" M 157.20 411.46 C 160.65 406.22 170.55 406.77 172.52 413.02 C 173.47 417.80 171.96 424.07 167.04 426.11 C 163.34 428.10 159.37 425.64 156.08 423.96 C 155.00 419.85 154.83 415.16 157.20 411.46 Z" />
<path fill="#1a950d" opacity="1.00" d=" M 275.96 419.99 C 278.66 420.01 281.55 419.66 284.01 421.07 C 284.75 425.25 281.90 429.01 277.79 429.75 C 275.89 426.82 275.92 423.33 275.96 419.99 Z" />
<path fill="#1a950d" opacity="1.00" d=" M 245.47 424.55 C 248.30 423.63 251.35 424.79 253.62 426.50 C 256.53 429.76 256.77 434.55 255.64 438.59 C 253.05 445.11 242.04 445.35 239.66 438.53 C 238.07 433.46 239.01 425.44 245.47 424.55 Z" />
</g>
<g id="#000000ff">
<path fill="#000000" opacity="1.00" d=" M 640.46 175.58 C 647.32 173.90 655.60 174.92 660.63 180.30 C 666.28 186.26 666.65 196.16 661.76 202.68 C 653.68 213.09 634.24 211.65 629.04 199.07 C 624.69 189.82 630.41 177.76 640.46 175.58 Z" />
<path fill="#000000" opacity="1.00" d=" M 523.43 323.97 C 523.54 276.23 523.38 228.50 523.51 180.77 C 534.68 180.82 545.84 180.77 557.00 180.79 C 557.02 218.50 557.01 256.22 557.01 293.93 C 576.74 293.92 596.47 293.91 616.21 293.93 C 616.21 303.98 616.21 314.02 616.21 324.07 C 585.28 324.02 554.35 324.22 523.43 323.97 Z" />
<path fill="#000000" opacity="1.00" d=" M 794.86 180.87 C 806.01 180.71 817.17 180.68 828.33 180.76 C 828.43 207.50 828.53 234.25 828.53 260.99 C 838.80 247.13 848.05 232.47 858.82 218.99 C 872.02 219.04 885.22 218.88 898.42 219.10 C 885.69 233.33 872.98 247.57 860.18 261.73 C 874.85 282.52 889.46 303.36 904.16 324.13 C 890.40 324.17 876.63 324.14 862.87 324.01 C 854.24 309.68 845.65 295.32 836.87 281.08 C 833.87 284.44 831.09 287.97 828.56 291.68 C 828.47 302.51 828.62 313.34 828.25 324.16 C 817.12 324.12 805.99 324.16 794.87 324.13 C 794.84 276.38 794.86 228.62 794.86 180.87 Z" />
<path fill="#000000" opacity="1.00" d=" M 1077.99 180.72 C 1089.15 180.78 1100.33 180.57 1111.50 180.98 C 1111.44 208.33 1111.49 235.68 1111.48 263.03 C 1111.49 283.41 1111.40 303.79 1112.30 324.15 C 1102.39 324.08 1092.48 324.26 1082.57 324.06 C 1082.15 319.00 1081.75 313.93 1081.19 308.89 C 1077.84 312.98 1074.40 317.13 1069.94 320.07 C 1059.66 326.53 1046.61 328.16 1034.97 324.87 C 1023.19 321.72 1013.28 313.09 1007.70 302.36 C 1000.92 289.74 999.63 274.83 1001.58 260.83 C 1003.67 246.75 1010.79 232.89 1022.82 224.84 C 1031.76 218.47 1043.05 215.86 1053.92 216.90 C 1063.00 217.56 1071.85 221.50 1077.97 228.32 C 1077.83 212.45 1077.98 196.59 1077.99 180.72 M 1051.47 242.68 C 1045.56 244.29 1040.70 248.91 1038.31 254.49 C 1034.74 261.78 1034.23 270.19 1035.14 278.15 C 1036.11 285.75 1039.82 293.34 1046.42 297.55 C 1054.19 302.29 1065.25 301.43 1071.74 294.84 C 1076.07 290.82 1077.84 284.77 1077.86 279.00 C 1077.80 272.97 1077.96 266.95 1077.87 260.93 C 1077.82 254.97 1074.42 249.61 1070.02 245.82 C 1064.87 241.75 1057.67 241.00 1051.47 242.68 Z" />
<path fill="#000000" opacity="1.00" d=" M 911.64 228.63 C 922.95 219.09 938.32 215.26 952.89 216.76 C 962.53 217.57 972.19 221.07 979.21 227.89 C 987.11 234.42 991.28 244.31 993.56 254.07 C 995.59 263.28 995.46 272.86 993.99 282.14 C 970.78 282.00 947.57 282.08 924.36 281.91 C 925.21 290.82 932.58 297.79 940.90 300.14 C 955.40 303.88 970.63 301.63 984.83 297.68 C 986.24 305.04 987.65 312.40 989.12 319.74 C 973.49 325.72 956.46 327.00 939.89 325.79 C 926.86 324.24 913.71 319.03 904.89 309.02 C 894.91 297.67 891.53 281.81 892.85 267.05 C 894.01 252.50 900.59 238.28 911.64 228.63 M 933.18 242.11 C 927.98 246.35 925.08 252.87 924.31 259.45 C 937.58 259.48 950.86 259.46 964.13 259.46 C 963.74 252.90 961.80 245.81 956.35 241.65 C 949.71 236.52 939.76 237.25 933.18 242.11 Z" />
<path fill="#000000" opacity="1.00" d=" M 728.53 223.52 C 743.42 217.87 762.42 221.58 772.21 234.73 C 778.85 243.68 780.83 255.15 781.01 266.05 C 781.01 285.41 781.02 304.78 781.00 324.14 C 769.87 324.11 758.73 324.21 747.60 324.09 C 747.59 307.40 747.58 290.71 747.60 274.02 C 747.63 267.55 747.52 260.70 744.22 254.93 C 741.12 248.85 733.40 246.35 727.01 247.80 C 718.55 249.24 712.33 257.58 712.25 265.97 C 712.14 285.36 712.13 304.75 712.14 324.14 C 701.00 324.13 689.87 324.18 678.73 324.11 C 678.84 290.56 678.94 257.01 678.70 223.46 C 689.84 223.36 700.98 223.38 712.12 223.33 C 712.14 227.90 712.15 232.48 712.26 237.05 C 716.68 231.53 721.73 226.04 728.53 223.52 Z" />
<path fill="#000000" opacity="1.00" d=" M 629.53 223.40 C 640.68 223.48 651.83 223.19 662.99 223.26 C 663.01 256.86 662.99 290.47 663.00 324.08 C 651.83 324.02 640.66 324.21 629.50 323.98 C 629.56 290.45 629.50 256.93 629.53 223.40 Z" />
</g>
</svg>
