<?xml version="1.0" encoding="UTF-8" ?>
<!DOCTYPE svg PUBLIC "-//W3C//DTD SVG 1.1//EN" "http://www.w3.org/Graphics/SVG/1.1/DTD/svg11.dtd">
<svg width="752pt" height="201pt" viewBox="0 0 752 201" version="1.1" xmlns="http://www.w3.org/2000/svg">
<g id="#ffffffff">
</g>
<g id="#186ae2ff">
<path fill="#000" opacity="0.9" d=" M 87.98 21.24 C 92.69 20.98 97.41 21.00 102.13 21.22 C 103.69 26.22 104.81 31.39 106.79 36.24 C 108.27 38.03 110.87 38.06 112.93 38.77 C 121.20 40.67 128.55 44.99 135.89 49.06 C 140.96 46.84 145.74 44.02 150.66 41.51 C 154.21 44.69 157.72 47.93 160.73 51.62 C 157.94 56.37 155.20 61.18 153.05 66.26 C 157.29 73.77 161.61 81.39 163.50 89.89 C 164.17 92.11 164.40 95.23 167.13 95.85 C 171.65 97.38 176.27 98.54 180.83 99.93 C 181.07 104.67 181.06 109.41 180.84 114.15 C 175.86 115.76 170.70 116.84 165.84 118.79 C 163.22 121.78 163.48 126.23 161.86 129.76 C 159.94 136.25 155.93 141.81 153.26 147.92 C 155.03 153.17 158.21 157.79 160.57 162.78 C 157.34 166.17 154.32 169.87 150.48 172.59 C 145.56 170.30 141.11 167.00 135.95 165.23 C 134.07 165.70 132.48 166.87 130.80 167.80 C 124.79 171.39 118.24 174.11 111.41 175.70 C 109.69 176.28 107.33 176.48 106.52 178.39 C 104.79 183.12 103.59 188.04 102.13 192.87 C 97.39 193.05 92.64 193.06 87.90 192.86 C 86.42 188.03 85.30 183.09 83.50 178.37 C 82.44 176.08 79.50 176.15 77.43 175.42 C 69.08 173.53 61.64 169.18 54.23 165.06 C 49.08 167.24 44.31 170.18 39.26 172.56 C 35.86 169.38 32.51 166.14 29.35 162.72 C 31.70 157.73 34.96 153.16 36.84 147.96 C 33.68 141.15 29.33 134.80 27.43 127.41 C 26.32 124.58 26.49 120.97 24.17 118.78 C 19.34 116.80 14.20 115.70 9.22 114.14 C 8.96 109.41 8.96 104.66 9.23 99.92 C 14.04 98.50 18.93 97.30 23.63 95.56 C 25.53 94.84 25.75 92.55 26.31 90.87 C 28.07 83.25 31.26 76.01 35.36 69.36 C 35.97 68.05 37.30 66.66 36.52 65.13 C 34.51 60.45 31.86 56.07 29.48 51.57 C 32.69 48.10 35.71 43.96 39.77 41.60 C 44.62 43.98 49.20 46.90 54.19 49.00 C 60.36 45.72 66.36 42.00 73.09 39.92 C 76.24 38.67 79.86 38.57 82.76 36.78 C 85.24 31.92 86.17 26.39 87.98 21.24 M 70.68 50.71 C 56.44 56.76 44.73 68.44 38.68 82.69 C 32.67 96.47 32.01 112.47 36.85 126.70 C 41.76 141.02 51.99 153.47 65.31 160.73 C 78.67 168.12 94.84 170.44 109.67 166.63 C 126.09 162.64 140.73 151.60 148.75 136.68 C 155.59 124.34 158.04 109.63 155.38 95.76 C 153.38 85.29 148.71 75.34 141.77 67.23 C 125.03 46.99 94.64 39.88 70.68 50.71 Z" />
<path fill="#000" opacity="0.9" d=" M 352.60 54.41 C 361.94 44.19 375.26 38.16 388.88 36.39 C 405.55 34.23 423.42 36.99 437.45 46.69 C 443.90 51.00 449.20 56.86 453.34 63.39 C 453.53 58.56 453.08 53.70 453.61 48.89 C 454.07 44.58 458.11 41.93 461.89 40.69 C 473.17 36.86 485.20 36.20 497.02 36.08 C 509.10 36.13 521.64 37.65 532.34 43.66 C 537.50 46.50 541.78 50.68 545.39 55.30 C 545.47 50.01 545.42 44.71 545.45 39.42 C 551.88 38.37 558.39 37.51 564.92 37.76 C 569.38 38.00 574.35 38.98 577.29 42.67 C 579.77 45.86 580.10 50.11 580.24 53.99 C 580.34 64.60 580.12 75.20 580.35 85.80 C 593.98 69.88 607.93 54.24 621.52 38.30 C 630.10 38.14 640.02 39.83 644.94 47.71 C 657.89 37.02 675.57 35.30 691.72 36.40 C 700.67 37.25 710.32 38.63 717.46 44.59 C 721.47 47.77 723.56 52.99 722.97 58.07 C 722.74 63.54 719.11 68.09 715.06 71.43 C 705.36 66.07 694.06 64.04 683.07 64.69 C 678.85 65.08 674.09 65.85 671.27 69.34 C 668.88 71.99 669.79 76.49 672.77 78.31 C 677.13 81.17 682.38 82.15 687.23 83.89 C 699.21 87.76 711.54 92.39 720.60 101.49 C 728.54 109.52 730.72 121.71 728.84 132.53 C 727.02 142.92 719.58 151.66 710.39 156.48 C 700.46 161.69 689.02 163.05 677.96 163.17 C 666.80 163.22 655.39 161.74 645.24 156.86 C 638.50 162.30 628.63 163.03 620.98 159.15 C 615.86 156.03 611.85 151.45 607.83 147.08 C 598.72 136.49 589.61 125.88 580.50 115.28 C 580.37 129.96 580.48 144.65 580.44 159.33 C 575.04 160.41 569.54 160.83 564.05 160.98 C 558.98 161.00 553.58 160.44 549.41 157.28 C 542.68 162.32 533.14 162.97 525.68 159.22 C 520.29 156.40 517.27 150.89 514.05 146.00 C 508.94 137.64 503.66 129.39 498.58 121.01 C 495.05 120.99 491.52 121.00 488.00 121.00 C 488.00 133.75 487.99 146.49 488.01 159.24 C 481.76 160.60 475.34 161.04 468.96 160.93 C 464.13 160.72 458.54 159.67 455.79 155.23 C 452.34 149.50 453.66 142.49 453.36 136.14 C 445.30 149.57 431.23 158.70 416.01 161.87 C 396.89 165.80 375.51 163.25 359.61 151.26 C 351.11 145.06 345.23 136.03 341.09 126.49 C 339.01 135.57 336.88 144.69 333.54 153.40 C 332.53 156.71 328.88 157.80 326.00 158.92 C 315.89 162.08 304.80 162.52 294.59 159.53 C 290.57 158.46 286.60 155.86 285.31 151.72 C 280.76 137.76 277.33 123.47 273.47 109.31 C 269.86 124.64 266.51 140.04 262.36 155.25 C 253.50 161.84 241.68 162.33 231.14 160.83 C 225.52 159.70 219.17 158.35 215.50 153.55 C 212.07 147.87 210.78 141.26 208.87 134.99 C 204.37 118.27 200.92 101.28 197.69 84.28 C 209.25 81.37 220.81 78.48 232.37 75.55 C 235.51 93.80 237.72 112.21 240.82 130.45 C 241.43 129.43 242.06 128.43 242.23 127.23 C 246.61 108.06 251.53 89.02 255.49 69.75 C 263.88 68.12 272.33 63.88 280.99 66.38 C 285.83 67.38 291.31 69.83 292.54 75.13 C 297.18 92.54 302.20 109.86 306.39 127.40 C 306.65 128.53 307.15 129.55 307.89 130.46 C 312.45 101.37 315.20 72.02 318.61 42.78 C 327.25 38.13 338.37 36.88 347.13 41.87 C 351.52 44.38 352.58 49.75 352.60 54.41 M 393.40 64.46 C 387.13 65.74 381.52 69.70 378.12 75.11 C 373.11 83.02 372.31 92.74 372.50 101.88 C 372.80 110.81 374.35 120.50 380.60 127.35 C 390.22 138.65 410.26 138.15 419.34 126.41 C 425.79 118.25 426.75 107.33 426.60 97.30 C 426.26 88.06 424.60 78.00 417.89 71.10 C 411.77 64.50 401.95 62.61 393.40 64.46 M 487.79 64.63 C 487.81 74.57 487.87 84.51 487.76 94.45 C 493.52 94.50 499.35 94.95 505.07 94.10 C 510.23 93.28 515.14 89.54 516.21 84.24 C 517.65 78.23 516.66 70.53 510.90 67.09 C 503.91 63.21 495.47 63.59 487.79 64.63 M 611.12 100.35 C 620.04 110.18 628.94 120.03 638.09 129.64 C 639.98 127.63 642.08 125.83 644.31 124.20 C 652.00 129.30 660.51 133.75 669.85 134.58 C 676.24 135.06 683.30 135.51 689.06 132.20 C 693.42 129.90 695.23 123.17 691.25 119.70 C 685.92 115.69 679.20 114.41 673.07 112.10 C 662.81 108.33 651.87 104.99 643.66 97.42 C 637.94 92.31 634.65 84.91 634.06 77.32 C 626.46 85.05 618.71 92.62 611.12 100.35 M 530.72 113.33 C 535.20 120.03 540.33 126.26 545.37 132.54 C 545.48 121.90 545.50 111.25 545.36 100.61 C 541.12 105.52 536.53 110.29 530.72 113.33 Z" />
<path fill="#3239c6" opacity="0.5" d=" M 42.70 125.20 C 36.73 107.52 40.22 87.14 51.95 72.60 C 52.42 76.63 50.90 81.38 53.11 84.95 C 58.43 86.74 64.30 84.59 69.66 86.39 C 71.10 90.44 70.19 94.82 70.45 99.01 C 70.58 100.67 70.35 103.03 72.28 103.75 C 77.28 104.73 82.53 103.22 87.45 104.63 C 89.89 106.66 88.62 110.38 88.88 113.14 C 73.47 117.11 58.07 121.09 42.70 125.20 Z" />
</g>
<g id="#3239c6ff">
<path fill="#3239c6" opacity="1.00" d=" M 70.68 50.71 C 94.64 39.88 125.03 46.99 141.77 67.23 C 148.71 75.34 153.38 85.29 155.38 95.76 C 133.23 101.62 111.04 107.33 88.88 113.14 C 88.62 110.38 89.89 106.66 87.45 104.63 C 82.53 103.22 77.28 104.73 72.28 103.75 C 70.35 103.03 70.58 100.67 70.45 99.01 C 70.19 94.82 71.10 90.44 69.66 86.39 C 64.30 84.59 58.43 86.74 53.11 84.95 C 50.90 81.38 52.42 76.63 51.95 72.60 C 40.22 87.14 36.73 107.52 42.70 125.20 C 40.75 125.70 38.80 126.20 36.85 126.70 C 32.01 112.47 32.67 96.47 38.68 82.69 C 44.73 68.44 56.44 56.76 70.68 50.71 Z" />
</g>
<g id="#010036ff">
<path fill="#010036" opacity="1.00" d=" M 88.88 113.14 C 111.04 107.33 133.23 101.62 155.38 95.76 C 158.04 109.63 155.59 124.34 148.75 136.68 C 140.73 151.60 126.09 162.64 109.67 166.63 C 94.84 170.44 78.67 168.12 65.31 160.73 C 51.99 153.47 41.76 141.02 36.85 126.70 C 38.80 126.20 40.75 125.70 42.70 125.20 C 47.62 138.62 57.49 150.31 70.42 156.59 C 84.72 163.78 102.20 164.24 116.86 157.80 C 119.89 156.40 123.13 155.14 125.58 152.80 C 125.91 149.25 126.25 145.43 125.06 142.01 C 122.18 139.96 118.28 141.16 114.98 140.90 C 112.58 140.68 109.34 141.59 107.71 139.28 C 106.70 134.30 107.99 129.14 106.99 124.15 C 105.82 121.95 103.00 122.69 100.97 122.46 C 97.41 122.24 93.63 123.13 90.23 121.89 C 87.97 119.69 89.12 115.99 88.88 113.14 Z" />
</g>
<g id="#004f9dff">
<path fill="#010036" opacity="0.5" d=" M 42.70 125.20 C 58.07 121.09 73.47 117.11 88.88 113.14 C 89.12 115.99 87.97 119.69 90.23 121.89 C 93.63 123.13 97.41 122.24 100.97 122.46 C 103.00 122.69 105.82 121.95 106.99 124.15 C 107.99 129.14 106.70 134.30 107.71 139.28 C 109.34 141.59 112.58 140.68 114.98 140.90 C 118.28 141.16 122.18 139.96 125.06 142.01 C 126.25 145.43 125.91 149.25 125.58 152.80 C 123.13 155.14 119.89 156.40 116.86 157.80 C 102.20 164.24 84.72 163.78 70.42 156.59 C 57.49 150.31 47.62 138.62 42.70 125.20 Z" />
</g>
</svg>
