<?xml version="1.0" encoding="UTF-8" ?>
<!DOCTYPE svg PUBLIC "-//W3C//DTD SVG 1.1//EN" "http://www.w3.org/Graphics/SVG/1.1/DTD/svg11.dtd">
<svg width="802pt" height="547pt" viewBox="0 0 802 547" version="1.1" xmlns="http://www.w3.org/2000/svg">
<g id="#ffff00ff">
</g>
<g id="#fffffeff">
<path fill="#fffffe" opacity="1.00" d=" M 13.26 9.17 C 16.76 8.20 20.44 8.54 24.03 8.49 C 120.67 8.51 217.32 8.47 313.97 8.51 C 322.33 8.11 329.86 15.60 329.49 23.97 C 329.52 121.31 329.50 218.65 329.49 315.99 C 329.66 321.84 326.18 327.56 320.87 330.03 C 317.18 331.85 312.95 331.49 308.97 331.52 C 211.97 331.49 114.98 331.54 17.99 331.49 C 9.62 331.89 2.11 324.34 2.51 315.98 C 2.48 218.66 2.49 121.35 2.52 24.04 C 2.28 17.40 6.86 10.98 13.26 9.17 M 12.68 11.58 C 7.72 13.45 4.45 18.72 4.46 23.96 C 4.39 63.91 4.56 103.87 4.38 143.83 C 7.89 144.03 11.41 144.05 14.93 144.00 C 117.62 144.00 220.32 143.98 323.01 144.01 C 324.54 143.97 326.08 143.87 327.62 143.77 C 327.43 103.83 327.62 63.89 327.54 23.95 C 327.53 18.98 324.65 13.98 320.06 11.89 C 316.01 9.89 311.35 10.68 307.00 10.55 C 212.69 10.56 118.38 10.56 24.07 10.55 C 20.27 10.62 16.29 10.12 12.68 11.58 M 4.70 150.04 C 4.33 204.36 4.71 258.69 4.52 313.01 C 4.53 316.05 4.47 319.27 5.89 322.06 C 7.96 326.66 13.00 329.55 17.97 329.55 C 116.65 329.55 215.34 329.55 314.02 329.55 C 321.29 329.75 327.79 323.29 327.44 315.97 C 327.39 260.67 327.58 205.36 327.33 150.06 C 219.79 149.95 112.24 149.99 4.70 150.04 Z" />
</g>
<g id="#d9d9d9ff">
<path fill="#d9d9d9" opacity="1.00" d=" M 12.68 11.58 C 16.29 10.12 20.27 10.62 24.07 10.55 C 118.38 10.56 212.69 10.56 307.00 10.55 C 311.35 10.68 316.01 9.89 320.06 11.89 C 324.65 13.98 327.53 18.98 327.54 23.95 C 327.62 63.89 327.43 103.83 327.62 143.77 C 326.08 143.87 324.54 143.97 323.01 144.01 C 220.32 143.98 117.62 144.00 14.93 144.00 C 11.41 144.05 7.89 144.03 4.38 143.83 C 4.56 103.87 4.39 63.91 4.46 23.96 C 4.45 18.72 7.72 13.45 12.68 11.58 M 49.00 24.00 C 49.00 32.00 49.00 40.00 49.00 48.00 C 53.51 47.80 58.14 48.53 62.57 47.44 C 67.33 46.04 69.38 40.62 69.05 36.05 C 69.34 31.47 67.39 26.01 62.63 24.52 C 58.17 23.48 53.53 24.20 49.00 24.00 M 73.26 24.01 C 73.28 32.00 73.28 40.00 73.26 47.99 C 79.26 48.01 85.25 48.00 91.24 48.00 C 91.24 46.67 91.24 45.33 91.24 44.00 C 86.73 44.00 82.23 44.00 77.73 44.00 C 77.73 41.67 77.73 39.33 77.73 37.00 C 81.73 37.00 85.73 37.01 89.73 37.00 C 89.73 35.66 89.73 34.33 89.73 33.00 C 85.73 33.00 81.73 33.00 77.73 33.00 C 77.73 31.33 77.73 29.67 77.73 28.00 C 82.06 28.00 86.40 28.01 90.73 28.00 C 90.73 26.67 90.73 25.34 90.73 24.01 C 84.91 24.00 79.09 23.99 73.26 24.01 M 95.27 24.00 C 95.28 32.00 95.28 40.00 95.27 48.00 C 96.75 48.00 98.23 48.00 99.72 48.00 C 99.83 41.94 99.89 35.87 100.29 29.82 C 101.85 35.81 103.16 41.87 104.52 47.92 C 106.01 47.96 107.51 48.00 109.01 48.04 C 110.50 41.90 111.79 35.70 113.49 29.61 C 113.80 35.75 113.75 41.89 114.04 48.03 C 115.53 48.00 117.02 47.97 118.51 47.94 C 118.44 39.98 118.44 32.02 118.51 24.06 C 116.09 24.00 113.66 23.99 111.24 24.02 C 109.81 29.41 108.51 34.84 106.77 40.14 C 105.33 34.80 103.81 29.48 102.50 24.10 C 100.09 24.01 97.68 23.98 95.27 24.00 M 129.37 24.12 C 126.69 32.16 123.56 40.05 120.76 48.05 C 122.38 47.99 124.00 47.94 125.63 47.89 C 126.15 46.27 126.68 44.65 127.21 43.04 C 130.66 42.98 134.10 42.99 137.55 43.05 C 138.06 44.70 138.59 46.35 139.10 48.00 C 140.84 48.00 142.57 48.00 144.32 48.00 C 141.42 40.00 138.52 32.01 135.70 23.99 C 133.59 23.99 131.47 24.02 129.37 24.12 M 147.53 24.00 C 147.53 32.00 147.53 40.00 147.53 48.00 C 149.02 48.00 150.51 48.00 152.00 48.00 C 152.02 42.88 151.95 37.76 152.06 32.65 C 155.20 37.71 158.31 42.80 161.31 47.95 C 162.95 47.98 164.59 48.00 166.24 48.02 C 166.24 40.01 166.24 32.01 166.24 24.00 C 164.74 24.00 163.25 24.00 161.76 24.00 C 161.76 29.34 161.75 34.68 161.78 40.02 C 158.47 34.71 155.26 29.35 152.04 23.99 C 150.54 23.99 149.03 24.00 147.53 24.00 M 171.53 24.00 C 171.53 32.00 171.53 40.00 171.53 48.00 C 176.17 47.78 180.94 48.60 185.47 47.32 C 189.99 45.71 191.87 40.47 191.52 36.01 C 191.86 31.37 189.79 25.84 184.93 24.45 C 180.53 23.54 175.99 24.18 171.53 24.00 M 202.00 24.00 C 199.14 32.01 196.14 39.98 193.28 47.99 C 194.85 48.00 196.42 48.00 197.99 48.00 C 198.59 46.33 199.19 44.66 199.79 43.00 C 203.17 43.00 206.55 43.00 209.93 43.00 C 210.53 44.68 211.12 46.37 211.72 48.05 C 213.40 48.03 215.09 48.00 216.78 47.97 C 213.91 39.98 211.07 31.98 208.15 24.00 C 206.10 24.00 204.05 24.00 202.00 24.00 M 220.00 23.99 C 220.00 31.99 220.00 40.00 220.00 48.00 C 221.49 48.00 222.97 48.00 224.47 48.00 C 224.48 42.90 224.42 37.79 224.50 32.69 C 227.79 37.70 230.76 42.91 233.90 48.01 C 235.51 48.00 237.12 48.00 238.74 47.99 C 238.72 39.99 238.72 32.00 238.74 24.00 C 237.24 24.00 235.75 24.00 234.26 24.01 C 234.25 29.27 234.33 34.54 234.21 39.80 C 230.85 34.64 227.75 29.32 224.62 24.02 C 223.08 24.01 221.54 24.00 220.00 23.99 M 243.27 24.00 C 243.26 25.34 243.27 26.67 243.27 28.00 C 245.60 28.00 247.94 28.00 250.27 28.00 C 250.27 34.67 250.28 41.33 250.27 47.99 C 251.84 48.00 253.42 48.00 255.00 48.00 C 255.00 41.34 255.00 34.67 255.00 28.00 C 257.33 28.00 259.66 28.00 262.00 28.00 C 262.00 26.67 262.00 25.33 262.00 24.00 C 255.75 24.00 249.51 23.99 243.27 24.00 M 264.53 24.00 C 264.53 32.00 264.53 40.00 264.53 48.00 C 270.51 48.00 276.49 48.00 282.47 48.00 C 282.46 46.67 282.46 45.33 282.46 44.00 C 277.97 44.00 273.49 44.00 269.00 44.00 C 269.00 41.66 269.00 39.33 269.00 37.00 C 273.00 37.00 277.00 37.00 281.00 37.00 C 281.00 35.67 281.00 34.33 281.00 33.00 C 277.00 33.00 273.00 33.00 269.00 33.00 C 269.00 31.33 269.00 29.67 269.00 28.00 C 273.33 28.00 277.67 28.00 282.00 28.00 C 282.00 26.67 282.00 25.33 282.00 24.00 C 276.18 24.00 270.36 24.00 264.53 24.00 M 83.38 64.10 C 80.69 72.15 77.56 80.05 74.76 88.06 C 76.39 87.99 78.02 87.93 79.65 87.88 C 80.16 86.26 80.68 84.64 81.21 83.03 C 84.65 82.98 88.10 82.99 91.54 83.05 C 92.06 84.70 92.58 86.35 93.10 88.00 C 94.84 88.00 96.58 88.00 98.32 88.00 C 95.42 80.00 92.53 72.00 89.69 63.98 C 87.58 63.99 85.48 64.02 83.38 64.10 M 101.21 70.35 C 99.85 74.17 99.76 78.66 101.49 82.38 C 104.23 88.21 112.88 89.94 117.68 85.71 C 119.42 84.27 120.13 82.06 121.05 80.08 C 119.53 79.74 118.00 79.40 116.48 79.05 C 115.80 82.31 112.62 85.08 109.19 83.75 C 104.36 82.04 104.76 75.75 105.70 71.70 C 107.23 66.59 115.19 66.90 116.50 72.05 C 117.99 71.59 119.49 71.13 120.98 70.65 C 119.91 68.89 118.99 66.90 117.22 65.72 C 111.96 62.17 103.48 64.17 101.21 70.35 M 124.54 64.00 C 124.53 65.33 124.53 66.66 124.54 68.00 C 126.87 68.00 129.21 68.01 131.55 68.03 C 131.51 74.69 131.54 81.34 131.53 88.00 C 133.10 88.00 134.67 88.00 136.24 88.00 C 136.24 81.33 136.24 74.67 136.23 68.01 C 138.57 68.00 140.90 68.00 143.24 68.00 C 143.24 66.66 143.24 65.33 143.24 64.00 C 137.00 64.00 130.77 64.00 124.54 64.00 M 145.76 64.00 C 145.76 72.00 145.76 80.00 145.76 88.00 C 147.25 88.00 148.74 88.00 150.24 88.00 C 150.24 80.00 150.24 72.00 150.24 64.00 C 148.74 64.00 147.25 64.00 145.76 64.00 M 152.54 63.99 C 155.16 71.95 157.95 79.86 160.41 87.87 C 162.25 87.95 164.09 87.99 165.93 88.05 C 168.76 80.02 171.57 72.00 174.45 63.99 C 172.74 64.00 171.03 64.01 169.32 64.03 C 167.32 69.85 165.97 75.94 163.28 81.49 C 161.41 75.68 159.53 69.87 157.70 64.05 C 155.98 64.02 154.26 64.00 152.54 63.99 M 183.38 64.60 C 176.46 66.77 174.76 75.65 177.23 81.70 C 180.33 89.57 192.80 90.18 197.20 83.19 C 199.70 78.88 199.65 73.16 197.19 68.83 C 194.38 64.28 188.24 63.04 183.38 64.60 M 212.00 64.00 C 212.00 72.00 212.00 80.00 212.00 88.00 C 216.53 87.80 221.19 88.54 225.63 87.42 C 230.39 85.97 232.40 80.53 232.05 75.95 C 232.38 71.18 230.08 65.46 224.98 64.34 C 220.69 63.63 216.32 64.14 212.00 64.00 M 236.53 64.00 C 236.53 72.00 236.53 80.00 236.53 88.00 C 242.51 88.00 248.49 88.00 254.46 88.00 C 254.46 86.67 254.46 85.33 254.47 84.00 C 249.98 84.00 245.49 84.00 241.00 84.00 C 241.00 81.67 241.00 79.33 241.00 77.00 C 245.00 77.00 249.00 77.00 253.00 77.00 C 253.00 75.67 253.00 74.33 253.00 73.00 C 249.00 73.00 245.00 73.00 241.00 73.00 C 241.00 71.33 241.00 69.67 241.00 68.00 C 245.33 68.00 249.67 68.00 254.00 68.00 C 254.00 66.67 254.00 65.33 254.00 64.00 C 248.18 64.00 242.36 64.00 236.53 64.00 M 97.54 104.00 C 97.53 112.00 97.53 120.00 97.53 128.00 C 103.51 128.00 109.48 128.00 115.46 128.00 C 115.46 126.67 115.46 125.33 115.47 124.00 C 110.98 124.00 106.49 124.00 102.00 124.00 C 102.00 121.67 102.00 119.33 102.00 117.00 C 106.00 117.00 110.00 117.00 114.00 117.00 C 114.00 115.67 114.00 114.33 114.00 113.00 C 110.00 113.00 106.00 113.00 102.00 113.00 C 102.00 111.33 102.00 109.67 102.00 108.00 C 106.33 108.00 110.67 108.00 115.00 108.00 C 115.00 106.67 115.00 105.33 115.00 104.00 C 109.18 104.00 103.36 104.00 97.54 104.00 M 119.54 104.00 C 119.53 112.00 119.53 120.00 119.53 128.00 C 121.02 128.00 122.50 128.00 123.99 128.00 C 124.06 121.95 124.23 115.89 124.40 109.84 C 126.28 115.79 127.31 121.96 128.84 128.00 C 130.31 128.00 131.77 128.00 133.24 128.00 C 134.73 121.91 136.10 115.78 137.62 109.70 C 138.13 115.79 137.95 121.90 138.32 128.00 C 139.79 128.00 141.26 128.00 142.73 128.00 C 142.72 120.00 142.72 112.00 142.73 104.00 C 140.30 103.98 137.87 104.00 135.44 104.08 C 134.13 109.45 132.65 114.76 131.16 120.08 C 129.38 114.81 128.14 109.39 126.70 104.03 C 124.31 104.00 121.92 103.99 119.54 104.00 M 147.53 104.00 C 147.53 112.00 147.53 120.00 147.53 128.00 C 149.02 128.00 150.51 128.00 152.00 128.00 C 152.00 125.00 152.00 122.01 152.00 119.01 C 155.17 118.97 158.47 119.28 161.53 118.23 C 167.13 115.92 166.92 106.07 160.92 104.44 C 156.52 103.55 151.99 104.17 147.53 104.00 M 169.76 104.00 C 169.76 112.00 169.76 120.00 169.76 128.00 C 175.33 128.00 180.90 128.00 186.47 128.00 C 186.46 126.66 186.46 125.33 186.46 124.00 C 182.46 124.00 178.45 124.01 174.44 123.96 C 174.49 117.31 174.46 110.65 174.47 104.00 C 172.90 104.00 171.33 104.00 169.76 104.00 M 190.26 104.01 C 190.28 112.00 190.27 120.00 190.27 127.99 C 196.26 128.01 202.25 128.00 208.24 128.00 C 208.23 126.67 208.23 125.33 208.24 124.00 C 203.73 124.00 199.23 124.00 194.73 124.00 C 194.73 121.66 194.73 119.33 194.73 117.00 C 198.73 117.00 202.73 117.01 206.73 116.99 C 206.73 115.66 206.73 114.33 206.73 113.00 C 202.73 113.00 198.73 113.00 194.73 113.00 C 194.73 111.33 194.73 109.67 194.73 108.00 C 199.06 108.00 203.40 108.01 207.74 107.99 C 207.73 106.66 207.73 105.33 207.73 104.00 C 201.90 104.00 196.08 103.99 190.26 104.01 M 218.43 104.66 C 211.45 107.07 209.93 116.24 212.75 122.29 C 215.33 127.80 222.70 129.31 227.95 127.01 C 236.51 123.27 236.47 108.76 227.96 104.99 C 224.96 103.70 221.51 103.68 218.43 104.66 Z" />
<path fill="#d9d9d9" opacity="1.00" d=" M 53.73 27.98 C 56.93 28.22 61.58 27.07 63.27 30.71 C 64.64 33.98 64.53 37.82 63.45 41.17 C 61.95 45.09 56.97 43.74 53.73 44.01 C 53.73 38.67 53.73 33.32 53.73 27.98 Z" />
<path fill="#d9d9d9" opacity="1.00" d=" M 176.23 27.99 C 179.57 28.13 184.39 27.15 185.96 31.06 C 187.11 34.65 187.25 38.97 185.31 42.31 C 183.07 44.86 179.21 43.75 176.23 44.00 C 176.24 38.66 176.24 33.33 176.23 27.99 Z" />
<path fill="#d9d9d9" opacity="1.00" d=" M 204.82 27.98 C 206.18 31.62 207.43 35.30 208.63 39.00 C 206.12 39.00 203.60 38.99 201.09 38.97 C 202.41 35.33 203.68 31.68 204.82 27.98 Z" />
<path fill="#d9d9d9" opacity="1.00" d=" M 128.63 38.99 C 129.89 35.30 131.18 31.62 132.41 27.92 C 133.61 31.62 134.95 35.27 136.11 38.99 C 133.61 39.00 131.12 39.00 128.63 38.99 Z" />
<path fill="#d9d9d9" opacity="1.00" d=" M 186.05 68.14 C 189.38 67.21 193.22 69.39 193.75 72.88 C 194.25 76.18 194.47 80.38 191.53 82.67 C 188.54 85.29 183.15 84.00 181.83 80.16 C 180.39 76.01 180.77 69.25 186.05 68.14 Z" />
<path fill="#d9d9d9" opacity="1.00" d=" M 216.73 67.98 C 219.93 68.23 224.59 67.07 226.27 70.71 C 227.63 73.97 227.52 77.79 226.47 81.12 C 225.00 85.09 219.98 83.75 216.73 84.01 C 216.73 78.67 216.73 73.32 216.73 67.98 Z" />
<path fill="#d9d9d9" opacity="1.00" d=" M 82.63 78.99 C 83.89 75.30 85.19 71.62 86.39 67.91 C 87.62 71.61 88.95 75.27 90.11 78.99 C 87.61 79.00 85.12 79.00 82.63 78.99 Z" />
<path fill="#d9d9d9" opacity="1.00" d=" M 152.00 107.98 C 154.91 108.17 160.18 107.00 160.59 111.17 C 160.85 115.86 155.07 114.96 152.00 115.02 C 152.00 112.67 152.00 110.33 152.00 107.98 Z" />
<path fill="#d9d9d9" opacity="1.00" d=" M 220.37 108.40 C 223.53 107.14 227.78 108.58 228.75 112.04 C 229.79 115.78 229.79 120.91 226.06 123.19 C 222.60 125.34 217.56 123.26 216.74 119.23 C 215.94 115.45 216.14 110.06 220.37 108.40 Z" />
<path fill="#d9d9d9" opacity="1.00" d=" M 4.70 150.04 C 112.24 149.99 219.79 149.95 327.33 150.06 C 327.58 205.36 327.39 260.67 327.44 315.97 C 327.79 323.29 321.29 329.75 314.02 329.55 C 215.34 329.55 116.65 329.55 17.97 329.55 C 13.00 329.55 7.96 326.66 5.89 322.06 C 4.47 319.27 4.53 316.05 4.52 313.01 C 4.71 258.69 4.33 204.36 4.70 150.04 M 85.00 176.00 C 85.00 188.33 85.00 200.67 85.00 213.00 C 86.33 213.00 87.67 213.00 89.00 213.00 C 89.00 200.67 89.00 188.33 89.00 176.00 C 87.67 176.00 86.33 176.00 85.00 176.00 M 242.00 176.00 C 242.00 178.00 242.00 180.00 242.00 182.00 C 244.00 182.00 246.00 182.00 248.00 182.00 C 248.00 180.00 248.00 178.00 248.00 176.00 C 246.00 176.00 244.00 176.00 242.00 176.00 M 30.00 179.00 C 30.00 190.33 30.00 201.67 30.00 213.00 C 31.42 213.00 32.84 213.00 34.26 213.00 C 34.25 208.39 34.26 203.79 34.25 199.19 C 39.39 199.35 45.02 199.48 49.42 196.38 C 54.39 192.89 54.44 184.15 48.99 181.10 C 43.19 177.89 36.32 179.32 30.00 179.00 M 176.18 179.00 C 171.76 190.34 167.50 201.74 162.92 213.00 C 165.19 212.99 167.46 213.00 169.74 213.00 C 170.66 210.11 171.75 207.28 172.97 204.51 C 177.05 204.53 181.14 204.53 185.22 204.49 C 186.35 207.26 187.40 210.05 188.33 212.89 C 190.61 212.99 192.89 213.02 195.17 213.02 C 190.55 201.76 186.29 190.34 181.85 179.00 C 179.96 179.00 178.07 179.00 176.18 179.00 M 223.50 180.99 C 223.54 183.29 223.58 185.59 223.64 187.90 C 222.09 187.93 220.54 187.96 219.00 188.01 C 219.00 189.66 219.00 191.31 219.00 192.97 C 220.54 193.03 222.09 193.07 223.64 193.11 C 223.59 197.71 223.37 202.32 223.67 206.92 C 223.76 208.83 224.63 210.81 226.34 211.79 C 229.52 213.75 233.40 212.88 236.90 212.73 C 236.94 210.98 236.98 209.24 237.04 207.50 C 234.73 207.71 231.86 208.88 230.05 206.81 C 229.24 202.26 229.85 197.60 229.67 193.00 C 232.05 193.00 234.43 193.00 236.81 193.00 C 236.81 191.33 236.80 189.67 236.80 188.00 C 234.44 187.99 232.07 188.00 229.71 188.00 C 229.69 185.68 229.69 183.36 229.70 181.05 C 227.63 181.01 225.56 181.00 223.50 180.99 M 203.21 189.18 C 196.88 193.70 196.17 204.01 201.33 209.66 C 205.52 213.57 211.81 213.71 217.00 212.01 C 217.00 210.29 217.00 208.57 217.00 206.85 C 214.45 207.47 211.73 208.50 209.12 207.59 C 202.79 205.60 202.55 194.82 208.85 192.66 C 211.45 191.50 214.26 192.45 216.86 193.04 C 216.81 191.38 216.75 189.73 216.69 188.08 C 212.30 186.42 207.20 186.59 203.21 189.18 M 280.95 188.80 C 280.97 190.35 280.99 191.91 281.01 193.46 C 284.53 192.47 288.34 191.25 291.97 192.42 C 293.91 193.04 294.22 195.32 295.04 196.92 C 290.84 196.65 286.06 195.65 282.39 198.32 C 277.84 201.21 277.83 208.80 282.42 211.64 C 286.31 214.19 291.61 213.13 294.88 210.04 C 294.66 213.52 298.84 211.99 301.00 212.35 C 300.92 206.54 301.15 200.72 300.89 194.91 C 300.74 191.65 298.29 188.83 295.24 187.84 C 290.57 186.26 285.43 186.95 280.95 188.80 M 60.08 189.15 C 60.05 189.98 60.01 191.64 59.99 192.48 C 63.65 191.94 67.86 190.61 71.24 192.80 C 73.22 194.08 72.96 196.63 73.11 198.68 C 69.46 197.67 65.34 197.10 61.79 198.77 C 57.62 200.82 56.80 206.93 59.63 210.41 C 62.52 213.82 68.17 213.90 71.61 211.30 L 72.02 210.67 C 73.23 212.24 75.16 212.40 76.99 212.47 C 76.95 206.26 77.12 200.05 76.89 193.84 C 74.52 186.92 65.81 187.25 60.08 189.15 M 100.70 192.08 C 100.55 191.26 100.23 189.63 100.07 188.81 C 99.31 188.80 97.78 188.78 97.02 188.76 C 97.14 196.84 97.14 204.92 97.02 213.00 C 98.34 213.00 99.66 213.00 100.98 213.00 C 100.93 207.32 100.72 201.63 101.11 195.97 C 102.27 192.62 106.47 190.44 109.87 191.75 C 111.85 192.66 112.60 194.92 112.58 196.95 C 112.68 202.30 112.57 207.65 112.60 213.00 C 113.57 213.00 115.50 213.00 116.46 213.00 C 116.57 207.16 116.20 201.30 116.62 195.48 C 118.23 193.08 120.93 191.00 123.98 191.38 C 126.35 191.45 128.01 193.66 128.01 195.92 C 128.38 201.60 128.11 207.31 128.12 213.00 C 129.41 213.00 130.71 213.00 132.00 213.00 C 131.96 207.30 132.07 201.61 131.96 195.92 C 132.00 192.48 129.73 188.81 126.14 188.29 C 121.97 187.20 117.99 189.59 115.61 192.87 C 114.52 190.99 113.27 188.83 110.93 188.42 C 107.06 187.07 103.17 189.17 100.70 192.08 M 141.07 189.16 C 141.05 189.99 141.01 191.65 140.99 192.47 C 144.65 192.00 148.87 190.53 152.23 192.79 C 154.21 194.07 153.97 196.62 154.13 198.67 C 150.48 197.65 146.36 197.11 142.81 198.76 C 138.42 200.90 137.72 207.54 141.08 210.89 C 144.10 213.82 149.33 213.77 152.60 211.31 L 153.03 210.67 C 154.23 212.24 156.16 212.41 157.99 212.47 C 157.95 206.27 158.12 200.05 157.89 193.85 C 155.56 186.93 146.78 187.19 141.07 189.16 M 242.00 188.00 C 242.00 196.33 242.00 204.67 242.00 213.00 C 244.00 213.00 246.01 213.00 248.02 213.00 C 247.99 204.66 248.00 196.33 248.00 187.99 C 246.00 188.00 244.00 188.00 242.00 188.00 M 251.90 188.00 C 255.05 196.31 258.39 204.54 261.32 212.93 C 263.45 213.00 265.59 213.00 267.73 212.93 C 270.67 204.55 273.97 196.30 277.10 187.99 C 274.86 187.98 272.62 188.01 270.39 188.10 C 268.53 193.90 266.56 199.68 264.47 205.40 C 262.58 199.71 260.74 193.98 258.54 188.42 C 256.59 187.46 254.06 188.21 251.90 188.00 M 34.23 239.00 C 32.06 256.95 29.88 274.91 28.03 292.90 C 31.97 293.14 35.92 292.91 39.85 292.65 C 41.95 274.77 44.38 256.92 46.07 239.00 C 42.13 239.00 38.18 239.00 34.23 239.00 M 102.37 240.44 C 98.27 242.27 96.17 246.82 95.71 251.09 C 94.16 264.99 92.07 278.83 90.04 292.67 C 93.66 293.00 97.30 293.19 100.93 292.93 C 101.18 292.67 101.69 292.15 101.94 291.89 C 103.07 282.61 104.73 273.40 105.82 264.11 C 109.29 264.12 112.76 264.09 116.24 264.16 C 117.23 261.56 117.40 258.77 117.71 256.04 C 114.18 255.70 110.63 255.56 107.08 255.66 C 106.95 252.54 107.34 249.38 109.77 247.16 C 112.93 247.25 116.10 247.34 119.26 247.56 C 120.04 245.17 120.81 242.76 121.07 240.25 C 114.93 239.11 108.36 238.04 102.37 240.44 M 169.59 239.39 C 167.12 257.23 165.07 275.15 162.82 293.03 C 162.46 295.40 161.84 298.14 159.57 299.42 C 156.21 300.02 152.77 299.97 149.38 300.41 C 149.18 302.83 149.07 305.27 149.01 307.71 C 155.54 307.88 162.67 309.06 168.63 305.68 C 173.51 302.95 174.97 297.01 175.53 291.86 C 177.61 274.23 180.21 256.65 182.09 239.00 C 177.96 239.27 173.50 238.45 169.59 239.39 M 232.96 239.02 C 230.72 254.35 229.28 269.78 227.19 285.13 C 226.79 287.49 226.70 290.66 229.29 291.81 C 233.93 293.85 239.12 294.05 244.11 294.03 C 250.39 294.39 257.55 292.99 261.37 287.49 C 265.97 280.24 266.31 271.19 265.91 262.85 C 265.82 258.30 262.36 254.31 258.01 253.22 C 252.86 252.54 247.59 252.86 242.52 254.00 C 243.39 249.05 244.02 244.06 244.36 239.04 C 240.56 238.98 236.76 238.99 232.96 239.02 M 57.80 254.89 C 55.03 255.36 51.68 256.86 51.56 260.10 C 50.79 271.13 48.45 281.99 47.95 293.04 C 51.74 293.02 55.53 292.75 59.32 292.56 C 60.53 282.30 62.00 272.07 63.01 261.79 C 66.83 260.80 70.81 260.37 74.70 261.22 C 74.94 262.78 75.37 264.34 75.32 265.93 C 74.15 274.80 72.88 283.66 72.05 292.58 C 75.86 292.77 79.68 293.01 83.49 292.73 C 84.54 282.46 86.59 272.28 87.04 261.96 C 87.47 258.18 84.79 254.62 81.10 253.87 C 73.43 251.99 65.41 253.34 57.80 254.89 M 133.46 253.67 C 128.95 254.64 124.54 257.29 122.52 261.58 C 119.24 268.45 118.54 276.33 119.22 283.83 C 119.81 289.05 124.40 293.00 129.49 293.61 C 137.07 294.53 146.07 294.72 151.88 288.91 C 157.28 282.67 157.96 273.90 158.02 266.02 C 158.18 261.36 155.77 256.47 151.29 254.69 C 145.70 252.37 139.31 252.67 133.46 253.67 M 198.44 253.65 C 192.80 254.93 187.63 259.18 186.17 264.90 C 184.39 271.56 183.11 278.66 184.68 285.49 C 186.12 290.78 191.73 293.72 196.91 293.90 C 203.99 294.40 212.29 294.09 217.40 288.42 C 222.60 281.85 223.21 273.00 223.00 264.94 C 223.02 260.61 220.51 256.23 216.37 254.66 C 210.71 252.41 204.34 252.70 198.44 253.65 M 282.89 254.00 C 278.26 255.14 274.38 258.96 273.68 263.75 C 273.12 267.50 272.90 272.27 276.41 274.72 C 280.54 278.41 287.20 276.26 290.98 280.37 C 290.33 282.32 290.06 284.95 287.75 285.68 C 282.50 287.77 276.90 285.36 271.62 284.61 C 270.90 286.99 270.26 289.39 269.86 291.85 C 276.04 293.91 282.63 294.47 289.09 293.78 C 293.01 293.32 296.89 291.60 299.42 288.50 C 302.64 284.63 302.81 279.03 301.61 274.37 C 298.53 268.82 291.24 269.58 285.97 267.85 C 285.05 265.86 284.48 263.03 286.84 261.80 C 291.73 259.22 297.36 261.46 302.54 261.69 C 303.10 259.44 303.64 257.18 304.16 254.92 C 297.32 252.84 289.86 252.19 282.89 254.00 Z" />
<path fill="#d9d9d9" opacity="1.00" d=" M 34.31 182.86 C 38.74 183.16 44.04 181.95 47.59 185.34 C 49.24 188.05 48.78 192.27 45.81 193.85 C 42.29 195.73 38.13 195.50 34.27 195.32 C 34.25 191.16 34.23 187.01 34.31 182.86 Z" />
<path fill="#d9d9d9" opacity="1.00" d=" M 174.85 199.16 C 176.43 195.43 177.24 191.38 179.29 187.87 C 180.48 191.69 181.86 195.44 183.29 199.18 C 180.48 199.18 177.66 199.17 174.85 199.16 Z" />
<path fill="#d9d9d9" opacity="1.00" d=" M 63.11 202.07 C 66.24 200.48 69.77 200.98 73.02 201.90 C 73.02 203.56 73.02 205.23 73.04 206.90 C 70.38 209.31 66.61 210.60 63.23 208.86 C 61.94 206.71 61.81 204.25 63.11 202.07 Z" />
<path fill="#d9d9d9" opacity="1.00" d=" M 144.12 202.05 C 147.26 200.49 150.78 200.99 154.02 201.89 C 154.02 203.56 154.02 205.23 154.04 206.90 C 151.38 209.30 147.62 210.60 144.24 208.89 C 142.95 206.73 142.79 204.24 144.12 202.05 Z" />
<path fill="#d9d9d9" opacity="1.00" d=" M 286.29 202.46 C 288.61 200.40 291.78 201.28 294.54 201.62 C 294.55 202.98 294.60 204.34 294.68 205.70 C 292.94 206.78 291.24 208.40 289.03 208.05 C 286.13 208.53 284.10 204.50 286.29 202.46 Z" />
<path fill="#d9d9d9" opacity="1.00" d=" M 133.21 264.22 C 134.62 260.64 139.00 260.79 142.19 260.52 C 143.45 261.42 144.72 262.31 145.98 263.20 C 145.92 269.69 146.38 276.55 143.71 282.63 C 141.47 288.21 130.51 287.79 130.57 281.04 C 130.88 275.40 131.08 269.53 133.21 264.22 Z" />
<path fill="#d9d9d9" opacity="1.00" d=" M 201.27 261.32 C 204.81 259.69 210.55 260.60 211.43 265.00 C 211.38 270.74 210.89 276.62 209.07 282.09 C 207.24 288.16 195.48 288.03 195.68 280.94 C 195.53 277.21 196.27 273.51 196.79 269.84 C 197.39 266.70 197.96 262.77 201.27 261.32 Z" />
<path fill="#d9d9d9" opacity="1.00" d=" M 241.75 261.61 C 245.56 260.87 250.38 259.36 253.61 262.33 C 255.47 266.35 254.22 270.94 253.74 275.15 C 253.11 278.74 252.68 283.06 249.36 285.26 C 246.19 287.11 242.39 286.19 238.96 285.83 C 239.55 277.72 240.70 269.67 241.75 261.61 Z" />
</g>
<g id="#030203ff">
<path fill="#030203" opacity="1.00" d=" M 49.00 24.00 C 53.53 24.20 58.17 23.48 62.63 24.52 C 67.39 26.01 69.34 31.47 69.05 36.05 C 69.38 40.62 67.33 46.04 62.57 47.44 C 58.14 48.53 53.51 47.80 49.00 48.00 C 49.00 40.00 49.00 32.00 49.00 24.00 M 53.73 27.98 C 53.73 33.32 53.73 38.67 53.73 44.01 C 56.97 43.74 61.95 45.09 63.45 41.17 C 64.53 37.82 64.64 33.98 63.27 30.71 C 61.58 27.07 56.93 28.22 53.73 27.98 Z" />
<path fill="#030203" opacity="1.00" d=" M 73.26 24.01 C 79.09 23.99 84.91 24.00 90.73 24.01 C 90.73 25.34 90.73 26.67 90.73 28.00 C 86.40 28.01 82.06 28.00 77.73 28.00 C 77.73 29.67 77.73 31.33 77.73 33.00 C 81.73 33.00 85.73 33.00 89.73 33.00 C 89.73 34.33 89.73 35.66 89.73 37.00 C 85.73 37.01 81.73 37.00 77.73 37.00 C 77.73 39.33 77.73 41.67 77.73 44.00 C 82.23 44.00 86.73 44.00 91.24 44.00 C 91.24 45.33 91.24 46.67 91.24 48.00 C 85.25 48.00 79.26 48.01 73.26 47.99 C 73.28 40.00 73.28 32.00 73.26 24.01 Z" />
<path fill="#030203" opacity="1.00" d=" M 95.27 24.00 C 97.68 23.98 100.09 24.01 102.50 24.10 C 103.81 29.48 105.33 34.80 106.77 40.14 C 108.51 34.84 109.81 29.41 111.24 24.02 C 113.66 23.99 116.09 24.00 118.51 24.06 C 118.44 32.02 118.44 39.98 118.51 47.94 C 117.02 47.97 115.53 48.00 114.04 48.03 C 113.75 41.89 113.80 35.75 113.49 29.61 C 111.79 35.70 110.50 41.90 109.01 48.04 C 107.51 48.00 106.01 47.96 104.52 47.92 C 103.16 41.87 101.85 35.81 100.29 29.82 C 99.89 35.87 99.83 41.94 99.72 48.00 C 98.23 48.00 96.75 48.00 95.27 48.00 C 95.28 40.00 95.28 32.00 95.27 24.00 Z" />
<path fill="#030203" opacity="1.00" d=" M 129.37 24.12 C 131.47 24.02 133.59 23.99 135.70 23.99 C 138.52 32.01 141.42 40.00 144.32 48.00 C 142.57 48.00 140.84 48.00 139.10 48.00 C 138.59 46.35 138.06 44.70 137.55 43.05 C 134.10 42.99 130.66 42.98 127.21 43.04 C 126.68 44.65 126.15 46.27 125.63 47.89 C 124.00 47.94 122.38 47.99 120.76 48.05 C 123.56 40.05 126.69 32.16 129.37 24.12 M 128.63 38.99 C 131.12 39.00 133.61 39.00 136.11 38.99 C 134.95 35.27 133.61 31.62 132.41 27.92 C 131.18 31.62 129.89 35.30 128.63 38.99 Z" />
<path fill="#030203" opacity="1.00" d=" M 147.53 24.00 C 149.03 24.00 150.54 23.99 152.04 23.99 C 155.26 29.35 158.47 34.71 161.78 40.02 C 161.75 34.68 161.76 29.34 161.76 24.00 C 163.25 24.00 164.74 24.00 166.24 24.00 C 166.24 32.01 166.24 40.01 166.24 48.02 C 164.59 48.00 162.95 47.98 161.31 47.95 C 158.31 42.80 155.20 37.71 152.06 32.65 C 151.95 37.76 152.02 42.88 152.00 48.00 C 150.51 48.00 149.02 48.00 147.53 48.00 C 147.53 40.00 147.53 32.00 147.53 24.00 Z" />
<path fill="#030203" opacity="1.00" d=" M 171.53 24.00 C 175.99 24.18 180.53 23.54 184.93 24.45 C 189.79 25.84 191.86 31.37 191.52 36.01 C 191.87 40.47 189.99 45.71 185.47 47.32 C 180.94 48.60 176.17 47.78 171.53 48.00 C 171.53 40.00 171.53 32.00 171.53 24.00 M 176.23 27.99 C 176.24 33.33 176.24 38.66 176.23 44.00 C 179.21 43.75 183.07 44.86 185.31 42.31 C 187.25 38.97 187.11 34.65 185.96 31.06 C 184.39 27.15 179.57 28.13 176.23 27.99 Z" />
<path fill="#030203" opacity="1.00" d=" M 202.00 24.00 C 204.05 24.00 206.10 24.00 208.15 24.00 C 211.07 31.98 213.91 39.98 216.78 47.97 C 215.09 48.00 213.40 48.03 211.72 48.05 C 211.12 46.37 210.53 44.68 209.93 43.00 C 206.55 43.00 203.17 43.00 199.79 43.00 C 199.19 44.66 198.59 46.33 197.99 48.00 C 196.42 48.00 194.85 48.00 193.28 47.99 C 196.14 39.98 199.14 32.01 202.00 24.00 M 204.82 27.98 C 203.68 31.68 202.41 35.33 201.09 38.97 C 203.60 38.99 206.12 39.00 208.63 39.00 C 207.43 35.30 206.18 31.62 204.82 27.98 Z" />
<path fill="#030203" opacity="1.00" d=" M 220.00 23.99 C 221.54 24.00 223.08 24.01 224.62 24.02 C 227.75 29.32 230.85 34.64 234.21 39.80 C 234.33 34.54 234.25 29.27 234.26 24.01 C 235.75 24.00 237.24 24.00 238.74 24.00 C 238.72 32.00 238.72 39.99 238.74 47.99 C 237.12 48.00 235.51 48.00 233.90 48.01 C 230.76 42.91 227.79 37.70 224.50 32.69 C 224.42 37.79 224.48 42.90 224.47 48.00 C 222.97 48.00 221.49 48.00 220.00 48.00 C 220.00 40.00 220.00 31.99 220.00 23.99 Z" />
<path fill="#030203" opacity="1.00" d=" M 243.27 24.00 C 249.51 23.99 255.75 24.00 262.00 24.00 C 262.00 25.33 262.00 26.67 262.00 28.00 C 259.66 28.00 257.33 28.00 255.00 28.00 C 255.00 34.67 255.00 41.34 255.00 48.00 C 253.42 48.00 251.84 48.00 250.27 47.99 C 250.28 41.33 250.27 34.67 250.27 28.00 C 247.94 28.00 245.60 28.00 243.27 28.00 C 243.27 26.67 243.26 25.34 243.27 24.00 Z" />
<path fill="#030203" opacity="1.00" d=" M 264.53 24.00 C 270.36 24.00 276.18 24.00 282.00 24.00 C 282.00 25.33 282.00 26.67 282.00 28.00 C 277.67 28.00 273.33 28.00 269.00 28.00 C 269.00 29.67 269.00 31.33 269.00 33.00 C 273.00 33.00 277.00 33.00 281.00 33.00 C 281.00 34.33 281.00 35.67 281.00 37.00 C 277.00 37.00 273.00 37.00 269.00 37.00 C 269.00 39.33 269.00 41.66 269.00 44.00 C 273.49 44.00 277.97 44.00 282.46 44.00 C 282.46 45.33 282.46 46.67 282.47 48.00 C 276.49 48.00 270.51 48.00 264.53 48.00 C 264.53 40.00 264.53 32.00 264.53 24.00 Z" />
<path fill="#030203" opacity="1.00" d=" M 83.38 64.10 C 85.48 64.02 87.58 63.99 89.69 63.98 C 92.53 72.00 95.42 80.00 98.32 88.00 C 96.58 88.00 94.84 88.00 93.10 88.00 C 92.58 86.35 92.06 84.70 91.54 83.05 C 88.10 82.99 84.65 82.98 81.21 83.03 C 80.68 84.64 80.16 86.26 79.65 87.88 C 78.02 87.93 76.39 87.99 74.76 88.06 C 77.56 80.05 80.69 72.15 83.38 64.10 M 82.63 78.99 C 85.12 79.00 87.61 79.00 90.11 78.99 C 88.95 75.27 87.62 71.61 86.39 67.91 C 85.19 71.62 83.89 75.30 82.63 78.99 Z" />
<path fill="#030203" opacity="1.00" d=" M 101.21 70.35 C 103.48 64.17 111.96 62.17 117.22 65.72 C 118.99 66.90 119.91 68.89 120.98 70.65 C 119.49 71.13 117.99 71.59 116.50 72.05 C 115.19 66.90 107.23 66.59 105.70 71.70 C 104.76 75.75 104.36 82.04 109.19 83.75 C 112.62 85.08 115.80 82.31 116.48 79.05 C 118.00 79.40 119.53 79.74 121.05 80.08 C 120.13 82.06 119.42 84.27 117.68 85.71 C 112.88 89.94 104.23 88.21 101.49 82.38 C 99.76 78.66 99.85 74.17 101.21 70.35 Z" />
<path fill="#030203" opacity="1.00" d=" M 124.54 64.00 C 130.77 64.00 137.00 64.00 143.24 64.00 C 143.24 65.33 143.24 66.66 143.24 68.00 C 140.90 68.00 138.57 68.00 136.23 68.01 C 136.24 74.67 136.24 81.33 136.24 88.00 C 134.67 88.00 133.10 88.00 131.53 88.00 C 131.54 81.34 131.51 74.69 131.55 68.03 C 129.21 68.01 126.87 68.00 124.54 68.00 C 124.53 66.66 124.53 65.33 124.54 64.00 Z" />
<path fill="#030203" opacity="1.00" d=" M 145.76 64.00 C 147.25 64.00 148.74 64.00 150.24 64.00 C 150.24 72.00 150.24 80.00 150.24 88.00 C 148.74 88.00 147.25 88.00 145.76 88.00 C 145.76 80.00 145.76 72.00 145.76 64.00 Z" />
<path fill="#030203" opacity="1.00" d=" M 152.54 63.99 C 154.26 64.00 155.98 64.02 157.70 64.05 C 159.53 69.87 161.41 75.68 163.28 81.49 C 165.97 75.94 167.32 69.85 169.32 64.03 C 171.03 64.01 172.74 64.00 174.45 63.99 C 171.57 72.00 168.76 80.02 165.93 88.05 C 164.09 87.99 162.25 87.95 160.41 87.87 C 157.95 79.86 155.16 71.95 152.54 63.99 Z" />
<path fill="#030203" opacity="1.00" d=" M 183.38 64.60 C 188.24 63.04 194.38 64.28 197.19 68.83 C 199.65 73.16 199.70 78.88 197.20 83.19 C 192.80 90.18 180.33 89.57 177.23 81.70 C 174.76 75.65 176.46 66.77 183.38 64.60 M 186.05 68.14 C 180.77 69.25 180.39 76.01 181.83 80.16 C 183.15 84.00 188.54 85.29 191.53 82.67 C 194.47 80.38 194.25 76.18 193.75 72.88 C 193.22 69.39 189.38 67.21 186.05 68.14 Z" />
<path fill="#030203" opacity="1.00" d=" M 212.00 64.00 C 216.32 64.14 220.69 63.63 224.98 64.34 C 230.08 65.46 232.38 71.18 232.05 75.95 C 232.40 80.53 230.39 85.97 225.63 87.42 C 221.19 88.54 216.53 87.80 212.00 88.00 C 212.00 80.00 212.00 72.00 212.00 64.00 M 216.73 67.98 C 216.73 73.32 216.73 78.67 216.73 84.01 C 219.98 83.75 225.00 85.09 226.47 81.12 C 227.52 77.79 227.63 73.97 226.27 70.71 C 224.59 67.07 219.93 68.23 216.73 67.98 Z" />
<path fill="#030203" opacity="1.00" d=" M 236.53 64.00 C 242.36 64.00 248.18 64.00 254.00 64.00 C 254.00 65.33 254.00 66.67 254.00 68.00 C 249.67 68.00 245.33 68.00 241.00 68.00 C 241.00 69.67 241.00 71.33 241.00 73.00 C 245.00 73.00 249.00 73.00 253.00 73.00 C 253.00 74.33 253.00 75.67 253.00 77.00 C 249.00 77.00 245.00 77.00 241.00 77.00 C 241.00 79.33 241.00 81.67 241.00 84.00 C 245.49 84.00 249.98 84.00 254.47 84.00 C 254.46 85.33 254.46 86.67 254.46 88.00 C 248.49 88.00 242.51 88.00 236.53 88.00 C 236.53 80.00 236.53 72.00 236.53 64.00 Z" />
<path fill="#030203" opacity="1.00" d=" M 97.54 104.00 C 103.36 104.00 109.18 104.00 115.00 104.00 C 115.00 105.33 115.00 106.67 115.00 108.00 C 110.67 108.00 106.33 108.00 102.00 108.00 C 102.00 109.67 102.00 111.33 102.00 113.00 C 106.00 113.00 110.00 113.00 114.00 113.00 C 114.00 114.33 114.00 115.67 114.00 117.00 C 110.00 117.00 106.00 117.00 102.00 117.00 C 102.00 119.33 102.00 121.67 102.00 124.00 C 106.49 124.00 110.98 124.00 115.47 124.00 C 115.46 125.33 115.46 126.67 115.46 128.00 C 109.48 128.00 103.51 128.00 97.53 128.00 C 97.53 120.00 97.53 112.00 97.54 104.00 Z" />
<path fill="#030203" opacity="1.00" d=" M 119.54 104.00 C 121.92 103.99 124.31 104.00 126.70 104.03 C 128.14 109.39 129.38 114.81 131.16 120.08 C 132.65 114.76 134.13 109.45 135.44 104.08 C 137.87 104.00 140.30 103.98 142.73 104.00 C 142.72 112.00 142.72 120.00 142.73 128.00 C 141.26 128.00 139.79 128.00 138.32 128.00 C 137.95 121.90 138.13 115.79 137.62 109.70 C 136.10 115.78 134.73 121.91 133.24 128.00 C 131.77 128.00 130.31 128.00 128.84 128.00 C 127.31 121.96 126.28 115.79 124.40 109.84 C 124.23 115.89 124.06 121.95 123.99 128.00 C 122.50 128.00 121.02 128.00 119.53 128.00 C 119.53 120.00 119.53 112.00 119.54 104.00 Z" />
<path fill="#030203" opacity="1.00" d=" M 147.53 104.00 C 151.99 104.17 156.52 103.55 160.92 104.44 C 166.92 106.07 167.13 115.92 161.53 118.23 C 158.47 119.28 155.17 118.97 152.00 119.01 C 152.00 122.01 152.00 125.00 152.00 128.00 C 150.51 128.00 149.02 128.00 147.53 128.00 C 147.53 120.00 147.53 112.00 147.53 104.00 M 152.00 107.98 C 152.00 110.33 152.00 112.67 152.00 115.02 C 155.07 114.96 160.85 115.86 160.59 111.17 C 160.18 107.00 154.91 108.17 152.00 107.98 Z" />
<path fill="#030203" opacity="1.00" d=" M 169.76 104.00 C 171.33 104.00 172.90 104.00 174.47 104.00 C 174.46 110.65 174.49 117.31 174.44 123.96 C 178.45 124.01 182.46 124.00 186.46 124.00 C 186.46 125.33 186.46 126.66 186.47 128.00 C 180.90 128.00 175.33 128.00 169.76 128.00 C 169.76 120.00 169.76 112.00 169.76 104.00 Z" />
<path fill="#030203" opacity="1.00" d=" M 190.26 104.01 C 196.08 103.99 201.90 104.00 207.73 104.00 C 207.73 105.33 207.73 106.66 207.74 107.99 C 203.40 108.01 199.06 108.00 194.73 108.00 C 194.73 109.67 194.73 111.33 194.73 113.00 C 198.73 113.00 202.73 113.00 206.73 113.00 C 206.73 114.33 206.73 115.66 206.73 116.99 C 202.73 117.01 198.73 117.00 194.73 117.00 C 194.73 119.33 194.73 121.66 194.73 124.00 C 199.23 124.00 203.73 124.00 208.24 124.00 C 208.23 125.33 208.23 126.67 208.24 128.00 C 202.25 128.00 196.26 128.01 190.27 127.99 C 190.27 120.00 190.28 112.00 190.26 104.01 Z" />
<path fill="#030203" opacity="1.00" d=" M 218.43 104.66 C 221.51 103.68 224.96 103.70 227.96 104.99 C 236.47 108.76 236.51 123.27 227.95 127.01 C 222.70 129.31 215.33 127.80 212.75 122.29 C 209.93 116.24 211.45 107.07 218.43 104.66 M 220.37 108.40 C 216.14 110.06 215.94 115.45 216.74 119.23 C 217.56 123.26 222.60 125.34 226.06 123.19 C 229.79 120.91 229.79 115.78 228.75 112.04 C 227.78 108.58 223.53 107.14 220.37 108.40 Z" />
<path fill="#030203" opacity="1.00" d=" M 85.00 176.00 C 86.33 176.00 87.67 176.00 89.00 176.00 C 89.00 188.33 89.00 200.67 89.00 213.00 C 87.67 213.00 86.33 213.00 85.00 213.00 C 85.00 200.67 85.00 188.33 85.00 176.00 M 86.43 177.28 C 86.45 188.76 86.51 200.25 86.40 211.74 C 86.70 211.75 87.29 211.77 87.59 211.78 C 87.52 200.29 87.51 188.81 87.59 177.32 C 87.30 177.31 86.72 177.29 86.43 177.28 Z" />
<path fill="#030203" opacity="1.00" d=" M 100.70 192.08 C 103.17 189.17 107.06 187.07 110.93 188.42 C 113.27 188.83 114.52 190.99 115.61 192.87 C 117.99 189.59 121.97 187.20 126.14 188.29 C 129.73 188.81 132.00 192.48 131.96 195.92 C 132.07 201.61 131.96 207.30 132.00 213.00 C 130.71 213.00 129.41 213.00 128.12 213.00 C 128.11 207.31 128.38 201.60 128.01 195.92 C 128.01 193.66 126.35 191.45 123.98 191.38 C 120.93 191.00 118.23 193.08 116.62 195.48 C 116.20 201.30 116.57 207.16 116.46 213.00 C 115.50 213.00 113.57 213.00 112.60 213.00 C 112.57 207.65 112.68 202.30 112.58 196.95 C 112.60 194.92 111.85 192.66 109.87 191.75 C 106.47 190.44 102.27 192.62 101.11 195.97 C 100.72 201.63 100.93 207.32 100.98 213.00 C 99.66 213.00 98.34 213.00 97.02 213.00 C 97.14 204.92 97.14 196.84 97.02 188.76 C 97.78 188.78 99.31 188.80 100.07 188.81 C 100.23 189.63 100.55 191.26 100.70 192.08 Z" />
<path fill="#030203" opacity="1.00" d=" M 75.83 210.23 C 75.82 204.81 74.29 198.88 76.89 193.84 C 77.12 200.05 76.95 206.26 76.99 212.47 C 75.16 212.40 73.23 212.24 72.02 210.67 L 71.97 210.06 C 73.25 210.15 74.54 210.20 75.83 210.23 Z" />
<path fill="#030203" opacity="1.00" d=" M 156.82 210.28 C 156.79 204.84 155.31 198.91 157.89 193.85 C 158.12 200.05 157.95 206.27 157.99 212.47 C 156.16 212.41 154.23 212.24 153.03 210.67 L 152.98 210.07 C 154.26 210.13 155.54 210.18 156.82 210.28 Z" />
</g>
<g id="#e34761ff">
<path fill="#e34761" opacity="1.00" d=" M 242.00 176.00 C 244.00 176.00 246.00 176.00 248.00 176.00 C 248.00 178.00 248.00 180.00 248.00 182.00 C 246.00 182.00 244.00 182.00 242.00 182.00 C 242.00 180.00 242.00 178.00 242.00 176.00 Z" />
<path fill="#e34761" opacity="1.00" d=" M 176.18 179.00 C 178.07 179.00 179.96 179.00 181.85 179.00 C 186.29 190.34 190.55 201.76 195.17 213.02 C 192.89 213.02 190.61 212.99 188.33 212.89 C 187.40 210.05 186.35 207.26 185.22 204.49 C 181.14 204.53 177.05 204.53 172.97 204.51 C 171.75 207.28 170.66 210.11 169.74 213.00 C 167.46 213.00 165.19 212.99 162.92 213.00 C 167.50 201.74 171.76 190.34 176.18 179.00 M 174.85 199.16 C 177.66 199.17 180.48 199.18 183.29 199.18 C 181.86 195.44 180.48 191.69 179.29 187.87 C 177.24 191.38 176.43 195.43 174.85 199.16 Z" />
<path fill="#e34761" opacity="1.00" d=" M 223.50 180.99 C 225.56 181.00 227.63 181.01 229.70 181.05 C 229.69 183.36 229.69 185.68 229.71 188.00 C 232.07 188.00 234.44 187.99 236.80 188.00 C 236.80 189.67 236.81 191.33 236.81 193.00 C 234.43 193.00 232.05 193.00 229.67 193.00 C 229.85 197.60 229.24 202.26 230.05 206.81 C 231.86 208.88 234.73 207.71 237.04 207.50 C 236.98 209.24 236.94 210.98 236.90 212.73 C 233.40 212.88 229.52 213.75 226.34 211.79 C 224.63 210.81 223.76 208.83 223.67 206.92 C 223.37 202.32 223.59 197.71 223.64 193.11 C 222.09 193.07 220.54 193.03 219.00 192.97 C 219.00 191.31 219.00 189.66 219.00 188.01 C 220.54 187.96 222.09 187.93 223.64 187.90 C 223.58 185.59 223.54 183.29 223.50 180.99 Z" />
<path fill="#e34761" opacity="1.00" d=" M 203.21 189.18 C 207.20 186.59 212.30 186.42 216.69 188.08 C 216.75 189.73 216.81 191.38 216.86 193.04 C 214.26 192.45 211.45 191.50 208.85 192.66 C 202.55 194.82 202.79 205.60 209.12 207.59 C 211.73 208.50 214.45 207.47 217.00 206.85 C 217.00 208.57 217.00 210.29 217.00 212.01 C 211.81 213.71 205.52 213.57 201.33 209.66 C 196.17 204.01 196.88 193.70 203.21 189.18 Z" />
<path fill="#e34761" opacity="1.00" d=" M 280.95 188.80 C 285.43 186.95 290.57 186.26 295.24 187.84 C 298.29 188.83 300.74 191.65 300.89 194.91 C 301.15 200.72 300.92 206.54 301.00 212.35 C 298.84 211.99 294.66 213.52 294.88 210.04 C 291.61 213.13 286.31 214.19 282.42 211.64 C 277.83 208.80 277.84 201.21 282.39 198.32 C 286.06 195.65 290.84 196.65 295.04 196.92 C 294.22 195.32 293.91 193.04 291.97 192.42 C 288.34 191.25 284.53 192.47 281.01 193.46 C 280.99 191.91 280.97 190.35 280.95 188.80 M 286.29 202.46 C 284.10 204.50 286.13 208.53 289.03 208.05 C 291.24 208.40 292.94 206.78 294.68 205.70 C 294.60 204.34 294.55 202.98 294.54 201.62 C 291.78 201.28 288.61 200.40 286.29 202.46 Z" />
<path fill="#e34761" opacity="1.00" d=" M 242.00 188.00 C 244.00 188.00 246.00 188.00 248.00 187.99 C 248.00 196.33 247.99 204.66 248.02 213.00 C 246.01 213.00 244.00 213.00 242.00 213.00 C 242.00 204.67 242.00 196.33 242.00 188.00 Z" />
<path fill="#e34761" opacity="1.00" d=" M 251.90 188.00 C 254.06 188.21 256.59 187.46 258.54 188.42 C 260.74 193.98 262.58 199.71 264.47 205.40 C 266.56 199.68 268.53 193.90 270.39 188.10 C 272.62 188.01 274.86 187.98 277.10 187.99 C 273.97 196.30 270.67 204.55 267.73 212.93 C 265.59 213.00 263.45 213.00 261.32 212.93 C 258.39 204.54 255.05 196.31 251.90 188.00 Z" />
</g>
<g id="#181646ff">
<path fill="#181646" opacity="1.00" d=" M 86.43 177.28 C 86.72 177.29 87.30 177.31 87.59 177.32 C 87.51 188.81 87.52 200.29 87.59 211.78 C 87.29 211.77 86.70 211.75 86.40 211.74 C 86.51 200.25 86.45 188.76 86.43 177.28 Z" />
<path fill="#181646" opacity="1.00" d=" M 30.00 179.00 C 36.32 179.32 43.19 177.89 48.99 181.10 C 54.44 184.15 54.39 192.89 49.42 196.38 C 45.02 199.48 39.39 199.35 34.25 199.19 C 34.26 203.79 34.25 208.39 34.26 213.00 C 32.84 213.00 31.42 213.00 30.00 213.00 C 30.00 201.67 30.00 190.33 30.00 179.00 M 34.31 182.86 C 34.23 187.01 34.25 191.16 34.27 195.32 C 38.13 195.50 42.29 195.73 45.81 193.85 C 48.78 192.27 49.24 188.05 47.59 185.34 C 44.04 181.95 38.74 183.16 34.31 182.86 Z" />
<path fill="#181646" opacity="1.00" d=" M 60.08 189.15 C 65.81 187.25 74.52 186.92 76.89 193.84 C 74.29 198.88 75.82 204.81 75.83 210.23 C 74.54 210.20 73.25 210.15 71.97 210.06 L 72.02 210.67 L 71.61 211.30 C 68.17 213.90 62.52 213.82 59.63 210.41 C 56.80 206.93 57.62 200.82 61.79 198.77 C 65.34 197.10 69.46 197.67 73.11 198.68 C 72.96 196.63 73.22 194.08 71.24 192.80 C 67.86 190.61 63.65 191.94 59.99 192.48 C 60.01 191.64 60.05 189.98 60.08 189.15 M 63.11 202.07 C 61.81 204.25 61.94 206.71 63.23 208.86 C 66.61 210.60 70.38 209.31 73.04 206.90 C 73.02 205.23 73.02 203.56 73.02 201.90 C 69.77 200.98 66.24 200.48 63.11 202.07 Z" />
<path fill="#181646" opacity="1.00" d=" M 141.07 189.16 C 146.78 187.19 155.56 186.93 157.89 193.85 C 155.31 198.91 156.79 204.84 156.82 210.28 C 155.54 210.18 154.26 210.13 152.98 210.07 L 153.03 210.67 L 152.60 211.31 C 149.33 213.77 144.10 213.82 141.08 210.89 C 137.72 207.54 138.42 200.90 142.81 198.76 C 146.36 197.11 150.48 197.65 154.13 198.67 C 153.97 196.62 154.21 194.07 152.23 192.79 C 148.87 190.53 144.65 192.00 140.99 192.47 C 141.01 191.65 141.05 189.99 141.07 189.16 M 144.12 202.05 C 142.79 204.24 142.95 206.73 144.24 208.89 C 147.62 210.60 151.38 209.30 154.04 206.90 C 154.02 205.23 154.02 203.56 154.02 201.89 C 150.78 200.99 147.26 200.49 144.12 202.05 Z" />
<path fill="#181646" opacity="1.00" d=" M 34.23 239.00 C 38.18 239.00 42.13 239.00 46.07 239.00 C 44.38 256.92 41.95 274.77 39.85 292.65 C 35.92 292.91 31.97 293.14 28.03 292.90 C 29.88 274.91 32.06 256.95 34.23 239.00 Z" />
<path fill="#181646" opacity="1.00" d=" M 102.37 240.44 C 108.36 238.04 114.93 239.11 121.07 240.25 C 120.81 242.76 120.04 245.17 119.26 247.56 C 116.10 247.34 112.93 247.25 109.77 247.16 C 107.34 249.38 106.95 252.54 107.08 255.66 C 110.63 255.56 114.18 255.70 117.71 256.04 C 117.40 258.77 117.23 261.56 116.24 264.16 C 112.76 264.09 109.29 264.12 105.82 264.11 C 104.73 273.40 103.07 282.61 101.94 291.89 C 101.69 292.15 101.18 292.67 100.93 292.93 C 97.30 293.19 93.66 293.00 90.04 292.67 C 92.07 278.83 94.16 264.99 95.71 251.09 C 96.17 246.82 98.27 242.27 102.37 240.44 Z" />
<path fill="#181646" opacity="1.00" d=" M 169.59 239.39 C 173.50 238.45 177.96 239.27 182.09 239.00 C 180.21 256.65 177.61 274.23 175.53 291.86 C 174.97 297.01 173.51 302.95 168.63 305.68 C 162.67 309.06 155.54 307.88 149.01 307.71 C 149.07 305.27 149.18 302.83 149.38 300.41 C 152.77 299.97 156.21 300.02 159.57 299.42 C 161.84 298.14 162.46 295.40 162.82 293.03 C 165.07 275.15 167.12 257.23 169.59 239.39 Z" />
<path fill="#181646" opacity="1.00" d=" M 232.96 239.02 C 236.76 238.99 240.56 238.98 244.36 239.04 C 244.02 244.06 243.39 249.05 242.52 254.00 C 247.59 252.86 252.86 252.54 258.01 253.22 C 262.36 254.31 265.82 258.30 265.91 262.85 C 266.31 271.19 265.97 280.24 261.37 287.49 C 257.55 292.99 250.39 294.39 244.11 294.03 C 239.12 294.05 233.93 293.85 229.29 291.81 C 226.70 290.66 226.79 287.49 227.19 285.13 C 229.28 269.78 230.72 254.35 232.96 239.02 M 241.75 261.61 C 240.70 269.67 239.55 277.72 238.96 285.83 C 242.39 286.19 246.19 287.11 249.36 285.26 C 252.68 283.06 253.11 278.74 253.74 275.15 C 254.22 270.94 255.47 266.35 253.61 262.33 C 250.38 259.36 245.56 260.87 241.75 261.61 Z" />
<path fill="#181646" opacity="1.00" d=" M 57.80 254.89 C 65.41 253.34 73.43 251.99 81.10 253.87 C 84.79 254.62 87.47 258.18 87.04 261.96 C 86.59 272.28 84.54 282.46 83.49 292.73 C 79.68 293.01 75.86 292.77 72.05 292.58 C 72.88 283.66 74.15 274.80 75.32 265.93 C 75.37 264.34 74.94 262.78 74.70 261.22 C 70.81 260.37 66.83 260.80 63.01 261.79 C 62.00 272.07 60.53 282.30 59.32 292.56 C 55.53 292.75 51.74 293.02 47.95 293.04 C 48.45 281.99 50.79 271.13 51.56 260.10 C 51.68 256.86 55.03 255.36 57.80 254.89 Z" />
<path fill="#181646" opacity="1.00" d=" M 133.46 253.67 C 139.31 252.67 145.70 252.37 151.29 254.69 C 155.77 256.47 158.18 261.36 158.02 266.02 C 157.96 273.90 157.28 282.67 151.88 288.91 C 146.07 294.72 137.07 294.53 129.49 293.61 C 124.40 293.00 119.81 289.05 119.22 283.83 C 118.54 276.33 119.24 268.45 122.52 261.58 C 124.54 257.29 128.95 254.64 133.46 253.67 M 133.21 264.22 C 131.08 269.53 130.88 275.40 130.57 281.04 C 130.51 287.79 141.47 288.21 143.71 282.63 C 146.38 276.55 145.92 269.69 145.98 263.20 C 144.72 262.31 143.45 261.42 142.19 260.52 C 139.00 260.79 134.62 260.64 133.21 264.22 Z" />
<path fill="#181646" opacity="1.00" d=" M 198.44 253.65 C 204.34 252.70 210.71 252.41 216.37 254.66 C 220.51 256.23 223.02 260.61 223.00 264.94 C 223.21 273.00 222.60 281.85 217.40 288.42 C 212.29 294.09 203.99 294.40 196.91 293.90 C 191.73 293.72 186.12 290.78 184.68 285.49 C 183.11 278.66 184.39 271.56 186.17 264.90 C 187.63 259.18 192.80 254.93 198.44 253.65 M 201.27 261.32 C 197.96 262.77 197.39 266.70 196.79 269.84 C 196.27 273.51 195.53 277.21 195.68 280.94 C 195.48 288.03 207.24 288.16 209.07 282.09 C 210.89 276.62 211.38 270.74 211.43 265.00 C 210.55 260.60 204.81 259.69 201.27 261.32 Z" />
<path fill="#181646" opacity="1.00" d=" M 282.89 254.00 C 289.86 252.19 297.32 252.84 304.16 254.92 C 303.64 257.18 303.10 259.44 302.54 261.69 C 297.36 261.46 291.73 259.22 286.84 261.80 C 284.48 263.03 285.05 265.86 285.97 267.85 C 291.24 269.58 298.53 268.82 301.61 274.37 C 302.81 279.03 302.64 284.63 299.42 288.50 C 296.89 291.60 293.01 293.32 289.09 293.78 C 282.63 294.47 276.04 293.91 269.86 291.85 C 270.26 289.39 270.90 286.99 271.62 284.61 C 276.90 285.36 282.50 287.77 287.75 285.68 C 290.06 284.95 290.33 282.32 290.98 280.37 C 287.20 276.26 280.54 278.41 276.41 274.72 C 272.90 272.27 273.12 267.50 273.68 263.75 C 274.38 258.96 278.26 255.14 282.89 254.00 Z" />
</g>
</svg>
