<?xml version="1.0" encoding="UTF-8" ?>
<!DOCTYPE svg PUBLIC "-//W3C//DTD SVG 1.1//EN" "http://www.w3.org/Graphics/SVG/1.1/DTD/svg11.dtd">
<svg width="585pt" height="123pt" viewBox="0 0 585 123" version="1.1" xmlns="http://www.w3.org/2000/svg">
<g id="#00b050ff">
</g>
<g id="#c6dcd4ff" opacity="0.8">
<path fill="#c6dcd4" opacity="1.00" d=" M 7.21 6.15 C 8.80 5.87 10.42 5.90 12.02 5.88 C 65.01 6.04 118.00 5.74 170.99 6.03 C 171.01 43.36 170.99 80.68 171.00 118.00 C 116.03 117.98 61.05 118.04 6.07 117.97 C 5.87 82.30 6.10 46.63 5.96 10.95 C 5.96 9.28 5.86 7.38 7.21 6.15 M 7.87 7.23 C 7.39 12.14 7.60 17.08 7.58 22.01 C 7.56 53.45 7.60 84.90 7.56 116.34 C 61.56 116.52 115.56 116.40 169.56 116.40 C 169.75 80.08 169.70 43.76 169.61 7.45 C 167.73 7.36 165.85 7.27 163.97 7.25 C 111.94 7.23 59.91 7.27 7.87 7.23 Z" />
<path fill="#c6dcd4" opacity="1.00" d=" M 220.89 43.86 C 226.19 41.46 232.25 41.61 237.91 42.26 C 244.69 43.54 250.58 48.82 252.71 55.37 C 255.02 60.70 253.76 66.63 254.08 72.24 C 243.50 72.41 232.90 71.92 222.33 72.51 C 222.88 76.78 225.28 80.92 229.32 82.71 C 236.79 84.49 244.43 82.44 251.20 79.20 C 251.49 83.39 251.55 87.60 251.11 91.78 C 243.59 94.95 235.25 95.21 227.24 94.37 C 219.12 93.33 212.20 87.08 209.64 79.41 C 207.90 75.15 208.23 70.48 208.26 65.99 C 208.11 57.13 212.80 47.90 220.89 43.86 M 212.16 55.14 C 209.41 60.36 209.94 66.37 209.91 72.06 C 209.68 82.16 217.77 91.97 227.98 92.93 C 235.34 93.21 242.97 93.66 249.88 90.61 C 249.98 87.55 250.00 84.49 250.00 81.44 C 243.40 84.21 235.94 86.32 228.86 84.15 C 223.53 82.12 221.04 76.35 220.72 70.99 C 231.40 70.82 242.09 70.95 252.78 70.92 C 253.08 63.52 252.85 55.33 247.64 49.49 C 242.62 43.70 234.27 42.46 227.06 43.71 C 220.43 44.31 214.95 49.35 212.16 55.14 Z" />
<path fill="#c6dcd4" opacity="1.00" d=" M 258.92 42.39 C 263.40 42.55 267.90 42.15 272.36 42.60 C 273.41 43.75 272.81 45.59 273.03 47.01 C 272.99 56.70 272.98 66.38 273.02 76.07 C 272.79 78.91 274.78 81.54 277.29 82.69 C 280.93 83.71 285.29 82.91 287.77 79.88 C 290.00 76.40 290.32 72.12 290.55 68.10 C 290.63 59.54 290.68 50.99 290.68 42.43 C 295.13 42.42 299.58 42.42 304.04 42.42 C 304.88 47.60 304.53 52.85 304.58 58.08 C 304.55 69.83 304.65 81.59 304.51 93.34 C 301.27 94.81 297.56 94.56 294.13 94.07 C 293.10 92.78 292.60 91.18 291.95 89.70 C 286.24 95.41 277.40 95.46 269.99 93.95 C 262.87 92.39 258.72 84.87 258.76 77.98 C 258.83 66.12 258.55 54.25 258.92 42.39 M 260.08 44.02 C 260.12 55.37 260.05 66.72 260.10 78.06 C 260.31 84.80 264.78 91.96 271.87 92.89 C 277.03 92.97 282.71 93.94 287.39 91.19 C 289.52 89.98 291.11 88.06 292.87 86.40 C 293.52 88.61 294.19 90.82 294.94 93.00 C 297.58 92.99 300.23 92.95 302.88 92.86 C 303.10 76.59 302.94 60.31 302.96 44.04 C 299.31 44.01 295.66 44.01 292.01 44.00 C 292.00 52.00 291.99 59.99 292.03 67.98 C 292.03 72.21 291.44 76.60 289.37 80.36 C 286.64 84.17 281.23 85.55 276.86 84.15 C 273.78 82.73 271.38 79.49 271.66 76.00 C 271.57 65.39 271.82 54.77 271.53 44.16 C 267.71 43.98 263.90 43.99 260.08 44.02 Z" />
<path fill="#c6dcd4" opacity="1.00" d=" M 312.71 42.69 C 316.10 42.27 319.53 41.81 322.95 42.20 C 324.93 43.79 324.63 46.82 325.20 49.09 C 327.75 46.03 330.87 43.08 334.89 42.23 C 338.23 41.67 341.63 42.00 344.99 42.13 C 344.98 46.57 345.48 51.13 343.98 55.40 C 339.12 55.15 333.26 54.69 329.74 58.77 C 327.40 60.85 326.83 64.04 326.80 67.02 C 326.56 76.14 326.93 85.28 326.62 94.40 C 321.90 94.30 317.17 94.39 312.45 94.20 C 312.56 77.03 312.09 59.85 312.71 42.69 M 314.00 44.03 C 314.04 60.32 314.01 76.61 314.01 92.90 C 317.70 92.93 321.38 92.99 325.07 93.00 C 325.09 85.00 325.05 77.00 325.06 69.00 C 325.10 64.53 325.80 59.38 329.76 56.60 C 333.39 53.40 338.47 53.84 342.96 53.98 C 343.47 50.57 343.64 47.12 343.68 43.67 C 339.99 43.19 336.09 43.02 332.63 44.59 C 329.45 46.17 327.55 49.30 324.80 51.42 L 324.00 51.24 C 323.39 48.82 323.15 46.33 322.79 43.86 C 319.85 43.76 316.92 43.85 314.00 44.03 Z" />
<path fill="#c6dcd4" opacity="1.00" d=" M 360.42 42.64 C 367.24 41.54 374.92 41.17 380.98 45.05 C 388.31 49.34 391.74 58.06 392.25 66.20 C 392.61 75.13 390.26 85.21 382.59 90.65 C 376.61 95.23 368.62 95.22 361.50 94.26 C 353.00 92.87 346.45 85.55 344.49 77.38 C 342.73 69.99 342.68 61.87 345.85 54.83 C 348.44 48.80 354.07 44.18 360.42 42.64 M 359.38 44.46 C 353.39 46.47 348.39 51.32 346.48 57.38 C 344.52 62.02 344.94 67.14 345.06 72.05 C 345.54 81.57 352.23 91.14 361.94 92.88 C 368.12 93.08 374.91 93.96 380.34 90.30 C 388.32 85.57 390.96 75.64 390.93 66.93 C 390.35 59.61 387.84 51.73 381.58 47.32 C 375.30 42.50 366.72 43.13 359.38 44.46 Z" />
<path fill="#c6dcd4" opacity="1.00" d=" M 396.99 44.09 C 397.64 43.42 398.29 42.75 398.94 42.07 C 402.29 42.02 405.71 41.94 408.97 42.89 C 409.41 44.43 409.86 45.97 410.30 47.51 C 412.70 45.15 415.38 42.66 418.92 42.35 C 423.86 41.79 429.41 41.29 433.78 44.19 C 441.00 48.28 444.05 57.07 443.98 64.98 C 444.34 73.09 443.94 82.05 438.34 88.48 C 433.68 94.63 425.15 95.57 418.05 94.29 C 415.40 93.93 413.29 92.14 411.10 90.77 C 412.38 99.05 411.39 107.45 411.63 115.79 C 406.77 115.96 401.91 115.91 397.05 115.94 C 396.92 91.99 397.05 68.04 396.99 44.09 M 398.58 43.70 C 398.65 67.20 398.54 90.71 398.63 114.21 C 402.41 114.25 406.19 114.25 409.97 114.24 C 409.82 105.21 410.58 96.14 409.36 87.15 C 412.06 89.26 414.56 92.00 418.01 92.83 C 424.16 93.41 431.27 93.74 435.94 88.89 C 442.68 82.49 442.67 72.59 442.28 63.98 C 442.35 57.20 439.72 49.95 433.88 46.09 C 430.05 42.88 424.68 43.55 420.05 43.82 C 415.54 43.78 412.65 47.59 409.49 50.20 C 408.91 48.13 408.34 46.06 407.76 43.98 C 404.70 43.77 401.64 43.72 398.58 43.70 Z" />
<path fill="#c6dcd4" opacity="1.00" d=" M 450.53 46.35 C 458.58 42.07 467.92 41.13 476.87 42.31 C 482.37 43.24 487.53 47.05 489.32 52.44 C 490.39 56.21 491.00 60.12 491.01 64.03 C 491.00 74.10 490.93 84.16 491.04 94.23 C 487.44 94.34 483.85 94.34 480.27 94.39 C 479.54 92.59 478.88 90.76 478.20 88.94 C 472.95 94.92 464.42 95.54 457.07 94.21 C 452.14 93.13 447.64 89.38 446.76 84.24 C 445.49 78.16 445.80 70.45 451.33 66.51 C 458.61 61.28 468.05 60.98 476.68 61.14 C 476.82 57.68 475.19 53.88 471.43 53.24 C 465.79 52.46 460.36 54.93 455.31 57.15 C 453.46 53.67 451.70 50.12 450.53 46.35 M 452.30 47.54 C 453.50 50.09 454.72 52.63 456.04 55.13 C 461.45 52.64 467.73 50.51 473.65 52.38 C 477.70 54.13 478.57 58.81 477.94 62.75 C 471.71 63.08 465.31 62.30 459.31 64.38 C 454.13 65.65 448.62 69.21 448.00 74.96 C 447.57 80.32 447.39 87.12 452.48 90.45 C 456.53 93.93 462.11 93.04 467.03 92.97 C 471.82 92.95 475.43 89.37 478.61 86.23 C 479.57 88.44 480.46 90.68 481.31 92.94 C 483.98 92.92 486.66 92.91 489.34 92.91 C 489.30 82.95 489.35 72.99 489.33 63.03 C 489.16 58.28 488.87 53.04 485.80 49.15 C 482.56 44.89 477.03 43.51 471.94 43.32 C 465.21 43.27 458.17 43.96 452.30 47.54 Z" />
<path fill="#c6dcd4" opacity="1.00" d=" M 495.70 51.51 C 497.53 46.31 502.98 43.35 508.11 42.28 C 516.61 41.39 525.68 41.55 533.26 46.04 C 532.07 49.57 530.64 53.02 529.07 56.40 C 522.52 55.20 515.85 51.05 509.20 54.28 C 509.13 54.95 509.01 56.28 508.94 56.95 C 515.06 61.66 523.16 62.83 529.20 67.69 C 534.25 71.93 534.80 79.58 532.50 85.40 C 529.81 91.28 523.33 94.51 517.04 94.55 C 510.04 94.76 502.50 95.26 496.07 92.02 C 494.34 88.01 495.39 83.52 495.83 79.35 C 502.79 82.24 510.28 84.44 517.89 82.99 C 518.60 81.99 519.36 81.01 519.98 79.94 C 519.87 78.19 518.23 77.09 516.92 76.19 C 511.00 72.62 503.74 71.23 498.71 66.25 C 494.86 62.46 494.44 56.49 495.70 51.51 M 507.11 44.17 C 502.40 45.32 497.08 48.65 496.90 54.01 C 496.76 57.39 496.34 61.29 498.82 63.99 C 503.82 70.11 512.38 71.07 518.54 75.58 C 520.17 76.87 522.03 78.90 521.18 81.14 C 520.36 82.83 518.78 84.28 516.93 84.71 C 510.10 85.94 503.24 84.03 497.01 81.31 C 496.87 84.50 496.83 87.70 496.99 90.89 C 503.27 93.83 510.29 92.95 517.00 92.99 C 522.08 92.99 527.47 90.76 530.20 86.30 C 532.61 82.75 532.33 78.15 531.70 74.11 C 529.90 68.16 523.49 66.00 518.43 63.60 C 514.92 61.84 510.62 61.05 508.07 57.85 C 506.48 55.91 507.96 52.92 510.20 52.33 C 516.28 50.45 522.49 52.85 528.18 54.91 C 529.36 52.16 530.43 49.37 531.21 46.49 C 523.70 43.15 515.11 42.57 507.11 44.17 Z" />
<path fill="#c6dcd4" opacity="1.00" d=" M 536.34 50.38 C 538.12 45.97 542.82 43.67 547.14 42.49 C 555.94 41.16 565.43 41.53 573.32 46.07 C 572.14 49.47 570.36 52.66 569.69 56.23 C 563.40 56.10 557.43 51.30 551.08 53.67 C 549.54 53.97 549.17 55.48 548.70 56.72 C 553.71 60.77 560.14 62.25 565.70 65.38 C 576.00 69.73 576.25 86.45 566.73 91.79 C 563.26 94.00 559.06 94.48 555.04 94.68 C 548.27 94.98 541.35 94.50 535.00 91.95 C 534.99 87.67 534.96 83.39 535.01 79.11 C 542.28 81.91 549.97 84.57 557.88 82.97 C 558.74 81.48 561.21 79.50 559.07 77.95 C 553.69 73.18 546.04 72.19 540.40 67.76 C 535.05 63.97 533.37 56.15 536.34 50.38 M 545.62 44.57 C 542.51 45.86 539.07 47.52 537.81 50.88 C 535.10 55.85 536.30 62.68 540.85 66.15 C 546.15 70.32 553.01 71.73 558.52 75.57 C 560.03 76.74 561.78 78.36 561.36 80.49 C 560.52 82.73 558.47 84.50 556.07 84.79 C 549.25 85.92 542.50 83.61 536.31 81.00 C 536.35 84.20 536.34 87.40 536.21 90.60 C 539.67 91.95 543.27 93.18 547.05 93.01 C 553.04 92.90 559.49 93.95 565.02 91.00 C 574.04 86.95 574.78 71.70 565.78 67.21 C 561.79 65.07 557.65 63.22 553.47 61.49 C 551.32 60.50 548.86 59.47 547.73 57.25 C 546.72 55.32 548.17 52.81 550.22 52.33 C 556.31 50.41 562.56 52.90 568.27 54.95 C 569.19 52.30 570.36 49.75 571.16 47.06 C 569.61 45.57 567.40 45.04 565.40 44.46 C 558.90 43.09 552.04 42.61 545.62 44.57 Z" />
<path fill="#c6dcd4" opacity="1.00" d=" M 228.10 52.05 C 231.26 50.39 234.92 51.37 237.79 53.14 C 240.78 55.41 241.67 59.29 241.93 62.84 C 234.96 63.00 227.99 62.91 221.03 62.70 C 221.53 58.30 223.67 53.65 228.10 52.05 M 222.69 61.13 C 228.55 61.21 234.41 61.17 240.27 61.26 C 239.99 57.60 237.79 53.82 233.93 53.14 C 228.59 51.45 223.70 56.16 222.69 61.13 Z" />
<path fill="#c6dcd4" opacity="1.00" d=" M 364.43 52.63 C 367.82 52.11 371.88 51.85 374.57 54.42 C 378.12 57.51 379.35 62.45 379.38 67.00 C 379.60 72.05 378.81 77.52 375.47 81.52 C 371.26 86.14 363.17 85.46 359.41 80.65 C 356.09 75.39 355.74 68.75 356.70 62.75 C 357.37 58.44 359.81 53.66 364.43 52.63 M 364.25 54.23 C 360.31 55.70 358.51 60.05 358.06 63.94 C 357.76 68.93 357.44 74.34 360.08 78.82 C 363.01 84.31 372.02 84.59 375.28 79.28 C 378.95 72.71 378.99 64.22 375.47 57.58 C 373.19 53.64 368.22 53.45 364.25 54.23 Z" />
<path fill="#c6dcd4" opacity="1.00" d=" M 418.45 52.52 C 421.97 51.93 426.16 52.53 428.33 55.68 C 431.65 60.44 431.14 66.53 431.00 72.04 C 430.78 76.75 428.74 82.12 424.02 83.93 C 420.20 84.67 415.50 84.44 412.93 81.11 C 409.28 75.77 410.00 69.02 410.12 62.90 C 410.35 58.20 413.17 52.73 418.45 52.52 M 417.29 54.23 C 413.13 55.42 411.67 60.10 411.73 63.98 C 411.87 69.54 410.73 75.88 414.44 80.59 C 417.65 83.57 423.43 83.93 426.44 80.44 C 429.53 76.77 429.67 71.61 429.73 67.04 C 429.47 63.12 429.33 58.54 426.23 55.68 C 423.94 53.24 420.25 53.90 417.29 54.23 Z" />
<path fill="#c6dcd4" opacity="1.00" d=" M 462.24 72.18 C 466.93 69.14 472.77 70.06 478.08 69.76 C 477.96 73.07 478.53 76.68 476.61 79.61 C 473.82 84.55 467.07 86.36 461.98 84.20 C 457.56 81.78 458.12 74.64 462.24 72.18 M 463.95 72.94 C 461.49 73.98 460.81 76.64 459.97 78.90 C 460.72 80.24 461.29 81.74 462.44 82.82 C 466.66 84.21 471.98 83.40 474.68 79.58 C 476.75 77.22 476.51 73.95 476.53 71.03 C 472.32 71.37 467.86 71.15 463.95 72.94 Z" />
</g>
<g id="#174195ff">
<path fill="#174195" opacity="1.00" d=" M 7.87 7.23 C 59.91 7.27 111.94 7.23 163.97 7.25 C 165.85 7.27 167.73 7.36 169.61 7.45 C 169.70 43.76 169.75 80.08 169.56 116.40 C 115.56 116.40 61.56 116.52 7.56 116.34 C 7.60 84.90 7.56 53.45 7.58 22.01 C 7.60 17.08 7.39 12.14 7.87 7.23 M 88.16 20.47 C 88.06 21.41 87.87 23.30 87.77 24.24 C 86.11 24.22 84.44 24.21 82.78 24.19 C 83.92 25.24 85.05 26.29 86.21 27.32 C 85.77 28.66 85.30 30.00 84.87 31.35 C 86.08 30.56 87.27 29.72 88.44 28.88 C 89.68 29.61 90.90 30.37 92.12 31.13 C 91.91 30.33 91.48 28.71 91.27 27.91 C 91.87 26.45 93.25 25.53 94.24 24.35 C 92.86 24.29 91.48 24.23 90.11 24.17 C 89.56 22.88 88.92 21.64 88.16 20.47 M 70.44 25.35 C 70.31 26.29 70.04 28.18 69.90 29.13 C 68.55 29.19 67.19 29.24 65.84 29.30 C 66.82 30.32 67.80 31.33 68.79 32.35 C 68.16 33.61 67.53 34.87 66.90 36.13 C 68.23 35.29 69.57 34.46 70.90 33.63 C 72.01 34.44 73.12 35.25 74.23 36.06 C 73.88 34.75 73.51 33.45 73.10 32.16 C 74.14 31.15 75.19 30.14 76.22 29.12 C 74.93 29.15 73.64 29.17 72.35 29.19 C 71.74 27.90 71.10 26.62 70.44 25.35 M 106.33 24.98 C 105.82 26.39 105.31 27.81 104.81 29.23 C 103.61 29.21 102.41 29.20 101.21 29.19 C 102.15 30.18 103.12 31.14 104.09 32.10 C 103.65 33.36 103.22 34.62 102.80 35.88 C 104.14 35.25 105.29 33.90 106.85 33.91 C 107.63 34.46 109.18 35.54 109.96 36.08 C 109.64 35.07 109.01 33.05 108.69 32.04 C 109.59 31.03 110.61 30.13 111.58 29.19 C 110.68 29.22 108.88 29.29 107.98 29.32 C 107.41 27.88 106.87 26.43 106.33 24.98 M 57.49 39.21 C 57.35 40.07 57.08 41.80 56.95 42.67 C 55.25 42.57 53.56 42.45 51.87 42.32 C 53.25 43.21 54.62 44.11 56.01 45.00 C 55.41 46.41 54.79 47.82 54.19 49.23 C 55.52 48.34 56.84 47.43 58.16 46.51 C 59.30 47.47 60.43 48.44 61.58 49.38 C 61.08 47.88 60.56 46.39 60.08 44.89 C 60.92 44.34 62.60 43.24 63.44 42.69 C 62.39 42.66 60.27 42.62 59.22 42.59 C 58.95 41.14 58.69 39.68 58.44 38.23 C 58.20 38.47 57.72 38.96 57.49 39.21 M 117.75 42.16 C 116.39 42.17 115.03 42.17 113.68 42.18 C 114.76 43.18 115.87 44.13 116.98 45.10 C 116.57 46.42 116.17 47.75 115.79 49.08 C 116.88 48.32 117.94 47.52 119.08 46.85 C 120.42 47.46 121.61 48.31 122.82 49.14 C 122.28 47.70 121.95 46.20 121.76 44.67 C 122.83 43.91 123.88 43.10 124.90 42.25 C 123.54 42.23 122.17 42.22 120.81 42.23 C 120.32 41.04 119.84 39.86 119.37 38.67 C 118.81 39.83 118.28 40.99 117.75 42.16 M 123.27 55.97 C 123.18 57.32 123.09 58.66 123.00 60.00 C 121.52 60.00 120.04 60.00 118.56 60.00 C 119.55 61.04 120.55 62.06 121.55 63.10 C 121.24 64.38 120.93 65.66 120.64 66.95 C 121.70 66.20 122.74 65.43 123.87 64.79 C 125.05 65.37 126.21 65.99 127.36 66.65 C 126.94 65.50 126.52 64.36 126.09 63.23 C 127.33 62.23 128.57 61.23 129.79 60.21 C 128.31 60.13 126.83 60.05 125.35 59.98 C 124.69 58.63 123.98 57.30 123.27 55.97 M 51.63 60.00 C 50.30 60.00 48.98 60.00 47.66 60.00 C 50.11 61.56 50.74 64.12 50.02 66.85 C 51.07 66.11 52.11 65.35 53.22 64.71 C 54.71 65.06 55.70 66.41 56.93 67.25 C 56.41 65.88 55.91 64.50 55.43 63.11 C 56.64 62.11 57.84 61.09 59.05 60.09 C 57.40 60.05 55.75 60.01 54.09 59.96 C 54.02 59.10 53.88 57.37 53.81 56.50 C 53.03 57.63 52.31 58.81 51.63 60.00 M 56.73 78.20 C 55.44 78.14 54.15 78.06 52.86 77.98 C 54.96 79.75 55.79 82.10 54.89 84.76 C 56.05 84.09 57.20 83.40 58.36 82.73 C 59.42 83.61 60.50 84.48 61.60 85.32 C 61.17 83.82 60.74 82.33 60.32 80.83 C 61.35 79.93 62.37 79.02 63.38 78.09 C 61.97 78.11 60.56 78.12 59.15 78.14 C 59.04 77.33 58.82 75.70 58.71 74.88 C 56.64 74.24 57.35 77.10 56.73 78.20 M 117.73 78.12 C 116.37 78.15 115.02 78.18 113.66 78.22 C 114.75 79.03 115.86 79.83 116.99 80.60 C 116.61 82.11 116.21 83.62 115.88 85.15 C 116.81 84.35 117.72 83.53 118.63 82.70 C 119.97 83.38 121.27 84.13 122.56 84.93 C 122.35 83.91 121.95 81.89 121.74 80.88 C 122.63 80.05 123.56 79.28 124.53 78.56 C 123.14 78.29 121.73 78.11 120.39 77.68 C 120.17 76.86 119.73 75.23 119.51 74.41 C 118.91 75.64 118.31 76.87 117.73 78.12 M 69.93 91.27 C 68.55 91.22 67.16 91.15 65.78 91.08 C 66.69 92.05 67.64 92.97 68.50 94.00 C 68.33 95.47 67.66 96.80 67.06 98.13 C 68.26 97.31 69.46 96.49 70.77 95.87 C 71.89 96.37 72.99 96.90 74.08 97.48 C 72.86 94.80 73.99 92.71 76.11 91.06 C 74.84 91.14 73.56 91.22 72.28 91.28 C 71.71 89.80 71.07 88.35 70.47 86.89 C 70.29 88.35 70.11 89.81 69.93 91.27 M 105.13 91.36 C 103.69 91.42 102.26 91.47 100.83 91.52 C 101.93 92.37 103.03 93.21 104.13 94.06 C 103.67 95.32 103.22 96.58 102.78 97.84 C 103.88 97.19 104.95 96.50 106.09 95.93 C 107.51 96.38 108.74 97.26 110.02 98.01 C 109.42 96.75 108.63 95.53 108.42 94.13 C 109.42 92.92 110.82 92.16 112.11 91.30 C 110.64 91.41 109.16 91.50 107.69 91.59 C 107.22 90.01 106.74 88.44 106.27 86.86 C 105.88 88.36 105.51 89.86 105.13 91.36 M 86.43 92.62 C 86.67 93.40 87.14 94.96 87.37 95.75 C 86.27 95.84 84.08 96.03 82.98 96.13 C 84.10 96.89 85.21 97.65 86.32 98.42 C 85.91 99.77 85.47 101.10 85.02 102.44 C 86.13 101.85 87.26 101.27 88.40 100.72 C 89.71 101.07 90.94 101.67 92.21 102.16 C 91.78 101.10 91.34 100.03 90.90 98.98 C 92.24 97.84 93.59 96.71 94.94 95.58 C 93.26 95.58 91.57 95.60 89.90 95.34 C 89.79 94.42 89.56 92.59 89.44 91.67 C 88.43 91.95 87.42 92.27 86.43 92.62 Z" />
</g>
<g id="#feed02ff">
<path fill="#feed02" opacity="1.00" d=" M 88.16 20.47 C 88.92 21.64 89.56 22.88 90.11 24.17 C 91.48 24.23 92.86 24.29 94.24 24.35 C 93.25 25.53 91.87 26.45 91.27 27.91 C 91.48 28.71 91.91 30.33 92.12 31.13 C 90.90 30.37 89.68 29.61 88.44 28.88 C 87.27 29.72 86.08 30.56 84.87 31.35 C 85.30 30.00 85.77 28.66 86.21 27.32 C 85.05 26.29 83.92 25.24 82.78 24.19 C 84.44 24.21 86.11 24.22 87.77 24.24 C 87.87 23.30 88.06 21.41 88.16 20.47 Z" />
<path fill="#feed02" opacity="1.00" d=" M 70.44 25.35 C 71.10 26.62 71.74 27.90 72.35 29.19 C 73.64 29.17 74.93 29.15 76.22 29.12 C 75.19 30.14 74.14 31.15 73.10 32.16 C 73.51 33.45 73.88 34.75 74.23 36.06 C 73.12 35.25 72.01 34.44 70.90 33.63 C 69.57 34.46 68.23 35.29 66.90 36.13 C 67.53 34.87 68.16 33.61 68.79 32.35 C 67.80 31.33 66.82 30.32 65.84 29.30 C 67.19 29.24 68.55 29.19 69.90 29.13 C 70.04 28.18 70.31 26.29 70.44 25.35 Z" />
<path fill="#feed02" opacity="1.00" d=" M 106.33 24.98 C 106.87 26.43 107.41 27.88 107.98 29.32 C 108.88 29.29 110.68 29.22 111.58 29.19 C 110.61 30.13 109.59 31.03 108.69 32.04 C 109.01 33.05 109.64 35.07 109.96 36.08 C 109.18 35.54 107.63 34.46 106.85 33.91 C 105.29 33.90 104.14 35.25 102.80 35.88 C 103.22 34.62 103.65 33.36 104.09 32.10 C 103.12 31.14 102.15 30.18 101.21 29.19 C 102.41 29.20 103.61 29.21 104.81 29.23 C 105.31 27.81 105.82 26.39 106.33 24.98 Z" />
<path fill="#feed02" opacity="1.00" d=" M 57.49 39.21 C 57.72 38.96 58.20 38.47 58.44 38.23 C 58.69 39.68 58.95 41.14 59.22 42.59 C 60.27 42.62 62.39 42.66 63.44 42.69 C 62.60 43.24 60.92 44.34 60.08 44.89 C 60.56 46.39 61.08 47.88 61.58 49.38 C 60.43 48.44 59.30 47.47 58.16 46.51 C 56.84 47.43 55.52 48.34 54.19 49.23 C 54.79 47.82 55.41 46.41 56.01 45.00 C 54.62 44.11 53.25 43.21 51.87 42.32 C 53.56 42.45 55.25 42.57 56.95 42.67 C 57.08 41.80 57.35 40.07 57.49 39.21 Z" />
<path fill="#feed02" opacity="1.00" d=" M 117.75 42.16 C 118.28 40.99 118.81 39.83 119.37 38.67 C 119.84 39.86 120.32 41.04 120.81 42.23 C 122.17 42.22 123.54 42.23 124.90 42.25 C 123.88 43.10 122.83 43.91 121.76 44.67 C 121.95 46.20 122.28 47.70 122.82 49.14 C 121.61 48.31 120.42 47.46 119.08 46.85 C 117.94 47.52 116.88 48.32 115.79 49.08 C 116.17 47.75 116.57 46.42 116.98 45.10 C 115.87 44.13 114.76 43.18 113.68 42.18 C 115.03 42.17 116.39 42.17 117.75 42.16 Z" />
<path fill="#feed02" opacity="1.00" d=" M 123.27 55.97 C 123.98 57.30 124.69 58.63 125.35 59.98 C 126.83 60.05 128.31 60.13 129.79 60.21 C 128.57 61.23 127.33 62.23 126.09 63.23 C 126.52 64.36 126.94 65.50 127.36 66.65 C 126.21 65.99 125.05 65.37 123.87 64.79 C 122.74 65.43 121.70 66.20 120.64 66.95 C 120.93 65.66 121.24 64.38 121.55 63.10 C 120.55 62.06 119.55 61.04 118.56 60.00 C 120.04 60.00 121.52 60.00 123.00 60.00 C 123.09 58.66 123.18 57.32 123.27 55.97 Z" />
<path fill="#feed02" opacity="1.00" d=" M 51.63 60.00 C 52.31 58.81 53.03 57.63 53.81 56.50 C 53.88 57.37 54.02 59.10 54.09 59.96 C 55.75 60.01 57.40 60.05 59.05 60.09 C 57.84 61.09 56.64 62.11 55.43 63.11 C 55.91 64.50 56.41 65.88 56.93 67.25 C 55.70 66.41 54.71 65.06 53.22 64.71 C 52.11 65.35 51.07 66.11 50.02 66.85 C 50.74 64.12 50.11 61.56 47.66 60.00 C 48.98 60.00 50.30 60.00 51.63 60.00 Z" />
<path fill="#feed02" opacity="1.00" d=" M 56.73 78.20 C 57.35 77.10 56.64 74.24 58.71 74.88 C 58.82 75.70 59.04 77.33 59.15 78.14 C 60.56 78.12 61.97 78.11 63.38 78.09 C 62.37 79.02 61.35 79.93 60.32 80.83 C 60.74 82.33 61.17 83.82 61.60 85.32 C 60.50 84.48 59.42 83.61 58.36 82.73 C 57.20 83.40 56.05 84.09 54.89 84.76 C 55.79 82.10 54.96 79.75 52.86 77.98 C 54.15 78.06 55.44 78.14 56.73 78.20 Z" />
<path fill="#feed02" opacity="1.00" d=" M 117.73 78.12 C 118.31 76.87 118.91 75.64 119.51 74.41 C 119.73 75.23 120.17 76.86 120.39 77.68 C 121.73 78.11 123.14 78.29 124.53 78.56 C 123.56 79.28 122.63 80.05 121.74 80.88 C 121.95 81.89 122.35 83.91 122.56 84.93 C 121.27 84.13 119.97 83.38 118.63 82.70 C 117.72 83.53 116.81 84.35 115.88 85.15 C 116.21 83.62 116.61 82.11 116.99 80.60 C 115.86 79.83 114.75 79.03 113.66 78.22 C 115.02 78.18 116.37 78.15 117.73 78.12 Z" />
<path fill="#feed02" opacity="1.00" d=" M 69.93 91.27 C 70.11 89.81 70.29 88.35 70.47 86.89 C 71.07 88.35 71.71 89.80 72.28 91.28 C 73.56 91.22 74.84 91.14 76.11 91.06 C 73.99 92.71 72.86 94.80 74.08 97.48 C 72.99 96.90 71.89 96.37 70.77 95.87 C 69.46 96.49 68.26 97.31 67.06 98.13 C 67.66 96.80 68.33 95.47 68.50 94.00 C 67.64 92.97 66.69 92.05 65.78 91.08 C 67.16 91.15 68.55 91.22 69.93 91.27 Z" />
<path fill="#feed02" opacity="1.00" d=" M 105.13 91.36 C 105.51 89.86 105.88 88.36 106.27 86.86 C 106.74 88.44 107.22 90.01 107.69 91.59 C 109.16 91.50 110.64 91.41 112.11 91.30 C 110.82 92.16 109.42 92.92 108.42 94.13 C 108.63 95.53 109.42 96.75 110.02 98.01 C 108.74 97.26 107.51 96.38 106.09 95.93 C 104.95 96.50 103.88 97.19 102.78 97.84 C 103.22 96.58 103.67 95.32 104.13 94.06 C 103.03 93.21 101.93 92.37 100.83 91.52 C 102.26 91.47 103.69 91.42 105.13 91.36 Z" />
<path fill="#feed02" opacity="1.00" d=" M 87.37 95.75 C 87.97 94.57 88.41 93.31 88.96 92.11 C 89.16 93.15 89.57 95.23 89.77 96.27 C 90.72 96.27 92.63 96.27 93.58 96.27 C 92.91 96.95 91.57 98.30 90.90 98.98 C 91.34 100.03 91.78 101.10 92.21 102.16 C 90.94 101.67 89.71 101.07 88.40 100.72 C 87.26 101.27 86.13 101.85 85.02 102.44 C 85.47 101.10 85.91 99.77 86.32 98.42 C 85.21 97.65 84.10 96.89 82.98 96.13 C 84.08 96.03 86.27 95.84 87.37 95.75 Z" />
</g>
<g id="#575757ff">
<path fill="#575757" opacity="1.00" d=" M 507.11 44.17 C 515.11 42.57 523.70 43.15 531.21 46.49 C 530.43 49.37 529.36 52.16 528.18 54.91 C 522.49 52.85 516.28 50.45 510.20 52.33 C 507.96 52.92 506.48 55.91 508.07 57.85 C 510.62 61.05 514.92 61.84 518.43 63.60 C 523.49 66.00 529.90 68.16 531.70 74.11 C 532.33 78.15 532.61 82.75 530.20 86.30 C 527.47 90.76 522.08 92.99 517.00 92.99 C 510.29 92.95 503.27 93.83 496.99 90.89 C 496.83 87.70 496.87 84.50 497.01 81.31 C 503.24 84.03 510.10 85.94 516.93 84.71 C 518.78 84.28 520.36 82.83 521.18 81.14 C 522.03 78.90 520.17 76.87 518.54 75.58 C 512.38 71.07 503.82 70.11 498.82 63.99 C 496.34 61.29 496.76 57.39 496.90 54.01 C 497.08 48.65 502.40 45.32 507.11 44.17 Z" />
<path fill="#575757" opacity="1.00" d=" M 545.62 44.57 C 552.04 42.61 558.90 43.09 565.40 44.46 C 567.40 45.04 569.61 45.57 571.16 47.06 C 570.36 49.75 569.19 52.30 568.27 54.95 C 562.56 52.90 556.31 50.41 550.22 52.33 C 548.17 52.81 546.72 55.32 547.73 57.25 C 548.86 59.47 551.32 60.50 553.47 61.49 C 557.65 63.22 561.79 65.07 565.78 67.21 C 574.78 71.70 574.04 86.95 565.02 91.00 C 559.49 93.95 553.04 92.90 547.05 93.01 C 543.27 93.18 539.67 91.95 536.21 90.60 C 536.34 87.40 536.35 84.20 536.31 81.00 C 542.50 83.61 549.25 85.92 556.07 84.79 C 558.47 84.50 560.52 82.73 561.36 80.49 C 561.78 78.36 560.03 76.74 558.52 75.57 C 553.01 71.73 546.15 70.32 540.85 66.15 C 536.30 62.68 535.10 55.85 537.81 50.88 C 539.07 47.52 542.51 45.86 545.62 44.57 Z" />
<path fill="#575757" opacity="1.00" d=" M 212.16 55.14 C 214.95 49.35 220.43 44.31 227.06 43.71 C 234.27 42.46 242.62 43.70 247.64 49.49 C 252.85 55.33 253.08 63.52 252.78 70.92 C 242.09 70.95 231.40 70.82 220.72 70.99 C 221.04 76.35 223.53 82.12 228.86 84.15 C 235.94 86.32 243.40 84.21 250.00 81.44 C 250.00 84.49 249.98 87.55 249.88 90.61 C 242.97 93.66 235.34 93.21 227.98 92.93 C 217.77 91.97 209.68 82.16 209.91 72.06 C 209.94 66.37 209.41 60.36 212.16 55.14 M 228.10 52.05 C 223.67 53.65 221.53 58.30 221.03 62.70 C 227.99 62.91 234.96 63.00 241.93 62.84 C 241.67 59.29 240.78 55.41 237.79 53.14 C 234.92 51.37 231.26 50.39 228.10 52.05 Z" />
<path fill="#575757" opacity="1.00" d=" M 260.08 44.02 C 263.90 43.99 267.71 43.98 271.53 44.16 C 271.82 54.77 271.57 65.39 271.66 76.00 C 271.38 79.49 273.78 82.73 276.86 84.15 C 281.23 85.55 286.64 84.17 289.37 80.36 C 291.44 76.60 292.03 72.21 292.03 67.98 C 291.99 59.99 292.00 52.00 292.01 44.00 C 295.66 44.01 299.31 44.01 302.96 44.04 C 302.94 60.31 303.10 76.59 302.88 92.86 C 300.23 92.95 297.58 92.99 294.94 93.00 C 294.19 90.82 293.52 88.61 292.87 86.40 C 291.11 88.06 289.52 89.98 287.39 91.19 C 282.71 93.94 277.03 92.97 271.87 92.89 C 264.78 91.96 260.31 84.80 260.10 78.06 C 260.05 66.72 260.12 55.37 260.08 44.02 Z" />
<path fill="#575757" opacity="1.00" d=" M 314.00 44.03 C 316.92 43.85 319.85 43.76 322.79 43.86 C 323.15 46.33 323.39 48.82 324.00 51.24 L 324.80 51.42 C 327.55 49.30 329.45 46.17 332.63 44.59 C 336.09 43.02 339.99 43.19 343.68 43.67 C 343.64 47.12 343.47 50.57 342.96 53.98 C 338.47 53.84 333.39 53.40 329.76 56.60 C 325.80 59.38 325.10 64.53 325.06 69.00 C 325.05 77.00 325.09 85.00 325.07 93.00 C 321.38 92.99 317.70 92.93 314.01 92.90 C 314.01 76.61 314.04 60.32 314.00 44.03 Z" />
<path fill="#575757" opacity="1.00" d=" M 359.38 44.46 C 366.72 43.13 375.30 42.50 381.58 47.32 C 387.84 51.73 390.35 59.61 390.93 66.93 C 390.96 75.64 388.32 85.57 380.34 90.30 C 374.91 93.96 368.12 93.08 361.94 92.88 C 352.23 91.14 345.54 81.57 345.06 72.05 C 344.94 67.14 344.52 62.02 346.48 57.38 C 348.39 51.32 353.39 46.47 359.38 44.46 M 364.43 52.63 C 359.81 53.66 357.37 58.44 356.70 62.75 C 355.74 68.75 356.09 75.39 359.41 80.65 C 363.17 85.46 371.26 86.14 375.47 81.52 C 378.81 77.52 379.60 72.05 379.38 67.00 C 379.35 62.45 378.12 57.51 374.57 54.42 C 371.88 51.85 367.82 52.11 364.43 52.63 Z" />
<path fill="#575757" opacity="1.00" d=" M 398.58 43.70 C 401.64 43.72 404.70 43.77 407.76 43.98 C 408.34 46.06 408.91 48.13 409.49 50.20 C 412.65 47.59 415.54 43.78 420.05 43.82 C 424.68 43.55 430.05 42.88 433.88 46.09 C 439.72 49.95 442.35 57.20 442.28 63.98 C 442.67 72.59 442.68 82.49 435.94 88.89 C 431.27 93.74 424.16 93.41 418.01 92.83 C 414.56 92.00 412.06 89.26 409.36 87.15 C 410.58 96.14 409.82 105.21 409.97 114.24 C 406.19 114.25 402.41 114.25 398.63 114.21 C 398.54 90.71 398.65 67.20 398.58 43.70 M 418.45 52.52 C 413.17 52.73 410.35 58.20 410.12 62.90 C 410.00 69.02 409.28 75.77 412.93 81.11 C 415.50 84.44 420.20 84.67 424.02 83.93 C 428.74 82.12 430.78 76.75 431.00 72.04 C 431.14 66.53 431.65 60.44 428.33 55.68 C 426.16 52.53 421.97 51.93 418.45 52.52 Z" />
<path fill="#575757" opacity="1.00" d=" M 452.30 47.54 C 458.17 43.96 465.21 43.27 471.94 43.32 C 477.03 43.51 482.56 44.89 485.80 49.15 C 488.87 53.04 489.16 58.28 489.33 63.03 C 489.35 72.99 489.30 82.95 489.34 92.91 C 486.66 92.91 483.98 92.92 481.31 92.94 C 480.46 90.68 479.57 88.44 478.61 86.23 C 475.43 89.37 471.82 92.95 467.03 92.97 C 462.11 93.04 456.53 93.93 452.48 90.45 C 447.39 87.12 447.57 80.32 448.00 74.96 C 448.62 69.21 454.13 65.65 459.31 64.38 C 465.31 62.30 471.71 63.08 477.94 62.75 C 478.57 58.81 477.70 54.13 473.65 52.38 C 467.73 50.51 461.45 52.64 456.04 55.13 C 454.72 52.63 453.50 50.09 452.30 47.54 M 462.24 72.18 C 458.12 74.64 457.56 81.78 461.98 84.20 C 467.07 86.36 473.82 84.55 476.61 79.61 C 478.53 76.68 477.96 73.07 478.08 69.76 C 472.77 70.06 466.93 69.14 462.24 72.18 Z" />
<path fill="#575757" opacity="1.00" d=" M 86.43 92.62 C 87.42 92.27 88.43 91.95 89.44 91.67 C 89.56 92.59 89.79 94.42 89.90 95.34 C 91.57 95.60 93.26 95.58 94.94 95.58 C 93.59 96.71 92.24 97.84 90.90 98.98 C 91.57 98.30 92.91 96.95 93.58 96.27 C 92.63 96.27 90.72 96.27 89.77 96.27 C 89.57 95.23 89.16 93.15 88.96 92.11 C 88.41 93.31 87.97 94.57 87.37 95.75 C 87.14 94.96 86.67 93.40 86.43 92.62 Z" />
</g>
</svg>
