<?xml version="1.0" encoding="UTF-8" ?>
<!DOCTYPE svg PUBLIC "-//W3C//DTD SVG 1.1//EN" "http://www.w3.org/Graphics/SVG/1.1/DTD/svg11.dtd">
<svg width="1373pt" height="461pt" viewBox="0 0 1373 461" version="1.1" xmlns="http://www.w3.org/2000/svg">
<g id="#ffffffff">
<path fill="#ffffff" opacity="1.00" d=" M 1201.44 160.68 C 1210.12 158.49 1220.66 163.23 1222.49 172.53 C 1225.21 182.12 1216.84 192.16 1207.07 191.95 C 1199.14 192.97 1190.48 187.98 1188.90 179.84 C 1186.60 171.32 1192.73 162.01 1201.44 160.68 Z" />
<path fill="#ffffff" opacity="1.00" d=" M 1282.34 205.22 C 1295.60 199.75 1312.85 202.35 1322.26 213.75 C 1329.81 222.59 1331.51 234.76 1331.45 246.00 C 1331.27 262.92 1331.74 279.85 1331.21 296.76 C 1321.16 296.71 1311.11 296.72 1301.06 296.76 C 1300.70 280.15 1301.08 263.54 1300.88 246.94 C 1300.66 240.73 1299.70 233.60 1294.49 229.49 C 1287.51 224.18 1276.44 226.41 1271.72 233.72 C 1268.52 237.76 1268.38 243.09 1268.54 248.00 C 1268.60 264.23 1268.51 280.46 1268.59 296.69 C 1258.42 296.80 1248.26 296.66 1238.09 296.77 C 1237.93 266.10 1238.25 235.43 1238.05 204.77 C 1248.18 204.62 1258.31 204.62 1268.44 204.76 C 1268.60 208.88 1268.51 213.01 1268.57 217.14 C 1272.47 212.47 1276.49 207.53 1282.34 205.22 Z" />
<path fill="#ffffff" opacity="1.00" d=" M 1190.30 204.91 C 1200.47 204.47 1210.68 204.65 1220.86 204.81 C 1220.88 235.46 1220.91 266.11 1220.85 296.76 C 1210.67 296.69 1200.48 296.76 1190.30 296.72 C 1190.31 266.12 1190.32 235.51 1190.30 204.91 Z" />
</g>
<g id="#8cadf3ff">
<path fill="#8cadf3" opacity="1.00" d=" M 256.73 42.73 C 291.49 28.35 330.27 23.50 367.44 29.54 C 411.94 36.29 453.80 58.64 484.48 91.53 C 507.27 115.60 523.98 145.39 532.57 177.42 C 542.95 214.62 542.23 254.80 530.65 291.63 C 526.97 303.38 522.87 315.12 516.57 325.75 C 514.18 322.20 510.33 320.30 506.79 318.16 C 498.91 312.66 491.47 306.50 483.05 301.82 C 476.52 298.20 472.22 291.83 466.19 287.55 C 461.88 292.07 458.65 297.43 455.91 303.01 C 452.42 306.85 449.76 311.33 446.27 315.16 C 442.96 317.86 439.96 320.91 437.01 323.99 C 432.72 328.44 427.89 332.30 423.52 336.65 C 416.74 330.69 407.04 329.69 400.24 323.77 C 396.91 317.67 395.86 310.63 394.23 303.94 C 393.76 299.55 387.48 299.36 386.96 295.01 C 385.79 288.76 385.73 282.36 384.93 276.06 C 384.63 271.30 383.72 265.85 386.82 261.76 C 389.44 258.30 392.12 254.77 393.43 250.57 C 396.06 242.55 398.62 234.49 400.24 226.19 C 400.90 221.35 406.42 218.86 406.41 213.77 C 407.11 204.63 409.88 195.79 410.47 186.65 C 410.83 183.14 407.03 181.56 404.76 179.71 C 404.53 176.14 404.52 172.56 404.83 168.99 C 405.75 158.88 405.25 148.72 405.58 138.59 C 405.51 129.99 405.95 121.12 403.00 112.91 C 400.46 105.82 396.71 99.01 391.12 93.87 C 385.67 88.98 380.31 83.93 374.24 79.79 C 371.00 77.39 367.11 74.96 365.96 70.84 C 365.50 67.28 368.65 64.96 370.96 62.83 C 372.02 61.63 374.08 60.53 373.44 58.64 C 366.32 57.93 359.25 59.74 352.36 61.33 C 344.97 63.40 337.25 64.30 330.07 67.11 C 317.70 71.78 305.06 76.42 294.31 84.33 C 286.12 89.89 277.62 95.92 273.13 105.06 C 268.00 113.81 267.64 124.14 266.70 133.97 C 266.00 141.66 267.57 149.29 267.69 156.96 C 267.85 164.71 269.24 172.43 268.49 180.19 C 265.56 181.43 261.70 183.13 262.38 187.04 C 263.21 195.66 265.35 204.13 266.38 212.75 C 266.76 218.61 272.71 221.93 273.33 227.69 C 275.11 238.08 278.03 248.42 283.36 257.58 C 285.64 261.75 288.70 265.97 288.37 270.98 C 288.12 280.02 285.24 288.74 284.96 297.79 C 282.97 298.90 280.97 299.97 278.98 301.05 C 277.01 308.61 276.59 316.84 272.73 323.73 C 266.19 328.94 257.73 330.79 250.67 335.17 C 255.04 339.39 260.39 342.35 265.44 345.67 C 271.41 349.57 278.15 352.07 284.17 355.91 C 260.55 346.78 240.04 330.30 225.16 309.91 C 218.19 298.44 211.05 286.93 206.51 274.23 C 205.19 270.42 203.64 266.69 202.27 262.90 L 202.08 262.07 C 201.47 255.18 199.31 248.57 198.24 241.76 C 196.79 229.54 197.90 217.25 198.73 205.03 C 199.28 200.57 201.02 196.38 202.01 192.02 C 204.33 186.48 205.97 180.70 207.97 175.05 C 211.76 165.90 215.99 156.85 221.74 148.75 C 223.18 146.70 224.14 144.37 225.08 142.06 C 226.14 140.58 227.27 139.16 228.43 137.75 C 231.80 133.38 235.55 129.31 238.91 124.93 C 240.81 122.91 240.13 120.07 239.98 117.59 C 236.18 117.79 233.98 122.27 230.04 121.30 C 231.12 119.11 232.18 116.91 233.36 114.77 C 225.16 111.46 217.92 106.36 210.97 100.99 C 204.72 95.77 198.79 89.15 190.45 87.52 C 209.09 68.17 232.12 53.33 256.73 42.73 Z" />
<path fill="#8cadf3" opacity="1.00" d=" M 166.14 243.24 C 167.79 243.22 169.45 243.22 171.10 243.24 L 170.30 243.48 C 169.94 243.59 169.22 243.80 168.87 243.91 L 168.19 244.16 L 167.57 244.44 C 167.26 245.06 166.65 246.29 166.34 246.91 C 166.28 245.68 166.21 244.46 166.14 243.24 Z" />
</g>
<g id="#ddefffff">
<path fill="#ddefff" opacity="1.00" d=" M 352.36 61.33 C 359.25 59.74 366.32 57.93 373.44 58.64 C 374.08 60.53 372.02 61.63 370.96 62.83 C 368.65 64.96 365.50 67.28 365.96 70.84 C 367.11 74.96 371.00 77.39 374.24 79.79 C 380.31 83.93 385.67 88.98 391.12 93.87 C 396.71 99.01 400.46 105.82 403.00 112.91 C 405.95 121.12 405.51 129.99 405.58 138.59 C 405.25 148.72 405.75 158.88 404.83 168.99 C 404.52 172.56 404.53 176.14 404.76 179.71 C 407.03 181.56 410.83 183.14 410.47 186.65 C 409.88 195.79 407.11 204.63 406.41 213.77 C 406.42 218.86 400.90 221.35 400.24 226.19 C 398.62 234.49 396.06 242.55 393.43 250.57 C 392.12 254.77 389.44 258.30 386.82 261.76 C 383.72 265.85 384.63 271.30 384.93 276.06 C 385.73 282.36 385.79 288.76 386.96 295.01 C 387.48 299.36 393.76 299.55 394.23 303.94 C 395.86 310.63 396.91 317.67 400.24 323.77 C 407.04 329.69 416.74 330.69 423.52 336.65 C 422.71 337.45 421.89 338.24 421.07 339.02 C 402.20 352.58 380.19 361.80 357.17 365.11 C 352.42 365.52 347.64 365.50 342.91 366.11 C 335.32 367.02 327.76 365.61 320.20 365.08 C 308.02 364.09 296.39 360.08 284.88 356.24 L 284.17 355.91 C 278.15 352.07 271.41 349.57 265.44 345.67 C 260.39 342.35 255.04 339.39 250.67 335.17 C 257.73 330.79 266.19 328.94 272.73 323.73 C 276.59 316.84 277.01 308.61 278.98 301.05 C 280.97 299.97 282.97 298.90 284.96 297.79 C 285.24 288.74 288.12 280.02 288.37 270.98 C 288.70 265.97 285.64 261.75 283.36 257.58 C 278.03 248.42 275.11 238.08 273.33 227.69 C 272.71 221.93 266.76 218.61 266.38 212.75 C 265.35 204.13 263.21 195.66 262.38 187.04 C 261.70 183.13 265.56 181.43 268.49 180.19 C 269.24 172.43 267.85 164.71 267.69 156.96 C 267.57 149.29 266.00 141.66 266.70 133.97 C 267.64 124.14 268.00 113.81 273.13 105.06 C 277.62 95.92 286.12 89.89 294.31 84.33 C 305.06 76.42 317.70 71.78 330.07 67.11 C 337.25 64.30 344.97 63.40 352.36 61.33 Z" />
<path fill="#ddefff" opacity="1.00" d=" M 160.80 237.11 C 162.08 236.38 163.31 235.56 164.55 234.78 C 165.69 236.51 167.01 238.14 168.97 238.98 C 169.63 237.72 170.28 236.45 170.92 235.18 C 173.25 235.59 174.51 237.70 176.01 239.30 C 177.93 239.40 179.84 239.54 181.76 239.66 C 182.37 241.26 182.46 242.96 182.13 244.64 C 181.18 244.60 179.28 244.53 178.32 244.49 C 177.03 244.22 176.28 244.68 176.07 245.89 L 175.80 247.11 C 177.89 247.48 180.03 247.63 182.11 248.08 C 183.17 249.29 182.59 251.04 182.75 252.50 C 180.77 252.54 178.81 252.58 176.84 252.58 C 176.23 253.63 175.63 254.68 175.03 255.74 C 172.19 255.67 171.66 252.10 169.06 251.63 C 167.36 252.93 166.04 255.08 163.64 254.93 C 163.26 253.84 162.87 252.76 162.48 251.68 C 160.04 251.47 157.65 250.95 155.25 250.47 C 154.99 249.17 153.97 247.47 155.41 246.48 C 157.59 244.58 161.51 246.97 162.98 243.89 C 160.40 242.83 157.60 242.72 154.86 242.56 C 154.58 241.01 154.40 239.44 154.34 237.88 C 156.46 237.57 158.85 238.21 160.80 237.11 M 166.14 243.24 C 166.21 244.46 166.28 245.68 166.34 246.91 C 168.34 247.19 170.33 246.92 172.16 246.06 C 171.70 245.41 170.77 244.12 170.30 243.48 L 171.10 243.24 C 169.45 243.22 167.79 243.22 166.14 243.24 Z" />
<path fill="#ddefff" opacity="1.00" d=" M 167.43 261.66 C 171.69 259.65 177.09 259.48 181.15 262.09 C 188.71 266.75 190.38 278.74 183.98 285.01 C 180.04 289.25 173.34 289.38 168.09 288.12 C 163.59 287.13 161.58 282.72 159.78 278.96 C 159.29 274.86 158.41 269.83 161.55 266.54 C 163.16 264.54 164.93 262.52 167.43 261.66 M 168.48 268.34 C 164.35 270.76 164.64 276.66 166.79 280.34 C 169.43 283.02 173.58 282.97 176.95 281.89 C 181.65 280.68 183.86 274.61 181.62 270.47 C 179.06 265.91 172.55 266.56 168.48 268.34 Z" />
<path fill="#ddefff" opacity="1.00" d=" M 179.76 294.87 C 183.93 292.70 188.20 290.71 192.57 289.00 C 195.35 294.21 199.20 299.88 198.07 306.03 C 197.20 313.08 186.44 314.94 182.59 309.39 C 181.00 307.13 179.75 304.64 178.16 302.38 C 175.43 304.03 172.71 306.12 169.33 305.87 C 169.11 304.05 167.47 301.81 168.79 300.16 C 172.02 297.60 176.13 296.70 179.76 294.87 M 183.31 301.00 C 184.40 302.84 185.33 304.91 187.12 306.21 C 188.98 306.76 190.67 305.59 192.38 305.04 C 192.59 302.26 192.58 299.43 191.19 296.93 C 188.13 297.32 185.62 299.10 183.31 301.00 Z" />
<path fill="#ddefff" opacity="1.00" d=" M 196.54 316.61 C 199.09 314.93 201.51 312.85 204.54 312.09 C 207.00 316.34 210.94 319.71 212.58 324.41 C 213.36 326.02 212.18 327.51 211.59 328.96 C 207.88 327.36 206.29 323.34 204.06 320.26 C 202.01 320.96 199.82 321.70 198.70 323.71 C 200.34 325.91 203.36 328.72 201.64 331.65 C 200.97 331.94 199.63 332.52 198.96 332.80 C 197.48 330.73 196.09 328.60 194.86 326.37 C 192.64 326.89 190.99 328.44 189.40 329.99 C 191.17 333.33 193.99 336.17 194.85 339.95 C 194.08 340.38 192.55 341.24 191.78 341.67 C 188.27 339.21 186.70 335.11 184.22 331.79 C 183.22 330.25 181.52 328.56 182.46 326.58 C 186.92 322.95 191.87 319.96 196.54 316.61 Z" />
<path fill="#ddefff" opacity="1.00" d=" M 211.97 334.95 C 213.32 333.62 214.53 332.08 216.20 331.15 C 217.87 331.03 219.20 332.15 220.60 332.86 C 220.08 340.22 217.21 347.42 218.08 354.84 C 218.43 354.50 219.14 353.82 219.49 353.47 C 221.70 351.37 223.94 349.30 226.04 347.09 C 227.46 345.80 228.74 343.73 230.97 344.26 C 231.99 345.14 232.98 346.07 233.94 347.05 C 228.39 353.45 221.95 358.99 216.07 365.07 C 214.85 366.36 212.96 365.29 211.49 365.25 C 211.60 361.13 211.67 357.00 212.10 352.90 C 212.44 349.90 212.65 346.89 212.67 343.88 C 208.10 345.43 205.94 350.10 201.94 352.46 C 199.72 352.91 197.33 350.72 198.38 348.44 C 202.74 343.78 207.62 339.62 211.97 334.95 Z" />
<path fill="#ddefff" opacity="1.00" d=" M 234.16 353.06 C 235.31 351.73 236.51 349.32 238.63 350.50 C 243.72 354.06 248.57 357.97 253.87 361.24 C 255.98 362.74 253.67 365.05 252.03 365.74 C 249.80 365.04 247.88 363.67 245.88 362.51 C 240.62 367.48 238.32 374.72 233.02 379.63 C 231.34 379.59 229.79 378.87 228.19 378.45 C 228.25 377.45 228.36 376.45 228.52 375.47 C 231.86 369.28 236.93 364.21 240.20 358.01 C 238.04 356.55 235.88 355.05 234.16 353.06 Z" />
<path fill="#ddefff" opacity="1.00" d=" M 397.85 369.65 C 399.25 367.37 402.05 366.45 404.60 366.27 C 404.26 371.01 402.65 375.49 401.52 380.07 C 405.69 384.53 411.75 386.53 415.92 390.97 C 413.92 392.38 411.61 393.70 409.07 393.38 C 404.70 391.26 401.05 386.03 395.62 387.56 C 396.58 390.83 398.00 393.94 399.61 396.95 C 399.14 397.81 398.67 398.69 398.22 399.57 C 396.44 399.48 394.36 400.28 392.82 399.18 C 390.00 391.08 385.77 383.54 383.06 375.40 C 384.90 374.75 386.87 372.77 388.88 373.66 C 391.37 376.30 390.81 380.72 394.00 382.92 C 396.82 378.99 396.14 373.97 397.85 369.65 Z" />
<path fill="#ddefff" opacity="1.00" d=" M 256.53 368.72 C 263.26 365.33 272.63 368.15 275.85 375.12 C 279.57 380.81 277.12 388.20 272.89 392.86 C 269.37 395.89 264.36 396.24 259.97 395.48 C 251.74 394.59 246.27 384.76 249.39 377.21 C 250.35 373.49 253.09 370.37 256.53 368.72 M 260.22 373.93 C 255.01 376.16 254.34 383.00 255.95 387.77 C 258.22 389.43 261.10 390.63 263.96 390.39 C 269.40 389.77 271.87 383.19 270.83 378.46 C 270.17 373.60 264.08 372.52 260.22 373.93 Z" />
<path fill="#ddefff" opacity="1.00" d=" M 283.63 376.37 C 285.60 376.98 287.73 377.37 289.47 378.56 C 291.48 384.20 289.60 390.45 291.25 396.23 C 292.99 394.51 294.18 392.37 295.18 390.17 C 296.86 386.95 298.68 383.80 300.08 380.45 C 301.93 380.55 305.14 379.59 305.70 382.16 C 307.01 387.66 307.40 393.35 307.76 398.99 C 311.39 394.41 313.00 388.69 316.12 383.85 C 318.34 382.91 320.63 384.16 322.71 384.89 C 318.51 392.63 314.65 400.58 310.02 408.06 C 308.49 410.85 305.03 409.14 302.87 408.18 C 302.63 402.07 302.76 395.89 301.29 389.92 C 298.50 394.06 296.81 398.84 293.87 402.89 C 292.99 404.16 292.05 405.39 291.12 406.62 C 289.31 405.80 287.51 404.98 285.70 404.17 C 285.71 394.85 283.74 385.67 283.63 376.37 Z" />
<path fill="#ddefff" opacity="1.00" d=" M 357.31 381.46 C 362.14 380.26 366.99 378.67 372.05 379.16 C 374.92 378.91 377.17 381.16 378.43 383.52 C 379.58 387.14 378.08 390.82 376.45 394.02 C 379.39 397.13 382.59 400.03 385.12 403.51 C 382.77 404.13 380.39 404.94 377.93 404.65 C 374.63 402.29 372.82 397.53 368.36 397.15 C 368.17 400.59 369.20 403.89 369.82 407.24 C 367.69 407.82 364.54 409.91 362.92 407.41 C 361.40 401.89 361.06 396.09 359.29 390.63 C 358.29 387.65 357.72 384.56 357.31 381.46 M 365.36 384.53 C 365.15 387.39 365.48 390.27 366.81 392.86 C 370.45 393.11 373.38 389.54 372.41 386.00 C 371.05 383.30 367.71 384.73 365.36 384.53 Z" />
<path fill="#ddefff" opacity="1.00" d=" M 334.39 383.71 C 338.82 382.41 343.89 382.66 347.86 385.13 C 355.87 390.44 355.94 404.59 347.26 409.27 C 340.21 413.59 328.59 411.25 326.15 402.65 C 323.28 395.55 326.57 385.81 334.39 383.71 M 334.53 389.65 C 331.28 392.17 331.37 397.17 332.14 400.86 C 333.77 407.58 345.11 407.35 346.81 400.80 C 348.12 396.74 347.20 390.71 342.74 389.01 C 340.11 387.82 337.02 388.38 334.53 389.65 Z" />
</g>
<g id="#0181b3ff">
<path fill="#0181b3" opacity="1.00" d=" M 190.45 87.52 C 198.79 89.15 204.72 95.77 210.97 100.99 C 217.92 106.36 225.16 111.46 233.36 114.77 C 232.18 116.91 231.12 119.11 230.04 121.30 C 233.98 122.27 236.18 117.79 239.98 117.59 C 240.13 120.07 240.81 122.91 238.91 124.93 C 235.55 129.31 231.80 133.38 228.43 137.75 C 227.66 135.38 227.05 132.67 224.91 131.11 C 221.74 128.81 217.59 128.10 214.80 125.23 C 211.75 122.25 208.99 118.86 205.16 116.84 C 202.19 115.27 199.53 113.21 197.22 110.77 C 194.29 107.59 189.60 106.67 187.01 103.11 C 185.24 100.94 183.63 97.80 180.29 98.52 C 183.75 94.92 187.24 91.34 190.45 87.52 Z" />
<path fill="#0181b3" opacity="1.00" d=" M 1170.38 126.51 C 1173.86 125.74 1177.46 126.11 1181.00 126.04 C 1236.35 126.02 1291.71 126.10 1347.05 125.99 C 1352.48 125.86 1357.87 128.77 1360.49 133.57 C 1362.93 137.61 1362.27 142.50 1362.35 147.00 C 1362.32 203.01 1362.34 259.02 1362.34 315.02 C 1362.60 321.86 1357.41 328.36 1350.69 329.63 C 1346.16 330.39 1341.55 329.90 1337.00 329.95 C 1282.64 330.00 1228.28 329.94 1173.93 329.97 C 1166.07 330.01 1159.02 322.92 1159.41 315.01 C 1159.41 257.01 1159.41 199.00 1159.41 140.99 C 1159.13 134.35 1164.00 128.14 1170.38 126.51 M 1201.44 160.68 C 1192.73 162.01 1186.60 171.32 1188.90 179.84 C 1190.48 187.98 1199.14 192.97 1207.07 191.95 C 1216.84 192.16 1225.21 182.12 1222.49 172.53 C 1220.66 163.23 1210.12 158.49 1201.44 160.68 M 1282.34 205.22 C 1276.49 207.53 1272.47 212.47 1268.57 217.14 C 1268.51 213.01 1268.60 208.88 1268.44 204.76 C 1258.31 204.62 1248.18 204.62 1238.05 204.77 C 1238.25 235.43 1237.93 266.10 1238.09 296.77 C 1248.26 296.66 1258.42 296.80 1268.59 296.69 C 1268.51 280.46 1268.60 264.23 1268.54 248.00 C 1268.38 243.09 1268.52 237.76 1271.72 233.72 C 1276.44 226.41 1287.51 224.18 1294.49 229.49 C 1299.70 233.60 1300.66 240.73 1300.88 246.94 C 1301.08 263.54 1300.70 280.15 1301.06 296.76 C 1311.11 296.72 1321.16 296.71 1331.21 296.76 C 1331.74 279.85 1331.27 262.92 1331.45 246.00 C 1331.51 234.76 1329.81 222.59 1322.26 213.75 C 1312.85 202.35 1295.60 199.75 1282.34 205.22 M 1190.30 204.91 C 1190.32 235.51 1190.31 266.12 1190.30 296.72 C 1200.48 296.76 1210.67 296.69 1220.85 296.76 C 1220.91 266.11 1220.88 235.46 1220.86 204.81 C 1210.68 204.65 1200.47 204.47 1190.30 204.91 Z" />
<path fill="#0181b3" opacity="1.00" d=" M 208.13 171.97 C 212.80 161.51 217.82 151.00 225.08 142.06 C 224.14 144.37 223.18 146.70 221.74 148.75 C 215.99 156.85 211.76 165.90 207.97 175.05 C 205.97 180.70 204.33 186.48 202.01 192.02 C 203.17 185.10 205.85 178.57 208.13 171.97 Z" />
<path fill="#0181b3" opacity="1.00" d=" M 198.24 241.76 C 199.31 248.57 201.47 255.18 202.08 262.07 C 200.27 255.41 197.93 248.78 198.24 241.76 Z" />
<path fill="#0181b3" opacity="1.00" d=" M 167.57 244.44 L 168.19 244.16 C 167.14 247.38 171.76 245.73 168.87 243.91 C 169.22 243.80 169.94 243.59 170.30 243.48 C 170.77 244.12 171.70 245.41 172.16 246.06 C 170.33 246.92 168.34 247.19 166.34 246.91 C 166.65 246.29 167.26 245.06 167.57 244.44 Z" />
<path fill="#0181b3" opacity="1.00" d=" M 202.27 262.90 C 203.64 266.69 205.19 270.42 206.51 274.23 C 211.05 286.93 218.19 298.44 225.16 309.91 C 221.79 305.82 218.51 301.61 216.37 296.73 C 210.51 286.02 204.59 275.00 202.27 262.90 Z" />
<path fill="#0181b3" opacity="1.00" d=" M 455.91 303.01 C 458.65 297.43 461.88 292.07 466.19 287.55 C 472.22 291.83 476.52 298.20 483.05 301.82 C 491.47 306.50 498.91 312.66 506.79 318.16 C 510.33 320.30 514.18 322.20 516.57 325.75 C 514.24 329.80 512.06 333.92 509.58 337.87 C 508.87 336.14 508.63 334.09 507.34 332.68 C 505.18 331.39 502.61 330.93 500.57 329.46 C 499.20 327.77 498.36 325.70 496.83 324.14 C 491.20 319.44 483.85 317.48 478.17 312.84 C 474.84 310.19 471.38 307.66 468.40 304.60 C 466.68 302.99 465.09 301.08 462.87 300.16 C 460.35 300.49 458.14 301.89 455.91 303.01 Z" />
<path fill="#0181b3" opacity="1.00" d=" M 437.01 323.99 C 439.96 320.91 442.96 317.86 446.27 315.16 C 441.65 321.83 435.39 327.04 429.51 332.53 C 426.91 334.97 424.06 337.11 421.07 339.02 C 421.89 338.24 422.71 337.45 423.52 336.65 C 427.89 332.30 432.72 328.44 437.01 323.99 Z" />
<path fill="#0181b3" opacity="1.00" d=" M 220.60 332.86 C 221.78 339.85 217.28 346.64 219.49 353.47 C 219.14 353.82 218.43 354.50 218.08 354.84 C 217.21 347.42 220.08 340.22 220.60 332.86 Z" />
<path fill="#0181b3" opacity="1.00" d=" M 211.49 365.25 C 209.72 361.29 211.53 356.94 212.10 352.90 C 211.67 357.00 211.60 361.13 211.49 365.25 Z" />
<path fill="#0181b3" opacity="1.00" d=" M 284.88 356.24 C 296.39 360.08 308.02 364.09 320.20 365.08 C 327.76 365.61 335.32 367.02 342.91 366.11 C 347.64 365.50 352.42 365.52 357.17 365.11 C 340.06 367.70 322.43 367.24 305.58 363.22 C 298.57 361.24 291.30 359.83 284.88 356.24 Z" />
<path fill="#0181b3" opacity="1.00" d=" M 283.41 376.12 C 285.83 376.45 288.72 376.37 290.42 378.45 C 290.94 383.63 289.92 389.00 291.88 393.98 C 292.97 392.70 294.05 391.41 295.18 390.17 C 294.18 392.37 292.99 394.51 291.25 396.23 C 289.60 390.45 291.48 384.20 289.47 378.56 C 287.73 377.37 285.60 376.98 283.63 376.37 C 283.74 385.67 285.71 394.85 285.70 404.17 C 287.51 404.98 289.31 405.80 291.12 406.62 C 292.05 405.39 292.99 404.16 293.87 402.89 C 293.44 404.22 292.99 405.54 292.56 406.87 C 290.06 406.75 287.69 405.97 285.53 404.73 C 284.90 395.19 283.00 385.71 283.41 376.12 Z" />
<path fill="#0181b3" opacity="1.00" d=" M 266.03 422.09 C 284.21 427.03 302.39 433.21 321.43 433.53 C 331.32 434.25 341.26 434.44 351.15 433.58 C 363.66 433.32 375.88 430.41 388.10 428.03 C 380.22 430.78 371.89 431.73 363.71 433.16 C 355.45 433.43 347.28 434.93 338.99 434.50 C 314.18 435.03 289.19 431.14 266.03 422.09 Z" />
</g>
<g id="#1a950dff">
<path fill="#1a950d" opacity="1.00" d=" M 180.29 98.52 C 183.63 97.80 185.24 100.94 187.01 103.11 C 189.60 106.67 194.29 107.59 197.22 110.77 C 199.53 113.21 202.19 115.27 205.16 116.84 C 208.99 118.86 211.75 122.25 214.80 125.23 C 217.59 128.10 221.74 128.81 224.91 131.11 C 227.05 132.67 227.66 135.38 228.43 137.75 C 227.27 139.16 226.14 140.58 225.08 142.06 C 217.82 151.00 212.80 161.51 208.13 171.97 C 205.85 178.57 203.17 185.10 202.01 192.02 C 201.02 196.38 199.28 200.57 198.73 205.03 C 197.90 217.25 196.79 229.54 198.24 241.76 C 197.93 248.78 200.27 255.41 202.08 262.07 L 202.27 262.90 C 204.59 275.00 210.51 286.02 216.37 296.73 C 218.51 301.61 221.79 305.82 225.16 309.91 C 240.04 330.30 260.55 346.78 284.17 355.91 L 284.88 356.24 C 291.30 359.83 298.57 361.24 305.58 363.22 C 322.43 367.24 340.06 367.70 357.17 365.11 C 380.19 361.80 402.20 352.58 421.07 339.02 C 424.06 337.11 426.91 334.97 429.51 332.53 C 435.39 327.04 441.65 321.83 446.27 315.16 C 449.76 311.33 452.42 306.85 455.91 303.01 C 458.14 301.89 460.35 300.49 462.87 300.16 C 465.09 301.08 466.68 302.99 468.40 304.60 C 471.38 307.66 474.84 310.19 478.17 312.84 C 483.85 317.48 491.20 319.44 496.83 324.14 C 498.36 325.70 499.20 327.77 500.57 329.46 C 502.61 330.93 505.18 331.39 507.34 332.68 C 508.63 334.09 508.87 336.14 509.58 337.87 C 482.96 382.28 438.30 415.42 388.10 428.03 C 375.88 430.41 363.66 433.32 351.15 433.58 C 341.26 434.44 331.32 434.25 321.43 433.53 C 302.39 433.21 284.21 427.03 266.03 422.09 C 211.39 402.35 166.00 358.33 145.04 304.10 C 136.01 280.85 131.14 255.96 131.32 231.00 C 131.13 182.87 148.95 135.02 180.29 98.52 M 160.80 237.11 C 158.85 238.21 156.46 237.57 154.34 237.88 C 154.40 239.44 154.58 241.01 154.86 242.56 C 157.60 242.72 160.40 242.83 162.98 243.89 C 161.51 246.97 157.59 244.58 155.41 246.48 C 153.97 247.47 154.99 249.17 155.25 250.47 C 157.65 250.95 160.04 251.47 162.48 251.68 C 162.87 252.76 163.26 253.84 163.64 254.93 C 166.04 255.08 167.36 252.93 169.06 251.63 C 171.66 252.10 172.19 255.67 175.03 255.74 C 175.63 254.68 176.23 253.63 176.84 252.58 C 178.81 252.58 180.77 252.54 182.75 252.50 C 182.59 251.04 183.17 249.29 182.11 248.08 C 180.03 247.63 177.89 247.48 175.80 247.11 L 176.07 245.89 C 177.55 246.44 178.30 245.98 178.32 244.49 C 179.28 244.53 181.18 244.60 182.13 244.64 C 182.46 242.96 182.37 241.26 181.76 239.66 C 179.84 239.54 177.93 239.40 176.01 239.30 C 174.51 237.70 173.25 235.59 170.92 235.18 C 170.28 236.45 169.63 237.72 168.97 238.98 C 167.01 238.14 165.69 236.51 164.55 234.78 C 163.31 235.56 162.08 236.38 160.80 237.11 M 156.63 236.20 C 157.01 237.64 159.61 237.65 160.80 237.11 C 160.35 235.61 157.80 235.44 156.63 236.20 M 167.43 261.66 C 164.93 262.52 163.16 264.54 161.55 266.54 C 158.41 269.83 159.29 274.86 159.78 278.96 C 161.58 282.72 163.59 287.13 168.09 288.12 C 173.34 289.38 180.04 289.25 183.98 285.01 C 190.38 278.74 188.71 266.75 181.15 262.09 C 177.09 259.48 171.69 259.65 167.43 261.66 M 179.76 294.87 C 176.13 296.70 172.02 297.60 168.79 300.16 C 167.47 301.81 169.11 304.05 169.33 305.87 C 172.71 306.12 175.43 304.03 178.16 302.38 C 179.75 304.64 181.00 307.13 182.59 309.39 C 186.44 314.94 197.20 313.08 198.07 306.03 C 199.20 299.88 195.35 294.21 192.57 289.00 C 188.20 290.71 183.93 292.70 179.76 294.87 M 196.54 316.61 C 191.87 319.96 186.92 322.95 182.46 326.58 C 181.52 328.56 183.22 330.25 184.22 331.79 C 186.70 335.11 188.27 339.21 191.78 341.67 C 192.55 341.24 194.08 340.38 194.85 339.95 C 193.99 336.17 191.17 333.33 189.40 329.99 C 190.99 328.44 192.64 326.89 194.86 326.37 C 196.09 328.60 197.48 330.73 198.96 332.80 C 199.63 332.52 200.97 331.94 201.64 331.65 C 203.36 328.72 200.34 325.91 198.70 323.71 C 199.82 321.70 202.01 320.96 204.06 320.26 C 206.29 323.34 207.88 327.36 211.59 328.96 C 212.18 327.51 213.36 326.02 212.58 324.41 C 210.94 319.71 207.00 316.34 204.54 312.09 C 201.51 312.85 199.09 314.93 196.54 316.61 M 211.97 334.95 C 207.62 339.62 202.74 343.78 198.38 348.44 C 197.33 350.72 199.72 352.91 201.94 352.46 C 205.94 350.10 208.10 345.43 212.67 343.88 C 212.65 346.89 212.44 349.90 212.10 352.90 C 211.53 356.94 209.72 361.29 211.49 365.25 C 212.96 365.29 214.85 366.36 216.07 365.07 C 221.95 358.99 228.39 353.45 233.94 347.05 C 232.98 346.07 231.99 345.14 230.97 344.26 C 228.74 343.73 227.46 345.80 226.04 347.09 C 223.94 349.30 221.70 351.37 219.49 353.47 C 217.28 346.64 221.78 339.85 220.60 332.86 C 219.20 332.15 217.87 331.03 216.20 331.15 C 214.53 332.08 213.32 333.62 211.97 334.95 M 234.16 353.06 C 235.88 355.05 238.04 356.55 240.20 358.01 C 236.93 364.21 231.86 369.28 228.52 375.47 C 228.36 376.45 228.25 377.45 228.19 378.45 C 229.79 378.87 231.34 379.59 233.02 379.63 C 238.32 374.72 240.62 367.48 245.88 362.51 C 247.88 363.67 249.80 365.04 252.03 365.74 C 253.67 365.05 255.98 362.74 253.87 361.24 C 248.57 357.97 243.72 354.06 238.63 350.50 C 236.51 349.32 235.31 351.73 234.16 353.06 M 257.79 365.43 C 260.55 365.80 263.35 365.91 266.12 365.66 C 263.41 364.86 260.56 365.21 257.79 365.43 M 397.85 369.65 C 396.14 373.97 396.82 378.99 394.00 382.92 C 390.81 380.72 391.37 376.30 388.88 373.66 C 386.87 372.77 384.90 374.75 383.06 375.40 C 385.77 383.54 390.00 391.08 392.82 399.18 C 394.36 400.28 396.44 399.48 398.22 399.57 C 398.67 398.69 399.14 397.81 399.61 396.95 C 398.00 393.94 396.58 390.83 395.62 387.56 C 401.05 386.03 404.70 391.26 409.07 393.38 C 411.61 393.70 413.92 392.38 415.92 390.97 C 411.75 386.53 405.69 384.53 401.52 380.07 C 402.65 375.49 404.26 371.01 404.60 366.27 C 402.05 366.45 399.25 367.37 397.85 369.65 M 256.53 368.72 C 253.09 370.37 250.35 373.49 249.39 377.21 C 246.27 384.76 251.74 394.59 259.97 395.48 C 264.36 396.24 269.37 395.89 272.89 392.86 C 277.12 388.20 279.57 380.81 275.85 375.12 C 272.63 368.15 263.26 365.33 256.53 368.72 M 283.41 376.12 C 283.00 385.71 284.90 395.19 285.53 404.73 C 287.69 405.97 290.06 406.75 292.56 406.87 C 292.99 405.54 293.44 404.22 293.87 402.89 C 296.81 398.84 298.50 394.06 301.29 389.92 C 302.76 395.89 302.63 402.07 302.87 408.18 C 305.03 409.14 308.49 410.85 310.02 408.06 C 314.65 400.58 318.51 392.63 322.71 384.89 C 320.63 384.16 318.34 382.91 316.12 383.85 C 313.00 388.69 311.39 394.41 307.76 398.99 C 307.40 393.35 307.01 387.66 305.70 382.16 C 305.14 379.59 301.93 380.55 300.08 380.45 C 298.68 383.80 296.86 386.95 295.18 390.17 C 294.05 391.41 292.97 392.70 291.88 393.98 C 289.92 389.00 290.94 383.63 290.42 378.45 C 288.72 376.37 285.83 376.45 283.41 376.12 M 357.31 381.46 C 357.72 384.56 358.29 387.65 359.29 390.63 C 361.06 396.09 361.40 401.89 362.92 407.41 C 364.54 409.91 367.69 407.82 369.82 407.24 C 369.20 403.89 368.17 400.59 368.36 397.15 C 372.82 397.53 374.63 402.29 377.93 404.65 C 380.39 404.94 382.77 404.13 385.12 403.51 C 382.59 400.03 379.39 397.13 376.45 394.02 C 378.08 390.82 379.58 387.14 378.43 383.52 C 377.17 381.16 374.92 378.91 372.05 379.16 C 366.99 378.67 362.14 380.26 357.31 381.46 M 334.39 383.71 C 326.57 385.81 323.28 395.55 326.15 402.65 C 328.59 411.25 340.21 413.59 347.26 409.27 C 355.94 404.59 355.87 390.44 347.86 385.13 C 343.89 382.66 338.82 382.41 334.39 383.71 Z" />
<path fill="#1a950d" opacity="1.00" d=" M 168.19 244.16 L 168.87 243.91 C 171.76 245.73 167.14 247.38 168.19 244.16 Z" />
<path fill="#1a950d" opacity="1.00" d=" M 168.48 268.34 C 172.55 266.56 179.06 265.91 181.62 270.47 C 183.86 274.61 181.65 280.68 176.95 281.89 C 173.58 282.97 169.43 283.02 166.79 280.34 C 164.64 276.66 164.35 270.76 168.48 268.34 Z" />
<path fill="#1a950d" opacity="1.00" d=" M 183.31 301.00 C 185.62 299.10 188.13 297.32 191.19 296.93 C 192.58 299.43 192.59 302.26 192.38 305.04 C 190.67 305.59 188.98 306.76 187.12 306.21 C 185.33 304.91 184.40 302.84 183.31 301.00 Z" />
<path fill="#1a950d" opacity="1.00" d=" M 260.22 373.93 C 264.08 372.52 270.17 373.60 270.83 378.46 C 271.87 383.19 269.40 389.77 263.96 390.39 C 261.10 390.63 258.22 389.43 255.95 387.77 C 254.34 383.00 255.01 376.16 260.22 373.93 Z" />
<path fill="#1a950d" opacity="1.00" d=" M 365.36 384.53 C 367.71 384.73 371.05 383.30 372.41 386.00 C 373.38 389.54 370.45 393.11 366.81 392.86 C 365.48 390.27 365.15 387.39 365.36 384.53 Z" />
<path fill="#1a950d" opacity="1.00" d=" M 334.53 389.65 C 337.02 388.38 340.11 387.82 342.74 389.01 C 347.20 390.71 348.12 396.74 346.81 400.80 C 345.11 407.35 333.77 407.58 332.14 400.86 C 331.37 397.17 331.28 392.17 334.53 389.65 Z" />
</g>
<g id="#000000ff">
<path fill="#000000" opacity="1.00" d=" M 700.39 160.60 C 707.04 159.45 714.71 161.60 718.46 167.56 C 722.64 173.98 721.57 183.58 715.41 188.40 C 708.94 193.42 698.95 193.61 692.41 188.64 C 686.17 183.93 684.72 174.35 688.89 167.84 C 691.30 163.77 695.81 161.33 700.39 160.60 Z" />
<path fill="#000000" opacity="1.00" d=" M 591.43 165.93 C 601.65 165.69 611.89 165.86 622.12 165.84 C 622.16 200.26 622.10 234.68 622.15 269.10 C 640.15 269.18 658.16 269.10 676.17 269.14 C 676.20 278.37 676.20 287.60 676.17 296.83 C 647.92 296.84 619.67 296.86 591.43 296.83 C 591.46 253.20 591.46 209.57 591.43 165.93 Z" />
<path fill="#000000" opacity="1.00" d=" M 839.34 165.90 C 849.54 165.72 859.74 165.85 869.95 165.84 C 870.31 190.30 869.94 214.78 870.13 239.26 C 878.53 227.01 887.21 214.96 895.87 202.89 C 896.63 201.86 897.43 200.46 898.98 200.76 C 910.65 200.78 922.32 200.64 934.00 200.84 C 922.69 214.13 910.48 226.63 899.06 239.82 C 912.51 258.77 925.95 277.74 939.23 296.82 C 926.64 296.82 914.05 296.96 901.47 296.74 C 893.71 283.57 885.61 270.60 877.74 257.49 C 875.16 260.66 872.25 263.63 870.18 267.16 C 869.86 277.04 870.36 286.95 869.93 296.84 C 859.73 296.84 849.53 296.85 839.34 296.83 C 839.36 253.19 839.36 209.55 839.34 165.90 Z" />
<path fill="#000000" opacity="1.00" d=" M 1097.98 165.84 C 1108.20 165.85 1118.42 165.72 1128.64 165.90 C 1128.62 196.27 1128.64 226.64 1128.63 257.01 C 1128.54 270.30 1128.67 283.59 1129.36 296.87 C 1120.31 296.80 1111.26 296.87 1102.21 296.84 C 1101.67 292.14 1101.46 287.42 1100.93 282.73 C 1097.09 287.99 1092.51 292.92 1086.38 295.48 C 1074.06 301.13 1058.83 300.08 1047.57 292.46 C 1036.33 285.09 1029.81 272.14 1028.04 259.07 C 1026.17 245.05 1028.08 229.99 1035.95 217.97 C 1042.43 207.91 1053.29 200.75 1065.18 199.09 C 1076.81 197.39 1090.13 199.89 1097.92 209.40 C 1097.92 194.88 1097.79 180.35 1097.98 165.84 M 1073.39 222.53 C 1068.96 223.85 1065.18 226.98 1062.87 230.95 C 1058.92 237.52 1058.03 245.48 1058.63 253.00 C 1059.24 259.67 1061.65 266.62 1066.99 270.99 C 1073.87 276.74 1084.99 276.77 1091.67 270.66 C 1095.61 267.30 1097.70 262.16 1097.82 257.04 C 1097.97 251.35 1097.88 245.65 1097.88 239.96 C 1098.06 232.84 1093.53 225.90 1087.01 223.10 C 1082.71 221.30 1077.82 221.19 1073.39 222.53 Z" />
<path fill="#000000" opacity="1.00" d=" M 952.79 204.78 C 964.00 198.42 977.64 197.06 990.15 199.68 C 1000.56 201.87 1009.90 208.55 1015.20 217.79 C 1022.24 229.97 1023.66 244.81 1021.24 258.50 C 1000.09 258.33 978.93 258.37 957.78 258.28 C 958.32 267.28 966.42 273.63 974.73 275.36 C 987.38 278.12 1000.60 276.15 1012.92 272.66 C 1014.11 279.39 1015.64 286.05 1016.83 292.79 C 1003.25 298.15 988.38 299.45 973.91 298.53 C 960.13 297.46 946.01 291.79 937.65 280.36 C 929.35 269.04 927.22 254.15 929.32 240.52 C 931.56 226.02 939.84 212.11 952.79 204.78 M 964.22 223.22 C 960.32 227.05 958.25 232.39 957.61 237.75 C 969.71 237.69 981.82 237.76 993.92 237.71 C 993.74 231.41 991.69 224.48 986.17 220.84 C 979.45 216.67 969.85 217.60 964.22 223.22 Z" />
<path fill="#000000" opacity="1.00" d=" M 780.16 204.30 C 792.48 200.47 807.43 202.81 816.50 212.48 C 823.83 220.36 826.53 231.43 826.73 241.94 C 826.79 260.24 826.74 278.54 826.76 296.84 C 816.56 296.84 806.37 296.84 796.17 296.84 C 796.16 280.23 796.19 263.62 796.16 247.00 C 795.98 240.72 794.92 233.49 789.55 229.43 C 783.54 225.17 774.46 226.05 769.32 231.30 C 765.89 234.57 763.82 239.20 763.87 243.95 C 763.80 261.58 763.87 279.21 763.84 296.85 C 753.64 296.84 743.44 296.85 733.23 296.84 C 733.33 266.16 733.47 235.47 733.24 204.79 C 743.44 204.66 753.64 204.74 763.85 204.75 C 763.86 208.93 763.77 213.12 763.94 217.30 C 768.11 211.68 773.28 206.40 780.16 204.30 Z" />
<path fill="#000000" opacity="1.00" d=" M 688.30 204.83 C 698.49 204.62 708.69 204.77 718.89 204.75 C 718.89 235.45 718.91 266.15 718.88 296.86 C 708.69 296.82 698.50 296.87 688.31 296.83 C 688.31 266.16 688.33 235.49 688.30 204.83 Z" />
<path fill="#000000" opacity="1.00" d=" M 156.63 236.20 C 157.80 235.44 160.35 235.61 160.80 237.11 C 159.61 237.65 157.01 237.64 156.63 236.20 Z" />
<path fill="#000000" opacity="1.00" d=" M 176.07 245.89 C 176.28 244.68 177.03 244.22 178.32 244.49 C 178.30 245.98 177.55 246.44 176.07 245.89 Z" />
<path fill="#000000" opacity="1.00" d=" M 257.79 365.43 C 260.56 365.21 263.41 364.86 266.12 365.66 C 263.35 365.91 260.55 365.80 257.79 365.43 Z" />
</g>
</svg>
