<?xml version="1.0" encoding="UTF-8" ?>
<!DOCTYPE svg PUBLIC "-//W3C//DTD SVG 1.1//EN" "http://www.w3.org/Graphics/SVG/1.1/DTD/svg11.dtd">
<svg width="1302pt" height="332pt" viewBox="0 0 1302 332" version="1.1" xmlns="http://www.w3.org/2000/svg">
<g id="#fefefeff">
</g>
<g id="#1b191dff">
<path fill="#1b191d" opacity="1.00" d=" M 370.50 47.72 C 375.73 47.73 380.96 47.71 386.19 47.75 C 386.20 95.82 386.17 143.89 386.20 191.96 C 380.97 192.17 375.73 192.05 370.50 192.07 C 370.51 143.96 370.51 95.84 370.50 47.72 Z" />
<path fill="#1b191d" opacity="1.00" d=" M 154.73 58.83 C 169.19 58.92 183.67 58.60 198.13 59.06 C 210.30 59.87 223.22 62.00 232.95 69.95 C 241.01 76.33 245.12 86.81 244.70 96.97 C 245.09 107.68 240.49 118.59 232.07 125.34 C 224.62 131.36 215.34 134.72 205.97 136.30 C 194.58 138.38 182.88 138.54 171.37 137.40 C 171.27 155.62 171.35 173.85 171.33 192.07 C 165.79 192.08 160.26 192.08 154.72 192.07 C 154.73 147.66 154.72 103.25 154.73 58.83 M 171.33 122.51 C 181.83 123.81 192.54 123.69 202.98 121.89 C 210.94 120.27 219.45 117.04 223.98 109.85 C 227.72 103.63 228.16 95.70 226.04 88.85 C 223.27 80.93 215.08 76.48 207.25 74.98 C 195.39 72.99 183.33 73.90 171.37 73.64 C 171.28 89.93 171.35 106.22 171.33 122.51 Z" />
<path fill="#1b191d" opacity="1.00" d=" M 272.63 100.09 C 285.59 95.29 299.86 93.60 313.49 96.24 C 323.12 98.15 332.44 103.85 336.95 112.80 C 339.30 117.48 340.06 122.78 340.16 127.97 C 340.16 149.34 340.16 170.70 340.16 192.07 C 335.75 192.08 331.34 192.08 326.93 192.07 C 326.39 188.60 325.79 185.13 325.18 181.68 C 317.59 190.57 305.64 195.28 294.04 194.70 C 283.87 194.65 273.12 189.79 268.25 180.50 C 261.51 168.35 262.86 151.09 273.84 141.82 C 282.62 134.22 294.95 132.90 306.08 134.01 C 312.34 134.56 318.55 135.78 324.43 138.02 C 324.30 132.15 325.18 125.97 322.70 120.45 C 319.40 114.20 312.70 110.21 305.77 109.44 C 294.58 108.26 283.23 109.70 272.54 113.15 C 272.55 108.79 272.49 104.44 272.63 100.09 M 282.60 154.77 C 277.92 163.40 280.50 176.71 290.47 180.31 C 302.65 184.62 316.14 178.36 324.38 169.31 C 324.58 162.94 324.38 156.57 324.46 150.20 C 316.83 148.12 308.97 146.58 301.03 146.68 C 294.20 146.59 286.39 148.57 282.60 154.77 Z" />
<path fill="#1b191d" opacity="1.00" d=" M 452.99 96.14 C 460.85 94.30 469.50 94.50 476.86 98.08 C 483.41 101.38 488.16 107.45 491.02 114.10 C 496.97 105.92 504.93 98.52 515.02 96.10 C 523.89 94.09 533.61 94.82 541.77 98.99 C 551.27 104.33 556.25 115.32 556.34 125.94 C 556.63 147.98 556.38 170.03 556.47 192.08 C 551.24 192.07 546.02 192.08 540.80 192.07 C 540.80 171.38 540.81 150.68 540.80 129.99 C 540.66 123.50 539.21 116.28 533.96 111.93 C 529.33 108.07 522.83 107.68 517.09 108.43 C 507.78 109.91 500.31 116.65 495.03 124.09 C 494.13 125.18 494.49 126.69 494.38 127.99 C 494.43 149.35 494.38 170.71 494.41 192.07 C 489.17 192.08 483.93 192.08 478.69 192.07 C 478.68 171.37 478.70 150.66 478.68 129.96 C 478.53 123.75 477.35 116.88 472.51 112.52 C 467.90 108.10 460.99 107.64 454.97 108.43 C 445.35 110.06 437.32 117.14 432.42 125.28 C 432.16 147.53 432.38 169.81 432.31 192.07 C 427.07 192.08 421.84 192.08 416.60 192.07 C 416.60 160.61 416.62 129.16 416.59 97.70 C 420.63 97.69 424.67 97.71 428.71 97.66 C 429.84 102.03 430.86 106.44 431.87 110.85 C 437.08 103.86 444.39 98.17 452.99 96.14 Z" />
<path fill="#1b191d" opacity="1.00" d=" M 589.57 100.29 C 602.00 95.26 615.87 93.87 629.10 95.95 C 637.94 97.43 646.48 101.88 651.85 109.20 C 655.81 114.59 657.17 121.45 657.20 128.02 C 657.19 149.37 657.20 170.72 657.20 192.07 C 652.78 192.07 648.37 192.08 643.96 192.07 C 643.45 188.60 642.86 185.14 642.28 181.68 C 634.84 190.29 623.35 195.07 612.02 194.72 C 602.07 194.86 591.48 190.60 586.11 181.87 C 578.98 170.37 579.38 153.80 588.89 143.72 C 595.35 136.95 604.83 133.98 614.00 133.73 C 623.32 133.48 632.75 134.78 641.52 138.02 C 641.37 132.29 642.26 126.27 639.95 120.85 C 636.83 114.41 630.03 110.33 623.05 109.47 C 611.81 108.29 600.34 109.59 589.64 113.23 C 589.57 108.92 589.61 104.60 589.57 100.29 M 598.76 156.63 C 596.36 163.47 597.09 172.18 602.68 177.30 C 607.84 181.97 615.44 182.42 621.95 181.05 C 629.36 179.08 636.47 175.07 641.46 169.25 C 641.67 162.91 641.47 156.55 641.54 150.20 C 632.66 147.77 623.43 146.12 614.21 146.84 C 607.97 147.49 601.19 150.43 598.76 156.63 Z" />
<path fill="#1b191d" opacity="1.00" d=" M 330.77 226.84 C 332.39 225.40 334.03 223.98 335.67 222.57 C 338.41 226.09 341.28 229.50 344.01 233.02 C 342.56 234.22 341.10 235.41 339.64 236.60 C 336.67 233.36 333.77 230.06 330.77 226.84 Z" />
<path fill="#1b191d" opacity="1.00" d=" M 841.41 222.73 C 843.20 224.00 844.92 225.35 846.66 226.70 C 843.68 230.01 840.65 233.27 837.69 236.59 C 836.21 235.38 834.72 234.17 833.25 232.97 C 836.05 229.63 838.81 226.24 841.41 222.73 Z" />
<path fill="#1b191d" opacity="1.00" d=" M 504.07 229.50 C 506.35 229.52 508.64 229.52 510.93 229.50 C 510.94 243.65 510.90 257.80 510.96 271.95 C 508.62 271.93 506.28 271.93 503.95 271.94 C 504.04 270.84 504.21 268.64 504.30 267.54 C 501.80 273.68 492.64 274.05 488.91 268.99 C 485.35 264.44 486.44 258.27 486.32 252.90 C 486.15 247.69 489.26 241.54 495.04 241.20 C 498.73 240.46 502.07 242.66 504.17 245.51 C 503.97 240.18 504.11 234.84 504.07 229.50 M 496.24 247.93 C 492.85 249.64 493.25 253.83 493.23 257.01 C 493.37 259.45 492.85 262.34 494.65 264.33 C 497.17 267.41 503.30 266.35 503.86 262.12 C 504.22 258.44 504.30 254.67 503.72 251.01 C 503.15 247.73 498.94 246.69 496.24 247.93 Z" />
<path fill="#1b191d" opacity="1.00" d=" M 568.40 239.02 C 570.84 228.62 585.77 225.71 592.90 233.00 C 595.64 235.55 596.85 239.18 597.84 242.69 C 595.46 242.70 593.08 242.70 590.72 242.71 C 589.53 238.92 586.27 235.24 581.92 235.91 C 577.69 235.97 574.88 240.07 574.82 244.00 C 574.73 249.28 574.24 254.67 575.26 259.89 C 576.21 264.70 582.37 267.09 586.47 264.55 C 588.77 263.41 589.79 260.94 590.77 258.73 C 593.11 258.73 595.45 258.72 597.81 258.73 C 596.58 264.44 593.05 270.28 587.06 271.83 C 579.16 274.46 569.22 269.60 568.07 260.96 C 567.26 253.72 566.99 246.20 568.40 239.02 Z" />
<path fill="#1b191d" opacity="1.00" d=" M 668.07 229.50 C 670.35 229.52 672.64 229.52 674.93 229.50 C 674.92 239.67 674.96 249.84 674.91 260.01 C 674.87 261.81 675.09 263.61 675.47 265.37 C 676.34 265.33 678.07 265.26 678.93 265.23 C 678.93 267.48 678.93 269.74 678.94 272.00 C 675.92 271.78 672.23 272.60 669.95 270.07 C 668.33 268.51 667.99 266.20 668.06 264.06 C 668.07 252.54 668.07 241.02 668.07 229.50 Z" />
<path fill="#1b191d" opacity="1.00" d=" M 810.07 229.50 C 812.35 229.52 814.64 229.52 816.93 229.50 C 816.92 231.83 816.92 234.16 816.93 236.50 C 814.64 236.48 812.35 236.48 810.06 236.50 C 810.06 234.16 810.06 231.83 810.07 229.50 Z" />
<path fill="#1b191d" opacity="1.00" d=" M 253.62 271.94 C 258.98 257.81 264.32 243.67 269.59 229.50 C 271.32 229.51 273.06 229.52 274.80 229.53 C 280.00 243.71 285.36 257.83 290.73 271.94 C 288.21 271.93 285.69 271.93 283.17 271.93 C 282.24 269.26 281.34 266.58 280.42 263.91 C 274.93 263.95 269.45 263.92 263.97 263.93 C 263.02 266.59 262.08 269.25 261.21 271.93 C 258.68 271.93 256.15 271.93 253.62 271.94 M 266.23 257.31 C 270.18 257.29 274.13 257.30 278.09 257.30 C 276.16 251.68 274.25 246.05 272.22 240.46 C 269.98 245.99 268.28 251.71 266.23 257.31 Z" />
<path fill="#1b191d" opacity="1.00" d=" M 423.72 229.52 C 426.04 229.52 428.37 229.51 430.71 229.50 C 430.70 231.83 430.70 234.16 430.71 236.50 C 428.37 236.48 426.04 236.48 423.72 236.48 C 423.72 234.16 423.72 231.84 423.72 229.52 Z" />
<path fill="#1b191d" opacity="1.00" d=" M 637.71 229.52 C 640.04 229.52 642.37 229.51 644.71 229.49 C 644.72 240.68 644.64 251.88 644.73 263.07 C 644.13 265.57 647.13 265.18 648.73 265.46 C 648.70 267.63 648.70 269.80 648.71 271.98 C 646.28 271.85 643.73 272.25 641.43 271.34 C 638.74 270.03 637.50 266.90 637.72 264.04 C 637.73 252.54 637.74 241.03 637.71 229.52 Z" />
<path fill="#1b191d" opacity="1.00" d=" M 195.47 233.69 L 195.39 234.71 C 195.76 234.66 196.49 234.56 196.86 234.51 C 197.82 235.32 198.81 236.07 199.85 236.77 L 200.03 237.15 C 201.97 240.39 201.97 244.21 201.77 247.87 L 201.69 249.54 L 200.71 249.45 C 200.64 251.40 198.81 251.50 197.37 251.89 C 197.41 250.87 197.46 249.87 197.53 248.86 C 201.06 245.75 199.24 241.13 197.58 237.57 C 194.18 237.07 190.17 235.69 187.46 238.63 C 187.05 238.97 186.23 239.66 185.82 240.00 C 185.18 242.95 185.07 246.02 186.38 248.81 L 187.50 248.49 C 187.50 249.28 187.52 250.86 187.53 251.64 C 186.65 251.56 184.90 251.40 184.02 251.32 C 183.53 250.17 183.00 249.05 182.42 247.94 C 182.49 247.59 182.61 246.87 182.67 246.52 L 181.62 246.66 C 181.62 244.89 181.63 243.13 181.63 241.36 L 182.85 241.40 C 182.67 240.96 182.29 240.07 182.11 239.62 L 183.65 239.45 C 183.57 239.03 183.42 238.21 183.35 237.80 C 184.21 237.22 185.06 236.65 185.92 236.06 C 186.60 234.61 188.15 234.47 189.55 234.20 L 189.52 233.59 C 191.50 233.62 193.49 233.65 195.47 233.69 Z" />
<path fill="#1b191d" opacity="1.00" d=" M 295.09 252.90 C 294.97 248.00 297.55 242.22 302.86 241.34 C 306.72 240.26 310.53 242.25 312.77 245.35 C 312.75 244.39 312.71 242.48 312.69 241.52 C 315.03 241.52 317.37 241.52 319.72 241.50 C 319.67 251.64 319.73 261.77 319.69 271.91 C 319.78 276.48 317.38 281.21 313.05 283.08 C 307.33 285.44 299.66 284.75 295.70 279.54 C 297.22 278.15 298.74 276.77 300.26 275.38 C 303.01 277.92 307.44 279.24 310.65 276.73 C 313.36 274.73 312.57 271.06 312.77 268.16 C 309.85 273.66 301.45 273.88 297.77 269.11 C 294.07 264.60 295.23 258.30 295.09 252.90 M 304.39 248.35 C 302.13 249.73 302.04 252.61 301.92 254.96 C 301.92 257.72 301.65 260.63 302.68 263.26 C 304.46 267.28 311.47 266.99 312.51 262.57 C 312.92 258.77 312.88 254.89 312.51 251.09 C 311.91 247.56 307.06 246.41 304.39 248.35 Z" />
<path fill="#1b191d" opacity="1.00" d=" M 328.95 247.91 C 332.41 239.92 345.30 238.64 350.08 245.99 C 352.81 250.00 352.88 255.04 353.01 259.71 C 346.59 259.70 340.17 259.68 333.75 259.72 C 334.50 261.79 335.06 264.35 337.32 265.32 C 340.82 267.06 344.77 265.70 347.85 263.73 C 349.27 265.17 350.70 266.61 352.14 268.05 C 348.17 271.24 343.02 273.36 337.88 272.19 C 332.64 271.54 328.24 267.14 327.73 261.86 C 327.35 257.22 327.04 252.28 328.95 247.91 M 335.56 249.58 C 334.50 251.02 334.21 252.83 333.63 254.49 C 337.99 254.54 342.36 254.53 346.72 254.49 C 346.02 252.55 345.88 250.21 344.22 248.77 C 341.78 246.59 337.61 247.13 335.56 249.58 Z" />
<path fill="#1b191d" opacity="1.00" d=" M 367.41 245.53 C 369.47 242.85 372.50 240.61 376.10 241.28 C 381.35 241.16 385.05 246.20 385.29 251.10 C 385.75 258.03 385.33 264.99 385.50 271.94 C 383.16 271.93 380.83 271.93 378.50 271.93 C 378.50 265.93 378.58 259.92 378.49 253.92 C 378.51 251.57 377.56 248.64 374.92 248.16 C 372.02 246.98 367.56 248.49 367.53 252.05 C 367.39 258.67 367.51 265.30 367.50 271.93 C 365.17 271.93 362.83 271.93 360.50 271.94 C 360.53 261.79 360.53 251.65 360.51 241.51 C 362.84 241.52 365.18 241.52 367.53 241.51 C 367.50 242.52 367.44 244.53 367.41 245.53 Z" />
<path fill="#1b191d" opacity="1.00" d=" M 393.70 249.50 C 396.66 239.39 411.51 238.75 417.90 245.85 C 416.34 247.31 414.81 248.80 413.29 250.30 C 410.36 248.10 406.31 246.81 402.90 248.75 C 399.91 250.29 399.90 254.06 399.89 256.97 C 399.95 259.64 400.00 262.90 402.49 264.55 C 405.82 266.88 410.36 265.66 413.16 263.05 C 414.76 264.66 416.36 266.28 417.93 267.93 C 411.76 274.03 399.41 274.50 394.73 266.43 C 392.24 261.22 392.81 255.03 393.70 249.50 Z" />
<path fill="#1b191d" opacity="1.00" d=" M 438.77 245.49 C 442.08 242.42 446.55 240.78 451.07 241.27 C 456.27 241.00 461.64 244.67 462.13 250.09 C 462.49 257.36 462.15 264.65 462.28 271.93 C 460.08 271.93 457.88 271.93 455.69 271.93 C 455.70 271.40 455.73 270.35 455.74 269.82 C 452.18 272.59 447.32 273.14 443.09 271.77 C 435.65 269.82 435.38 257.06 442.71 254.78 C 447.00 253.58 451.51 254.20 455.90 254.08 C 455.63 252.05 455.88 249.36 453.75 248.22 C 450.34 246.04 446.59 248.43 443.10 248.86 C 441.55 247.87 440.19 246.63 438.77 245.49 M 445.82 259.68 C 442.93 260.81 443.29 265.84 446.42 266.46 C 449.41 266.95 452.89 267.16 455.51 265.31 C 455.82 263.38 455.72 261.42 455.78 259.48 C 452.46 259.56 449.11 259.23 445.82 259.68 Z" />
<path fill="#1b191d" opacity="1.00" d=" M 520.13 248.09 C 523.42 240.02 536.27 238.61 541.19 245.79 C 543.98 249.83 544.19 254.95 544.36 259.70 C 537.92 259.72 531.47 259.67 525.03 259.73 C 525.70 261.68 526.15 264.04 528.16 265.10 C 531.68 267.09 535.89 265.82 539.06 263.75 C 540.51 265.18 541.97 266.62 543.45 268.04 C 539.67 270.96 534.99 273.19 530.10 272.33 C 524.97 271.95 520.11 268.21 519.23 263.01 C 518.38 258.10 518.28 252.79 520.13 248.09 M 524.97 254.46 C 529.28 254.55 533.60 254.53 537.93 254.49 C 537.41 251.35 535.86 247.23 531.97 247.44 C 527.85 246.96 525.37 250.85 524.97 254.46 Z" />
<path fill="#1b191d" opacity="1.00" d=" M 612.55 241.74 C 617.44 240.68 623.47 240.94 626.96 245.06 C 629.96 248.24 629.96 252.88 629.97 256.97 C 630.00 261.02 629.76 265.52 626.88 268.67 C 620.95 274.86 608.00 273.60 605.16 264.86 C 603.76 260.42 604.24 255.61 604.53 251.04 C 605.10 246.72 608.24 242.80 612.55 241.74 M 614.36 248.39 C 611.80 249.45 611.10 252.41 611.25 254.92 C 611.37 258.01 610.61 261.64 612.88 264.18 C 614.68 266.06 617.78 266.13 620.07 265.17 C 622.97 263.58 623.03 259.96 623.11 257.07 C 623.00 254.29 623.23 250.92 620.89 248.95 C 618.97 247.75 616.41 247.31 614.36 248.39 Z" />
<path fill="#1b191d" opacity="1.00" d=" M 692.57 241.79 C 697.24 240.80 702.93 240.79 706.55 244.40 C 710.07 247.53 710.33 252.61 710.31 256.99 C 710.36 261.54 709.75 266.79 705.94 269.83 C 700.07 274.08 690.05 273.43 686.24 266.74 C 683.94 262.50 684.50 257.51 684.56 252.88 C 684.67 248.02 687.71 243.10 692.57 241.79 M 695.12 248.18 C 690.04 250.18 691.58 256.69 691.62 260.97 C 691.96 265.32 697.48 267.09 700.80 264.83 C 703.33 263.09 703.29 259.71 703.35 256.96 C 703.33 254.19 703.41 250.87 701.08 248.91 C 699.32 247.84 697.07 247.39 695.12 248.18 Z" />
<path fill="#1b191d" opacity="1.00" d=" M 721.11 244.13 C 727.13 239.54 736.69 240.30 741.90 245.85 C 740.34 247.31 738.80 248.80 737.29 250.30 C 734.51 248.28 730.82 246.88 727.49 248.47 C 724.40 249.58 723.85 253.16 723.89 256.01 C 723.93 258.95 723.72 262.64 726.46 264.52 C 729.78 266.89 734.35 265.67 737.16 263.05 C 738.76 264.66 740.36 266.28 741.93 267.93 C 737.01 272.62 729.19 273.91 723.11 270.79 C 719.22 268.78 717.15 264.36 717.11 260.11 C 716.92 254.64 716.48 248.05 721.11 244.13 Z" />
<path fill="#1b191d" opacity="1.00" d=" M 747.76 245.22 C 751.29 242.55 755.56 240.71 760.09 241.27 C 765.25 241.01 770.58 244.62 771.11 250.00 C 771.51 257.29 771.14 264.62 771.28 271.93 C 769.08 271.93 766.88 271.93 764.69 271.93 C 764.70 271.40 764.73 270.35 764.74 269.83 C 760.61 273.02 754.63 273.31 750.07 270.89 C 744.65 267.29 745.13 256.86 751.71 254.78 C 755.99 253.57 760.51 254.21 764.90 254.08 C 764.62 252.04 764.88 249.33 762.72 248.21 C 759.41 246.33 755.49 247.76 752.36 249.32 C 750.82 247.96 749.28 246.60 747.76 245.22 M 754.83 259.68 C 751.92 260.78 752.29 265.84 755.41 266.46 C 758.41 266.95 761.89 267.15 764.50 265.31 C 764.82 263.38 764.72 261.42 764.78 259.48 C 761.46 259.56 758.12 259.23 754.83 259.68 Z" />
<path fill="#1b191d" opacity="1.00" d=" M 783.85 243.76 C 789.89 239.63 799.10 240.41 804.13 245.87 C 802.67 247.24 801.28 248.69 799.72 249.94 C 797.14 249.23 794.77 247.27 791.96 247.85 C 789.19 248.09 786.53 250.20 786.39 253.11 C 786.27 256.30 785.75 259.78 787.11 262.77 C 789.76 267.13 796.18 266.29 799.42 263.05 C 801.02 264.67 802.60 266.30 804.16 267.97 C 799.19 272.64 791.35 273.91 785.28 270.74 C 781.06 268.56 779.19 263.60 779.29 259.07 C 779.07 253.73 779.05 247.26 783.85 243.76 Z" />
<path fill="#1b191d" opacity="1.00" d=" M 810.06 241.50 C 812.35 241.52 814.64 241.52 816.93 241.50 C 816.94 251.65 816.90 261.80 816.96 271.95 C 814.65 271.93 812.34 271.93 810.04 271.95 C 810.10 261.80 810.06 251.65 810.06 241.50 Z" />
<path fill="#1b191d" opacity="1.00" d=" M 832.53 241.74 C 837.42 240.69 843.44 240.93 846.94 245.03 C 849.95 248.21 849.96 252.86 849.97 256.96 C 850.00 261.03 849.76 265.54 846.86 268.70 C 840.93 274.84 828.04 273.60 825.18 264.90 C 823.76 260.48 824.24 255.69 824.52 251.13 C 825.06 246.77 828.20 242.82 832.53 241.74 M 834.38 248.38 C 831.79 249.43 831.10 252.42 831.25 254.93 C 831.36 258.02 830.62 261.65 832.88 264.18 C 834.70 266.07 837.80 266.14 840.09 265.15 C 843.00 263.55 843.03 259.91 843.11 257.02 C 842.99 254.26 843.22 250.90 840.88 248.94 C 838.97 247.76 836.42 247.31 834.38 248.38 Z" />
<path fill="#1b191d" opacity="1.00" d=" M 423.72 241.52 C 426.04 241.52 428.37 241.51 430.71 241.50 C 430.71 251.65 430.67 261.80 430.73 271.95 C 428.39 271.93 426.05 271.93 423.72 271.93 C 423.74 261.79 423.74 251.66 423.72 241.52 Z" />
<path fill="#1b191d" opacity="1.00" d=" M 653.50 253.07 C 655.90 253.07 658.31 253.06 660.72 253.05 C 660.70 255.46 660.69 257.87 660.70 260.28 C 658.30 260.27 655.91 260.27 653.52 260.28 C 653.51 257.87 653.51 255.47 653.50 253.07 Z" />
<path fill="#1b191d" opacity="1.00" d=" M 185.48 255.63 C 189.05 254.40 192.82 254.38 196.54 254.58 L 196.49 255.20 C 198.03 255.68 199.54 256.25 201.06 256.81 C 202.40 257.93 203.82 259.01 204.82 260.48 L 205.35 260.31 C 205.80 261.40 206.25 262.49 206.70 263.58 L 207.58 263.40 C 208.48 266.43 208.75 269.59 208.80 272.74 C 207.75 272.73 206.71 272.72 205.66 272.71 C 205.59 270.61 205.50 268.50 205.42 266.41 L 204.18 266.45 C 204.28 266.10 204.47 265.41 204.56 265.07 C 204.20 264.54 203.48 263.47 203.11 262.94 C 201.95 261.96 200.78 260.99 199.53 260.12 L 199.45 259.25 C 199.13 259.27 198.49 259.31 198.17 259.33 C 193.81 257.56 188.91 258.17 184.55 259.61 L 184.50 260.14 C 183.11 260.99 182.00 262.18 181.09 263.52 L 180.55 263.42 C 180.19 264.82 179.79 266.22 179.44 267.63 L 178.49 267.26 C 178.42 269.05 178.35 270.84 178.28 272.63 C 177.55 272.69 176.09 272.81 175.36 272.87 C 175.42 270.19 175.17 267.37 176.41 264.90 L 176.34 263.72 C 176.67 263.66 177.33 263.54 177.66 263.48 C 177.66 263.11 177.66 262.36 177.65 261.99 C 178.43 261.35 179.20 260.70 179.98 260.06 C 180.19 259.66 180.61 258.85 180.82 258.45 C 181.12 258.45 181.70 258.45 181.99 258.45 C 182.45 256.79 183.99 256.46 185.46 256.14 L 185.48 255.63 Z" />
</g>
<g id="#e54660ff">
<path fill="#e54660" opacity="1.00" d=" M 986.96 47.70 C 995.36 47.70 1003.76 47.69 1012.17 47.71 C 1012.11 56.37 1012.26 65.03 1012.08 73.68 C 1003.70 73.63 995.33 73.67 986.96 73.65 C 986.95 65.00 986.95 56.35 986.96 47.70 Z" />
<path fill="#e54660" opacity="1.00" d=" M 674.48 192.07 C 692.26 147.65 709.78 103.14 727.65 58.76 C 735.12 58.86 742.60 58.77 750.08 58.82 C 767.68 103.28 785.37 147.70 803.16 192.08 C 794.40 192.06 785.64 192.09 776.88 192.06 C 772.67 180.90 768.35 169.77 764.06 158.64 C 747.31 158.60 730.55 158.65 713.80 158.61 C 709.34 169.70 705.10 180.87 700.93 192.07 C 692.11 192.08 683.30 192.08 674.48 192.07 M 721.59 137.95 C 733.11 138.01 744.63 138.03 756.16 137.94 C 749.99 122.41 744.22 106.71 739.04 90.82 C 733.39 106.59 728.01 122.47 721.59 137.95 Z" />
<path fill="#e54660" opacity="1.00" d=" M 915.65 67.46 C 923.61 67.50 931.58 67.47 939.54 67.48 C 939.50 76.66 939.54 85.84 939.52 95.02 C 948.87 95.16 958.22 95.05 967.58 95.08 C 967.58 101.67 967.58 108.26 967.58 114.85 C 958.23 114.88 948.88 114.81 939.53 114.90 C 939.56 130.56 939.47 146.23 939.56 161.90 C 939.57 166.08 940.31 171.23 944.65 173.11 C 952.36 176.47 961.10 174.22 968.96 172.47 C 968.97 179.05 968.93 185.62 968.99 192.20 C 959.96 194.72 950.48 195.17 941.18 194.39 C 933.09 193.36 924.49 190.11 919.86 183.00 C 916.42 178.07 915.83 171.85 915.66 166.01 C 915.65 148.98 915.65 131.95 915.66 114.92 C 909.64 114.81 903.62 114.86 897.60 114.88 C 897.60 108.28 897.61 101.68 897.59 95.08 C 903.61 95.07 909.63 95.13 915.66 95.04 C 915.65 85.84 915.65 76.65 915.65 67.46 Z" />
<path fill="#e54660" opacity="1.00" d=" M 1141.76 99.83 C 1155.40 94.10 1170.52 92.08 1185.19 93.93 C 1195.64 95.66 1206.54 100.30 1212.32 109.64 C 1217.08 116.77 1217.35 125.69 1217.15 133.97 C 1217.28 153.34 1216.76 172.72 1217.67 192.07 C 1210.42 192.08 1203.17 192.08 1195.93 192.07 C 1195.76 188.68 1195.50 185.30 1195.13 181.93 C 1187.38 189.43 1177.06 195.17 1165.99 194.73 C 1154.95 195.07 1143.36 189.89 1137.80 180.05 C 1130.87 167.53 1132.53 150.10 1143.17 140.11 C 1149.07 134.55 1157.03 131.62 1164.97 130.57 C 1174.40 129.70 1184.01 130.26 1193.17 132.81 C 1193.28 128.12 1193.02 122.97 1189.87 119.20 C 1185.60 114.01 1178.52 112.24 1172.05 112.37 C 1161.63 112.11 1151.54 115.16 1141.75 118.37 C 1141.75 112.19 1141.74 106.01 1141.76 99.83 M 1158.98 156.97 C 1157.40 161.15 1157.58 166.19 1160.07 169.98 C 1162.46 173.57 1166.78 175.45 1171.00 175.64 C 1177.89 176.05 1184.58 173.07 1189.86 168.83 C 1191.23 167.51 1193.25 166.23 1193.11 164.06 C 1193.29 159.53 1193.13 154.99 1193.06 150.45 C 1185.50 148.93 1177.68 147.52 1170.01 149.01 C 1165.50 150.00 1160.77 152.46 1158.98 156.97 Z" />
<path fill="#e54660" opacity="1.00" d=" M 843.37 97.43 C 857.36 91.56 873.49 92.17 887.60 97.31 C 887.69 103.77 887.63 110.23 887.65 116.69 C 876.72 113.08 864.15 111.22 853.42 116.44 C 846.12 119.88 841.65 127.34 840.03 135.03 C 838.22 143.93 838.72 153.64 843.11 161.75 C 846.67 168.47 853.65 172.94 861.05 174.26 C 870.59 175.88 880.26 173.78 889.22 170.52 C 889.23 177.08 889.23 183.63 889.22 190.19 C 872.47 196.62 852.71 196.72 836.65 188.25 C 824.97 182.03 817.39 169.82 815.28 156.95 C 813.26 143.55 814.26 129.10 821.07 117.11 C 825.94 108.24 833.95 101.16 843.37 97.43 Z" />
<path fill="#e54660" opacity="1.00" d=" M 987.65 95.07 C 995.58 95.10 1003.51 95.08 1011.44 95.09 C 1011.46 127.41 1011.44 159.74 1011.45 192.07 C 1003.51 192.08 995.58 192.08 987.65 192.07 C 987.65 159.74 987.63 127.40 987.65 95.07 Z" />
<path fill="#e54660" opacity="1.00" d=" M 1025.59 95.11 C 1034.05 95.11 1042.52 94.97 1050.99 95.19 C 1058.95 117.92 1067.81 140.35 1075.04 163.34 C 1082.26 140.34 1090.89 117.82 1098.91 95.09 C 1107.41 95.10 1115.91 95.03 1124.42 95.14 C 1111.88 127.42 1099.39 159.72 1087.01 192.06 C 1079.03 192.08 1071.05 192.10 1063.07 192.05 C 1050.70 159.69 1038.09 127.42 1025.59 95.11 Z" />
<path fill="#e54660" opacity="1.00" d=" M 165.90 228.70 C 175.58 219.45 190.40 215.65 203.16 220.20 C 209.81 222.83 216.33 226.51 220.70 232.35 C 225.64 237.86 227.55 245.18 229.22 252.20 C 229.52 255.05 229.52 257.93 229.22 260.79 C 227.96 266.07 226.52 271.34 223.86 276.12 C 221.59 279.57 225.96 281.86 227.91 284.08 C 233.21 289.74 239.33 294.71 243.86 301.03 C 246.07 305.96 241.54 310.54 236.98 311.63 C 235.05 310.81 233.01 310.05 231.54 308.49 C 226.65 303.68 221.93 298.69 217.01 293.92 C 215.44 292.59 214.68 290.68 214.17 288.75 C 215.18 288.66 216.20 288.58 217.22 288.51 C 222.92 294.70 229.15 300.39 234.77 306.67 C 236.41 306.66 238.07 306.65 239.72 306.62 C 239.61 304.29 240.42 301.38 238.21 299.75 C 231.40 293.40 225.21 286.40 218.23 280.24 C 217.81 276.27 221.49 273.87 222.74 270.43 C 226.58 261.39 226.53 250.67 222.38 241.74 C 218.20 233.77 211.35 226.76 202.59 224.06 C 193.08 220.93 182.16 221.98 173.58 227.23 C 164.96 232.95 158.23 242.45 158.12 253.07 C 158.16 257.54 157.73 262.15 159.08 266.49 C 162.91 279.90 175.96 290.36 190.00 290.56 C 195.46 291.15 200.59 289.14 205.88 288.28 C 205.69 289.55 205.49 290.83 205.29 292.11 C 199.58 293.21 193.88 295.38 187.97 294.37 C 180.40 292.97 172.56 290.56 166.90 285.08 C 159.09 278.30 154.29 268.24 153.61 257.95 C 153.30 247.05 157.94 236.14 165.90 228.70 Z" />
<path fill="#e54660" opacity="1.00" d=" M 187.46 238.63 C 190.17 235.69 194.18 237.07 197.58 237.57 C 199.24 241.13 201.06 245.75 197.53 248.86 C 198.26 246.62 199.22 244.24 198.52 241.86 C 197.56 239.92 195.85 238.55 194.25 237.18 C 191.92 237.29 189.62 237.74 187.46 238.63 Z" />
<path fill="#e54660" opacity="1.00" d=" M 200.03 237.15 C 201.78 239.05 202.59 241.48 202.95 244.00 C 202.60 245.67 202.21 247.32 201.75 248.97 L 201.77 247.87 C 201.97 244.21 201.97 240.39 200.03 237.15 Z" />
</g>
</svg>
