<?xml version="1.0" encoding="UTF-8" ?>
<!DOCTYPE svg PUBLIC "-//W3C//DTD SVG 1.1//EN" "http://www.w3.org/Graphics/SVG/1.1/DTD/svg11.dtd">
<svg width="973pt" height="217pt" viewBox="0 0 973 217" version="1.1" xmlns="http://www.w3.org/2000/svg">
<g id="#ffffffff">
<path fill="#ffffff" opacity="1.00" d=" M 125.33 8.41 C 126.61 4.39 131.45 3.99 135.00 3.87 C 140.08 4.08 145.76 2.96 150.26 5.90 C 153.83 10.95 154.11 17.47 156.10 23.20 C 160.21 25.11 164.93 25.07 168.95 27.19 C 174.89 29.71 180.77 32.41 186.19 35.93 C 190.32 33.88 194.22 31.43 198.29 29.29 C 200.85 27.85 204.28 27.09 206.83 28.98 C 209.63 31.29 212.01 34.04 214.55 36.63 C 456.36 36.69 698.18 36.65 939.99 36.65 C 945.62 36.62 951.03 38.50 955.67 41.65 C 961.33 46.53 966.35 53.15 966.35 60.96 C 966.32 91.28 966.36 121.60 966.34 151.92 C 966.13 164.62 954.78 176.20 941.99 176.12 C 700.92 176.11 459.84 176.10 218.77 176.12 C 215.09 181.48 210.61 186.57 204.83 189.67 C 197.57 191.02 192.59 183.75 185.95 182.52 C 182.38 183.87 179.30 186.37 175.74 187.82 C 169.60 191.09 162.80 192.72 156.18 194.69 C 154.69 200.03 153.41 205.46 151.44 210.65 C 150.61 213.38 147.47 214.05 144.97 213.80 C 139.53 213.57 134.03 214.18 128.63 213.49 C 123.83 211.10 124.18 204.77 122.42 200.38 C 121.82 198.06 121.13 195.71 119.60 193.82 C 114.98 193.76 110.81 191.48 106.45 190.21 C 101.52 187.75 96.30 185.72 91.84 182.41 C 86.35 183.62 81.75 187.11 76.83 189.64 C 72.51 190.92 68.79 187.90 65.90 185.10 C 63.04 182.18 59.88 179.50 57.53 176.12 C 50.03 176.10 42.53 176.11 35.03 176.13 C 21.69 176.59 9.69 164.20 10.06 150.97 C 10.15 120.63 10.03 90.30 10.11 59.96 C 11.26 47.61 22.55 37.12 34.93 36.71 C 44.15 36.56 53.37 36.70 62.59 36.66 C 66.40 33.42 69.28 27.38 75.03 27.88 C 80.83 29.44 85.47 33.58 91.00 35.84 C 100.09 30.49 109.75 25.43 120.29 23.73 C 122.22 18.71 123.23 13.37 125.33 8.41 M 130.06 9.60 C 128.90 15.00 127.02 20.22 125.39 25.49 C 124.48 28.70 120.62 28.85 117.95 29.73 C 108.27 31.85 99.69 36.97 91.10 41.69 C 85.26 39.06 79.74 35.82 74.05 32.89 C 70.66 35.79 67.43 38.89 64.51 42.29 C 55.33 42.14 46.15 42.22 36.97 42.22 C 33.77 42.17 30.63 42.87 27.54 43.61 C 20.74 47.71 15.09 54.67 15.21 62.96 C 15.18 91.99 15.19 121.02 15.21 150.04 C 15.05 160.80 24.27 170.41 34.93 171.15 C 44.45 171.51 53.99 171.09 63.52 171.34 C 63.24 171.94 62.66 173.14 62.38 173.74 C 65.59 176.85 68.56 180.20 71.93 183.16 C 72.79 183.67 73.67 185.23 74.82 184.51 C 80.36 182.08 85.31 178.30 91.14 176.52 C 92.71 176.78 94.03 177.76 95.39 178.51 C 103.36 183.45 112.12 187.14 121.28 189.17 C 123.23 189.51 125.15 190.63 125.58 192.71 C 127.17 197.93 128.96 203.11 130.02 208.47 C 135.58 208.78 141.14 208.64 146.71 208.61 C 148.32 202.92 149.72 197.16 151.82 191.63 C 152.62 189.65 154.98 189.39 156.76 188.86 C 165.78 186.80 174.34 183.02 182.18 178.15 C 183.61 177.43 185.12 176.05 186.84 176.73 C 192.46 178.87 197.31 182.66 202.90 184.87 C 207.27 181.75 210.75 177.56 214.37 173.64 C 214.08 173.05 213.50 171.86 213.20 171.27 C 455.46 171.26 697.72 171.30 939.98 171.25 C 951.25 171.22 961.33 161.39 961.17 150.03 C 961.23 121.00 961.25 91.97 961.16 62.95 C 961.20 51.88 951.24 41.73 940.05 42.24 C 880.70 42.15 821.35 42.29 762.00 42.17 C 691.65 42.24 621.31 42.24 550.96 42.17 C 438.18 42.32 325.40 42.09 212.62 42.28 C 209.47 39.18 206.60 35.67 202.87 33.24 C 197.00 35.54 191.91 39.54 185.90 41.56 C 181.67 39.90 178.03 37.05 173.87 35.22 C 168.65 32.63 163.16 30.63 157.47 29.35 C 155.30 28.63 152.22 28.26 151.54 25.66 C 149.64 20.35 148.25 14.88 146.74 9.45 C 141.18 9.30 135.61 9.15 130.06 9.60 Z" />
</g>
<g id="#186ae2ff">
<path fill="#186ae2" opacity="1.00" d=" M 130.06 9.60 C 135.61 9.15 141.18 9.30 146.74 9.45 C 148.25 14.88 149.64 20.35 151.54 25.66 C 152.22 28.26 155.30 28.63 157.47 29.35 C 163.16 30.63 168.65 32.63 173.87 35.22 C 178.03 37.05 181.67 39.90 185.90 41.56 C 191.91 39.54 197.00 35.54 202.87 33.24 C 206.60 35.67 209.47 39.18 212.62 42.28 C 213.13 42.78 214.15 43.80 214.66 44.30 C 212.03 49.68 208.60 54.69 206.45 60.30 C 205.64 62.29 207.18 64.14 208.02 65.83 C 212.48 73.08 216.01 80.96 217.95 89.26 C 218.73 91.61 218.90 95.05 221.78 95.83 C 227.15 97.80 232.77 99.00 238.19 100.83 C 238.34 106.31 238.52 111.81 237.98 117.28 C 231.90 119.03 225.79 120.72 219.83 122.83 C 217.06 131.93 214.62 141.28 209.58 149.47 C 208.41 151.86 206.24 154.10 206.27 156.87 C 207.82 161.99 210.95 166.45 213.20 171.27 C 213.50 171.86 214.08 173.05 214.37 173.64 C 210.75 177.56 207.27 181.75 202.90 184.87 C 197.31 182.66 192.46 178.87 186.84 176.73 C 185.12 176.05 183.61 177.43 182.18 178.15 C 174.34 183.02 165.78 186.80 156.76 188.86 C 154.98 189.39 152.62 189.65 151.82 191.63 C 149.72 197.16 148.32 202.92 146.71 208.61 C 141.14 208.64 135.58 208.78 130.02 208.47 C 128.96 203.11 127.17 197.93 125.58 192.71 C 125.15 190.63 123.23 189.51 121.28 189.17 C 112.12 187.14 103.36 183.45 95.39 178.51 C 94.03 177.76 92.71 176.78 91.14 176.52 C 85.31 178.30 80.36 182.08 74.82 184.51 C 73.67 185.23 72.79 183.67 71.93 183.16 C 68.56 180.20 65.59 176.85 62.38 173.74 C 62.66 173.14 63.24 171.94 63.52 171.34 C 65.75 166.22 69.56 161.74 70.82 156.24 C 69.26 151.72 66.08 147.96 64.27 143.53 C 60.91 136.98 59.43 129.74 57.14 122.80 C 51.10 120.66 44.92 118.98 38.79 117.13 C 38.62 111.69 38.62 106.25 38.81 100.81 C 44.35 99.00 50.09 97.78 55.53 95.65 C 57.95 94.80 58.14 91.85 58.86 89.76 C 60.85 81.33 64.34 73.29 68.86 65.92 C 69.84 64.06 71.52 61.95 70.37 59.78 C 68.06 54.56 65.16 49.61 62.43 44.59 C 63.12 43.82 63.81 43.05 64.51 42.29 C 67.43 38.89 70.66 35.79 74.05 32.89 C 79.74 35.82 85.26 39.06 91.10 41.69 C 99.69 36.97 108.27 31.85 117.95 29.73 C 120.62 28.85 124.48 28.70 125.39 25.49 C 127.02 20.22 128.90 15.00 130.06 9.60 M 97.58 50.63 C 86.10 58.59 77.19 70.11 72.15 83.13 C 66.09 98.57 65.61 116.16 71.05 131.85 C 78.77 154.57 98.45 172.88 121.94 178.18 C 151.01 185.88 183.87 171.90 199.13 146.14 C 208.24 131.33 211.58 113.16 208.42 96.07 L 208.28 96.10 C 206.50 83.92 200.74 72.49 192.93 63.05 C 181.74 49.54 165.30 40.69 147.95 38.33 C 130.41 35.83 112.05 40.48 97.58 50.63 Z" />
<path fill="#186ae2" opacity="1.00" d=" M 275.80 58.14 C 290.47 47.81 309.58 45.56 326.89 48.99 C 334.15 50.50 341.70 53.77 345.82 60.25 C 349.83 66.90 347.56 75.96 341.51 80.60 C 339.74 82.92 337.36 80.32 335.57 79.47 C 327.15 74.18 316.63 73.05 307.05 75.24 C 298.91 77.12 292.12 83.30 289.22 91.10 C 285.65 100.69 285.38 111.50 288.09 121.34 C 290.79 131.47 299.58 139.59 309.90 141.47 C 320.78 144.11 332.10 140.95 341.53 135.36 C 337.48 120.75 338.90 104.11 347.22 91.21 C 355.99 77.36 373.02 70.45 389.02 71.16 C 406.15 70.39 424.06 78.96 432.22 94.42 C 434.09 87.86 438.05 81.76 443.97 78.19 C 453.35 72.10 464.81 70.76 475.75 70.70 C 482.88 71.16 490.17 71.89 496.78 74.81 C 500.84 76.62 504.74 79.63 506.18 83.99 C 507.93 89.97 505.94 96.60 501.34 100.75 C 493.07 97.00 483.96 95.14 474.91 94.86 C 471.03 95.26 466.30 95.16 463.62 98.46 C 461.79 101.93 464.87 104.99 468.13 105.59 C 481.40 109.08 496.71 110.92 506.15 122.02 C 511.34 115.10 519.57 111.34 527.94 109.99 C 538.17 108.34 548.53 107.67 558.82 106.37 C 558.60 103.90 558.72 101.09 556.68 99.30 C 552.06 94.80 545.03 95.18 539.04 95.15 C 531.21 94.90 523.49 96.74 516.15 99.32 C 515.12 99.57 513.89 100.22 512.93 99.45 C 508.47 95.27 507.24 88.61 508.75 82.83 C 510.55 77.94 515.65 75.43 520.32 73.98 C 530.89 70.92 542.02 70.91 552.93 71.35 C 562.47 72.20 572.32 74.75 579.78 81.06 C 583.70 84.29 586.30 88.78 588.16 93.44 C 590.48 85.59 596.41 79.14 603.85 75.83 C 616.86 69.89 631.89 69.50 645.69 72.56 C 651.76 74.04 658.44 76.73 661.32 82.70 C 664.17 88.86 661.74 96.12 657.17 100.75 C 647.12 96.39 635.95 94.15 625.01 95.49 C 622.10 95.89 618.46 97.76 618.58 101.16 C 619.35 104.50 623.03 105.46 625.92 106.18 C 634.76 108.21 643.80 110.04 651.94 114.24 C 657.44 116.99 662.46 121.28 664.69 127.16 C 665.46 105.76 665.24 84.34 664.79 62.93 C 665.00 59.28 666.16 55.39 669.78 53.77 C 681.04 48.49 693.81 48.54 705.98 47.79 C 712.98 48.17 720.03 48.44 726.92 49.89 C 740.61 52.57 753.80 59.74 761.79 71.43 C 765.06 76.16 767.42 81.46 769.19 86.92 C 769.65 89.04 770.19 91.14 770.72 93.25 C 775.53 84.03 784.23 77.24 793.96 73.81 C 802.33 71.04 811.24 70.67 819.97 71.50 C 830.84 72.90 841.22 78.13 848.46 86.42 C 847.54 83.70 846.76 80.93 846.34 78.09 C 853.32 72.53 863.06 69.94 871.59 73.41 C 877.31 75.49 879.76 81.72 880.83 87.25 L 881.14 87.86 C 885.08 103.96 889.20 120.03 893.44 136.06 C 893.79 137.60 894.39 139.06 895.08 140.48 C 895.78 138.32 896.39 136.13 896.91 133.92 C 901.70 114.74 906.19 95.48 909.97 76.07 C 910.85 74.81 912.56 74.50 913.86 73.75 C 919.42 72.38 925.27 70.96 930.96 72.55 C 934.96 73.42 939.16 75.71 940.34 79.92 C 941.87 87.49 938.96 94.87 937.16 102.11 C 931.37 121.47 924.22 140.43 915.84 158.81 C 914.81 160.90 913.94 163.41 911.61 164.37 C 904.33 167.94 895.93 168.08 888.01 167.36 C 882.23 166.69 875.86 164.28 873.54 158.47 C 867.06 144.17 861.81 129.33 856.94 114.42 C 855.83 116.70 854.94 119.23 853.01 120.99 C 850.19 123.52 846.43 124.63 842.76 125.23 C 827.42 127.31 812.17 129.97 796.81 131.93 C 798.12 138.10 804.09 141.67 809.77 143.18 C 821.90 146.51 834.75 143.45 845.85 138.20 C 853.36 142.43 855.42 154.15 848.94 160.18 C 844.31 164.36 838.05 166.15 832.05 167.26 C 817.11 169.78 800.92 168.88 787.45 161.39 C 777.56 155.99 770.40 146.41 767.00 135.75 C 763.33 143.18 758.67 150.33 751.99 155.40 C 741.32 164.03 727.47 167.50 714.00 168.38 C 702.44 168.91 690.79 167.98 679.55 165.19 C 674.70 163.76 669.40 161.73 666.77 157.10 C 665.28 154.89 665.33 152.15 665.14 149.60 C 662.11 155.77 657.11 161.00 650.81 163.84 C 639.68 169.04 627.01 169.14 614.99 168.29 C 607.44 167.38 599.46 165.96 593.41 161.01 C 591.24 159.39 589.80 157.04 588.82 154.57 C 588.64 154.59 588.30 154.65 588.13 154.67 C 580.47 164.21 567.65 166.89 556.11 168.16 C 543.11 169.00 529.37 168.75 517.49 162.77 C 513.34 160.78 509.93 157.61 507.11 154.02 C 499.95 163.87 487.59 167.78 475.91 168.47 C 465.53 169.00 454.81 168.76 444.95 165.15 C 440.43 163.41 436.18 160.47 433.75 156.20 C 431.82 152.76 432.41 148.68 432.50 144.91 C 427.05 156.69 415.14 164.53 402.65 167.08 C 387.92 170.13 371.57 168.62 358.85 160.09 C 354.92 157.30 351.16 154.04 348.68 149.86 C 348.10 154.15 346.37 158.40 342.89 161.14 C 335.27 167.66 324.65 168.73 315.01 168.78 C 299.19 169.19 282.46 165.20 270.44 154.41 C 260.27 145.44 254.66 132.30 252.86 119.05 C 252.26 112.01 252.25 104.93 252.84 97.89 C 254.91 82.34 262.76 67.21 275.80 58.14 M 697.73 75.46 C 697.74 97.19 697.86 118.94 697.67 140.68 C 701.96 142.08 706.55 141.67 711.00 141.72 C 719.82 141.68 728.98 137.32 733.27 129.36 C 738.08 121.13 738.11 111.26 737.53 102.03 C 736.78 93.09 732.86 83.77 724.96 78.93 C 716.96 73.67 706.81 73.85 697.73 75.46 M 800.22 98.29 C 796.41 101.31 794.87 106.19 794.24 110.84 C 805.15 109.31 816.03 107.50 826.85 105.46 C 825.24 100.85 821.99 96.37 817.09 95.00 C 811.37 93.57 804.80 94.33 800.22 98.29 M 376.88 101.81 C 373.00 106.97 372.17 113.69 372.33 119.97 C 372.18 126.14 373.21 132.64 376.95 137.71 C 381.98 144.68 393.35 145.43 399.40 139.41 C 402.91 135.84 404.25 130.84 405.22 126.08 C 405.75 117.92 405.83 108.94 400.93 101.98 C 395.60 94.17 382.30 94.07 376.88 101.81 M 590.29 113.82 C 589.55 123.00 590.34 132.16 590.16 141.35 C 591.39 139.83 592.68 138.34 593.98 136.87 C 598.25 138.73 602.46 140.72 606.85 142.26 C 614.41 144.25 622.54 145.55 630.23 143.65 C 633.95 142.91 637.25 138.30 634.07 135.04 C 629.02 131.18 622.14 131.54 616.24 129.80 C 606.38 127.37 595.14 123.56 590.29 113.82 M 438.36 119.33 C 438.20 127.03 437.14 134.77 434.24 141.95 L 437.04 138.09 L 438.62 137.07 C 441.58 138.08 444.28 139.68 447.22 140.77 C 455.31 143.99 464.24 145.31 472.89 144.10 C 476.34 143.50 480.64 141.07 479.54 136.89 C 477.73 132.91 472.91 132.44 469.16 131.57 C 458.28 129.56 446.77 127.04 438.36 119.33 M 543.05 128.97 C 539.32 129.64 534.43 130.86 533.46 135.14 C 532.40 139.41 535.73 143.62 539.85 144.45 C 546.06 145.94 552.51 144.74 558.60 143.21 C 559.69 138.07 558.96 132.77 559.16 127.56 C 553.80 128.06 548.41 128.39 543.05 128.97 Z" />
</g>
<g id="#3239c6ff">
<path fill="#3239c6" opacity="1.00" d=" M 97.58 50.63 C 112.05 40.48 130.41 35.83 147.95 38.33 C 165.30 40.69 181.74 49.54 192.93 63.05 C 200.74 72.49 206.50 83.92 208.28 96.10 C 162.51 107.89 116.82 120.04 71.05 131.85 C 65.61 116.16 66.09 98.57 72.15 83.13 C 77.19 70.11 86.10 58.59 97.58 50.63 Z" />
</g>
<g id="#ffff00ff">
<path fill="#ffff00" opacity="1.00" d=" M 27.54 43.61 C 30.63 42.87 33.77 42.17 36.97 42.22 C 46.15 42.22 55.33 42.14 64.51 42.29 C 63.81 43.05 63.12 43.82 62.43 44.59 C 65.16 49.61 68.06 54.56 70.37 59.78 C 71.52 61.95 69.84 64.06 68.86 65.92 C 64.34 73.29 60.85 81.33 58.86 89.76 C 58.14 91.85 57.95 94.80 55.53 95.65 C 50.09 97.78 44.35 99.00 38.81 100.81 C 38.62 106.25 38.62 111.69 38.79 117.13 C 44.92 118.98 51.10 120.66 57.14 122.80 C 59.43 129.74 60.91 136.98 64.27 143.53 C 66.08 147.96 69.26 151.72 70.82 156.24 C 69.56 161.74 65.75 166.22 63.52 171.34 C 53.99 171.09 44.45 171.51 34.93 171.15 C 24.27 170.41 15.05 160.80 15.21 150.04 C 15.19 121.02 15.18 91.99 15.21 62.96 C 15.09 54.67 20.74 47.71 27.54 43.61 Z" />
<path fill="#ffff00" opacity="1.00" d=" M 212.62 42.28 C 325.40 42.09 438.18 42.32 550.96 42.17 C 621.31 42.24 691.65 42.24 762.00 42.17 C 821.35 42.29 880.70 42.15 940.05 42.24 C 951.24 41.73 961.20 51.88 961.16 62.95 C 961.25 91.97 961.23 121.00 961.17 150.03 C 961.33 161.39 951.25 171.22 939.98 171.25 C 697.72 171.30 455.46 171.26 213.20 171.27 C 210.95 166.45 207.82 161.99 206.27 156.87 C 206.24 154.10 208.41 151.86 209.58 149.47 C 214.62 141.28 217.06 131.93 219.83 122.83 C 225.79 120.72 231.90 119.03 237.98 117.28 C 238.52 111.81 238.34 106.31 238.19 100.83 C 232.77 99.00 227.15 97.80 221.78 95.83 C 218.90 95.05 218.73 91.61 217.95 89.26 C 216.01 80.96 212.48 73.08 208.02 65.83 C 207.18 64.14 205.64 62.29 206.45 60.30 C 208.60 54.69 212.03 49.68 214.66 44.30 C 214.15 43.80 213.13 42.78 212.62 42.28 M 275.80 58.14 C 262.76 67.21 254.91 82.34 252.84 97.89 C 252.25 104.93 252.26 112.01 252.86 119.05 C 254.66 132.30 260.27 145.44 270.44 154.41 C 282.46 165.20 299.19 169.19 315.01 168.78 C 324.65 168.73 335.27 167.66 342.89 161.14 C 346.37 158.40 348.10 154.15 348.68 149.86 C 351.16 154.04 354.92 157.30 358.85 160.09 C 371.57 168.62 387.92 170.13 402.65 167.08 C 415.14 164.53 427.05 156.69 432.50 144.91 C 432.41 148.68 431.82 152.76 433.75 156.20 C 436.18 160.47 440.43 163.41 444.95 165.15 C 454.81 168.76 465.53 169.00 475.91 168.47 C 487.59 167.78 499.95 163.87 507.11 154.02 C 509.93 157.61 513.34 160.78 517.49 162.77 C 529.37 168.75 543.11 169.00 556.11 168.16 C 567.65 166.89 580.47 164.21 588.13 154.67 C 588.30 154.65 588.64 154.59 588.82 154.57 C 589.80 157.04 591.24 159.39 593.41 161.01 C 599.46 165.96 607.44 167.38 614.99 168.29 C 627.01 169.14 639.68 169.04 650.81 163.84 C 657.11 161.00 662.11 155.77 665.14 149.60 C 665.33 152.15 665.28 154.89 666.77 157.10 C 669.40 161.73 674.70 163.76 679.55 165.19 C 690.79 167.98 702.44 168.91 714.00 168.38 C 727.47 167.50 741.32 164.03 751.99 155.40 C 758.67 150.33 763.33 143.18 767.00 135.75 C 770.40 146.41 777.56 155.99 787.45 161.39 C 800.92 168.88 817.11 169.78 832.05 167.26 C 838.05 166.15 844.31 164.36 848.94 160.18 C 855.42 154.15 853.36 142.43 845.85 138.20 C 834.75 143.45 821.90 146.51 809.77 143.18 C 804.09 141.67 798.12 138.10 796.81 131.93 C 812.17 129.97 827.42 127.31 842.76 125.23 C 846.43 124.63 850.19 123.52 853.01 120.99 C 854.94 119.23 855.83 116.70 856.94 114.42 C 861.81 129.33 867.06 144.17 873.54 158.47 C 875.86 164.28 882.23 166.69 888.01 167.36 C 895.93 168.08 904.33 167.94 911.61 164.37 C 913.94 163.41 914.81 160.90 915.84 158.81 C 924.22 140.43 931.37 121.47 937.16 102.11 C 938.96 94.87 941.87 87.49 940.34 79.92 C 939.16 75.71 934.96 73.42 930.96 72.55 C 925.27 70.96 919.42 72.38 913.86 73.75 C 912.56 74.50 910.85 74.81 909.97 76.07 C 906.19 95.48 901.70 114.74 896.91 133.92 C 896.39 136.13 895.78 138.32 895.08 140.48 C 894.39 139.06 893.79 137.60 893.44 136.06 C 889.20 120.03 885.08 103.96 881.14 87.86 L 880.83 87.25 C 879.76 81.72 877.31 75.49 871.59 73.41 C 863.06 69.94 853.32 72.53 846.34 78.09 C 846.76 80.93 847.54 83.70 848.46 86.42 C 841.22 78.13 830.84 72.90 819.97 71.50 C 811.24 70.67 802.33 71.04 793.96 73.81 C 784.23 77.24 775.53 84.03 770.72 93.25 C 770.19 91.14 769.65 89.04 769.19 86.92 C 767.42 81.46 765.06 76.16 761.79 71.43 C 753.80 59.74 740.61 52.57 726.92 49.89 C 720.03 48.44 712.98 48.17 705.98 47.79 C 693.81 48.54 681.04 48.49 669.78 53.77 C 666.16 55.39 665.00 59.28 664.79 62.93 C 665.24 84.34 665.46 105.76 664.69 127.16 C 662.46 121.28 657.44 116.99 651.94 114.24 C 643.80 110.04 634.76 108.21 625.92 106.18 C 623.03 105.46 619.35 104.50 618.58 101.16 C 618.46 97.76 622.10 95.89 625.01 95.49 C 635.95 94.15 647.12 96.39 657.17 100.75 C 661.74 96.12 664.17 88.86 661.32 82.70 C 658.44 76.73 651.76 74.04 645.69 72.56 C 631.89 69.50 616.86 69.89 603.85 75.83 C 596.41 79.14 590.48 85.59 588.16 93.44 C 586.30 88.78 583.70 84.29 579.78 81.06 C 572.32 74.75 562.47 72.20 552.93 71.35 C 542.02 70.91 530.89 70.92 520.32 73.98 C 515.65 75.43 510.55 77.94 508.75 82.83 C 507.24 88.61 508.47 95.27 512.93 99.45 C 513.89 100.22 515.12 99.57 516.15 99.32 C 523.49 96.74 531.21 94.90 539.04 95.15 C 545.03 95.18 552.06 94.80 556.68 99.30 C 558.72 101.09 558.60 103.90 558.82 106.37 C 548.53 107.67 538.17 108.34 527.94 109.99 C 519.57 111.34 511.34 115.10 506.15 122.02 C 496.71 110.92 481.40 109.08 468.13 105.59 C 464.87 104.99 461.79 101.93 463.62 98.46 C 466.30 95.16 471.03 95.26 474.91 94.86 C 483.96 95.14 493.07 97.00 501.34 100.75 C 505.94 96.60 507.93 89.97 506.18 83.99 C 504.74 79.63 500.84 76.62 496.78 74.81 C 490.17 71.89 482.88 71.16 475.75 70.70 C 464.81 70.76 453.35 72.10 443.97 78.19 C 438.05 81.76 434.09 87.86 432.22 94.42 C 424.06 78.96 406.15 70.39 389.02 71.16 C 373.02 70.45 355.99 77.36 347.22 91.21 C 338.90 104.11 337.48 120.75 341.53 135.36 C 332.10 140.95 320.78 144.11 309.90 141.47 C 299.58 139.59 290.79 131.47 288.09 121.34 C 285.38 111.50 285.65 100.69 289.22 91.10 C 292.12 83.30 298.91 77.12 307.05 75.24 C 316.63 73.05 327.15 74.18 335.57 79.47 C 337.36 80.32 339.74 82.92 341.51 80.60 C 347.56 75.96 349.83 66.90 345.82 60.25 C 341.70 53.77 334.15 50.50 326.89 48.99 C 309.58 45.56 290.47 47.81 275.80 58.14 Z" />
<path fill="#ffff00" opacity="1.00" d=" M 697.73 75.46 C 706.81 73.85 716.96 73.67 724.96 78.93 C 732.86 83.77 736.78 93.09 737.53 102.03 C 738.11 111.26 738.08 121.13 733.27 129.36 C 728.98 137.32 719.82 141.68 711.00 141.72 C 706.55 141.67 701.96 142.08 697.67 140.68 C 697.86 118.94 697.74 97.19 697.73 75.46 Z" />
<path fill="#ffff00" opacity="1.00" d=" M 800.22 98.29 C 804.80 94.33 811.37 93.57 817.09 95.00 C 821.99 96.37 825.24 100.85 826.85 105.46 C 816.03 107.50 805.15 109.31 794.24 110.84 C 794.87 106.19 796.41 101.31 800.22 98.29 Z" />
<path fill="#ffff00" opacity="1.00" d=" M 376.88 101.81 C 382.30 94.07 395.60 94.17 400.93 101.98 C 405.83 108.94 405.75 117.92 405.22 126.08 C 404.25 130.84 402.91 135.84 399.40 139.41 C 393.35 145.43 381.98 144.68 376.95 137.71 C 373.21 132.64 372.18 126.14 372.33 119.97 C 372.17 113.69 373.00 106.97 376.88 101.81 Z" />
<path fill="#ffff00" opacity="1.00" d=" M 590.29 113.82 C 595.14 123.56 606.38 127.37 616.24 129.80 C 622.14 131.54 629.02 131.18 634.07 135.04 C 637.25 138.30 633.95 142.91 630.23 143.65 C 622.54 145.55 614.41 144.25 606.85 142.26 C 602.46 140.72 598.25 138.73 593.98 136.87 C 592.68 138.34 591.39 139.83 590.16 141.35 C 590.34 132.16 589.55 123.00 590.29 113.82 Z" />
<path fill="#ffff00" opacity="1.00" d=" M 438.36 119.33 C 446.77 127.04 458.28 129.56 469.16 131.57 C 472.91 132.44 477.73 132.91 479.54 136.89 C 480.64 141.07 476.34 143.50 472.89 144.10 C 464.24 145.31 455.31 143.99 447.22 140.77 C 444.28 139.68 441.58 138.08 438.62 137.07 L 437.04 138.09 L 434.24 141.95 C 437.14 134.77 438.20 127.03 438.36 119.33 Z" />
<path fill="#ffff00" opacity="1.00" d=" M 543.05 128.97 C 548.41 128.39 553.80 128.06 559.16 127.56 C 558.96 132.77 559.69 138.07 558.60 143.21 C 552.51 144.74 546.06 145.94 539.85 144.45 C 535.73 143.62 532.40 139.41 533.46 135.14 C 534.43 130.86 539.32 129.64 543.05 128.97 Z" />
</g>
<g id="#010036ff">
<path fill="#010036" opacity="1.00" d=" M 71.05 131.85 C 116.82 120.04 162.51 107.89 208.28 96.10 L 208.42 96.07 C 211.58 113.16 208.24 131.33 199.13 146.14 C 183.87 171.90 151.01 185.88 121.94 178.18 C 98.45 172.88 78.77 154.57 71.05 131.85 Z" />
</g>



</svg>
