<?xml version="1.0" encoding="UTF-8" ?>
<!DOCTYPE svg PUBLIC "-//W3C//DTD SVG 1.1//EN" "http://www.w3.org/Graphics/SVG/1.1/DTD/svg11.dtd">
<svg width="405pt" height="416pt" viewBox="0 0 405 416" version="1.1" xmlns="http://www.w3.org/2000/svg">
<g id="#ffffffff">
</g>
<g id="#186ae2ff">
<path fill="#186ae2" opacity="1.00" d=" M 184.87 3.62 C 195.63 2.71 206.47 2.89 217.24 3.54 C 220.37 14.36 223.40 25.22 226.91 35.92 C 228.12 39.86 232.49 41.06 236.04 41.94 C 250.59 44.98 264.47 50.65 277.58 57.56 C 283.07 60.53 288.13 64.30 293.94 66.67 C 298.49 65.31 302.61 62.94 306.81 60.79 C 313.81 57.08 320.84 53.41 327.81 49.64 C 336.03 56.60 343.67 64.19 350.80 72.25 C 344.92 83.49 337.95 94.21 333.42 106.11 C 335.56 111.23 338.62 115.86 341.44 120.61 C 347.26 131.00 351.88 142.05 355.49 153.39 C 357.20 158.59 357.64 164.14 359.80 169.20 C 361.10 172.07 364.22 173.42 367.09 174.20 C 376.93 176.93 386.63 180.11 396.49 182.79 C 397.26 193.58 397.18 204.43 396.54 215.23 C 385.71 218.45 374.81 221.44 364.08 224.97 C 359.88 226.38 358.77 231.15 357.92 234.97 C 355.10 248.25 349.99 260.95 343.80 273.00 C 340.68 279.48 336.18 285.21 333.43 291.88 C 337.72 303.89 344.97 314.48 350.36 325.97 C 343.32 334.03 335.81 341.71 327.74 348.73 C 321.84 345.47 315.92 342.23 309.95 339.10 C 304.65 336.31 299.57 332.96 293.74 331.35 C 288.74 333.63 284.16 336.68 279.42 339.43 C 265.80 346.92 251.27 352.92 236.02 356.12 C 232.18 356.89 227.67 358.63 226.62 362.87 C 223.37 373.38 220.14 383.91 217.31 394.54 C 206.62 395.14 195.85 395.29 185.17 394.50 C 181.24 383.93 178.75 372.63 175.07 361.89 C 173.29 357.48 168.31 356.72 164.25 355.70 C 151.29 352.92 138.94 347.84 127.16 341.87 C 120.60 338.68 114.78 334.15 108.02 331.37 C 96.26 336.03 85.58 342.91 74.21 348.38 C 66.02 341.46 58.42 333.87 51.34 325.82 C 56.14 316.78 60.97 307.75 65.88 298.76 C 67.05 296.61 67.90 294.31 68.73 292.02 C 66.07 285.75 62.02 280.22 58.83 274.23 C 52.19 261.26 46.61 247.61 43.77 233.27 C 42.95 229.65 41.12 225.50 37.14 224.58 C 26.63 221.36 16.11 218.20 5.53 215.24 C 4.83 204.44 4.84 193.59 5.54 182.79 C 16.26 179.87 26.89 176.60 37.52 173.35 C 41.60 172.21 43.11 167.76 43.94 164.06 C 46.92 149.46 52.64 135.57 59.58 122.44 C 62.66 117.02 66.23 111.86 68.72 106.13 C 66.82 100.16 63.47 94.83 60.59 89.32 C 57.65 83.61 54.64 77.94 51.66 72.25 C 58.58 64.05 66.17 56.44 74.20 49.32 C 85.59 54.89 96.17 62.11 108.05 66.67 C 113.82 64.16 119.06 60.68 124.49 57.55 C 133.93 52.45 143.88 48.33 154.06 44.97 C 159.73 43.09 165.76 42.42 171.31 40.18 C 173.87 39.12 174.81 36.31 175.61 33.90 C 178.75 23.82 181.85 13.73 184.87 3.62 M 104.06 98.11 C 82.77 118.55 68.28 145.91 63.24 174.99 C 59.00 198.17 61.01 222.43 68.82 244.66 C 76.92 268.19 91.31 289.61 110.44 305.60 C 136.90 328.37 172.22 340.33 207.04 338.89 C 233.32 337.63 259.31 328.97 280.88 313.87 C 309.19 294.59 329.46 264.23 337.23 230.95 C 341.88 211.91 342.19 191.88 338.42 172.67 C 331.68 137.17 310.64 104.62 280.86 84.11 C 258.10 68.41 230.68 59.44 203.00 59.14 C 166.57 58.36 130.34 73.00 104.06 98.11 Z" />
<path fill="#186ae2" opacity="1.00" d=" M 75.50 187.61 C 77.78 162.90 87.33 138.78 102.89 119.43 C 103.13 127.30 102.52 135.20 103.11 143.06 C 103.28 146.57 106.56 149.21 109.97 149.19 C 119.59 149.82 129.26 148.80 138.88 149.56 C 142.54 149.79 145.02 153.46 144.97 156.93 C 145.31 166.29 144.62 175.67 145.18 185.02 C 145.20 188.29 147.94 191.19 151.21 191.36 C 161.10 192.14 171.05 191.06 180.94 191.87 C 183.76 191.95 186.03 194.49 186.69 197.08 C 187.30 202.11 186.90 207.20 186.96 212.26 C 151.92 221.44 116.87 230.57 81.82 239.74 C 76.21 223.03 74.00 205.18 75.50 187.61 Z" />
</g>
<g id="#3239c6ff">
<path fill="#3239c6" opacity="1.00" d=" M 104.06 98.11 C 130.34 73.00 166.57 58.36 203.00 59.14 C 230.68 59.44 258.10 68.41 280.86 84.11 C 310.64 104.62 331.68 137.17 338.42 172.67 C 287.94 185.90 237.45 199.07 186.96 212.26 C 186.90 207.20 187.30 202.11 186.69 197.08 C 186.03 194.49 183.76 191.95 180.94 191.87 C 171.05 191.06 161.10 192.14 151.21 191.36 C 147.94 191.19 145.20 188.29 145.18 185.02 C 144.62 175.67 145.31 166.29 144.97 156.93 C 145.02 153.46 142.54 149.79 138.88 149.56 C 129.26 148.80 119.59 149.82 109.97 149.19 C 106.56 149.21 103.28 146.57 103.11 143.06 C 102.52 135.20 103.13 127.30 102.89 119.43 C 87.33 138.78 77.78 162.90 75.50 187.61 C 74.00 205.18 76.21 223.03 81.82 239.74 C 77.41 240.94 72.96 241.99 68.54 243.19 C 68.61 243.56 68.75 244.29 68.82 244.66 C 61.01 222.43 59.00 198.17 63.24 174.99 C 68.28 145.91 82.77 118.55 104.06 98.11 Z" />
</g>
<g id="#010036ff">
<path fill="#010036" opacity="1.00" d=" M 186.96 212.26 C 237.45 199.07 287.94 185.90 338.42 172.67 C 342.19 191.88 341.88 211.91 337.23 230.95 C 329.46 264.23 309.19 294.59 280.88 313.87 C 259.31 328.97 233.32 337.63 207.04 338.89 C 172.22 340.33 136.90 328.37 110.44 305.60 C 91.31 289.61 76.92 268.19 68.82 244.66 C 68.75 244.29 68.61 243.56 68.54 243.19 C 72.96 241.99 77.41 240.94 81.82 239.74 C 92.54 271.30 116.23 298.32 146.40 312.60 C 169.63 324.01 196.49 327.55 221.97 323.26 C 239.47 320.41 256.02 313.27 270.95 303.83 C 270.97 296.87 271.14 289.90 270.90 282.94 C 270.81 279.44 267.83 275.72 264.10 276.08 C 255.04 275.79 245.97 276.22 236.91 275.95 C 232.56 276.33 228.61 272.49 229.06 268.11 C 228.92 259.05 229.28 249.99 228.94 240.95 C 228.91 237.63 226.43 234.23 222.97 233.99 C 213.33 233.23 203.63 234.06 193.97 233.65 C 190.83 233.57 187.48 231.33 187.25 227.99 C 186.70 222.77 186.95 217.50 186.96 212.26 Z" />
</g>
<g id="#004f9dff">
<path fill="#004f9d" opacity="1.00" d=" M 81.82 239.74 C 116.87 230.57 151.92 221.44 186.96 212.26 C 186.95 217.50 186.70 222.77 187.25 227.99 C 187.48 231.33 190.83 233.57 193.97 233.65 C 203.63 234.06 213.33 233.23 222.97 233.99 C 226.43 234.23 228.91 237.63 228.94 240.95 C 229.28 249.99 228.92 259.05 229.06 268.11 C 228.61 272.49 232.56 276.33 236.91 275.95 C 245.97 276.22 255.04 275.79 264.10 276.08 C 267.83 275.72 270.81 279.44 270.90 282.94 C 271.14 289.90 270.97 296.87 270.95 303.83 C 256.02 313.27 239.47 320.41 221.97 323.26 C 196.49 327.55 169.63 324.01 146.40 312.60 C 116.23 298.32 92.54 271.30 81.82 239.74 Z" />
</g>
</svg>
